<svg width="26" height="26" viewBox="0 0 26 26" fill="none" xmlns="http://www.w3.org/2000/svg">
<path d="M5.33608 5.15461L3.70296 3.51994C9.85858 -0.869662 18.4125 0.570677 22.798 6.73212C26.1784 11.4875 26.1784 17.8776 22.798 22.633L21.1649 20.9983C24.6481 15.7285 23.1977 8.64114 17.9328 5.15461C14.1184 2.62831 9.15051 2.62831 5.33608 5.15461ZM17.9671 8.09245C15.0207 5.15461 10.4639 4.57162 6.87784 6.68641L8.55666 8.3668C11.9714 6.73212 16.0599 8.1839 17.693 11.6018C18.5838 13.4766 18.5838 15.6486 17.693 17.5118L19.3718 19.1922C21.4846 15.6027 20.9021 11.0303 17.9671 8.08101V8.09245ZM18.0927 22.7588C14.0042 26.7026 7.50597 26.5882 3.55449 22.5073C-0.294204 18.5178 -0.294204 12.1963 3.55449 8.21819L10.0185 14.6883L11.0464 13.6595C10.7151 12.4363 11.4461 11.1903 12.6566 10.8588C13.8786 10.5273 15.1234 11.2589 15.4546 12.4706C15.7858 13.6937 15.0549 14.9398 13.8443 15.2713C13.4561 15.3742 13.0449 15.3742 12.668 15.2713L11.6402 16.3001L18.0927 22.7702V22.7588ZM14.6323 22.5187L10.0299 17.9005L8.41961 16.2886L3.80574 11.6704C1.70438 15.5571 3.14337 20.4154 7.02632 22.5187C9.40178 23.799 12.2568 23.799 14.6323 22.5187Z" fill="black"/>
</svg>
