<svg width="24" height="25" viewBox="0 0 24 25" fill="none" xmlns="http://www.w3.org/2000/svg">
<path d="M1.54492 20.9934H0.764922C0.764922 21.4241 1.11414 21.7734 1.54492 21.7734L1.54492 20.9934ZM1.54492 4.42773V3.64773C1.11414 3.64773 0.764922 3.99695 0.764922 4.42773H1.54492ZM8.78235 4.42773L9.32806 3.87041L9.10064 3.64773H8.78235V4.42773ZM11.0007 6.5998L10.455 7.15712L10.6778 7.37537L10.9898 7.37973L11.0007 6.5998ZM22.4531 6.75957H23.2331C23.2331 6.33303 22.8905 5.9856 22.464 5.97965L22.4531 6.75957ZM22.4531 20.9934V21.7734C22.8839 21.7734 23.2331 21.4241 23.2331 20.9934H22.4531ZM1.54492 20.9934H2.32492V4.42773H1.54492H0.764922V20.9934H1.54492ZM1.54492 4.42773V5.20773H8.78235V4.42773V3.64773H1.54492V4.42773ZM8.78235 4.42773L8.23665 4.98506L10.455 7.15712L11.0007 6.5998L11.5464 6.04248L9.32806 3.87041L8.78235 4.42773ZM11.0007 6.5998L10.9898 7.37973L22.4423 7.5395L22.4531 6.75957L22.464 5.97965L11.0115 5.81988L11.0007 6.5998ZM22.4531 6.75957H21.6731V20.9934H22.4531H23.2331V6.75957H22.4531ZM22.4531 20.9934V20.2134H1.54492V20.9934V21.7734H22.4531V20.9934Z" fill="black"/>
<path d="M1.54492 20.9934H0.764922C0.764922 21.4241 1.11414 21.7734 1.54492 21.7734L1.54492 20.9934ZM1.54492 4.42773V3.64773C1.11414 3.64773 0.764922 3.99695 0.764922 4.42773H1.54492ZM8.78235 4.42773L9.32806 3.87041L9.10064 3.64773H8.78235V4.42773ZM11.0007 6.5998L10.455 7.15712L10.6778 7.37537L10.9898 7.37973L11.0007 6.5998ZM22.4531 6.75957H23.2331C23.2331 6.33303 22.8905 5.9856 22.464 5.97965L22.4531 6.75957ZM22.4531 20.9934V21.7734C22.8839 21.7734 23.2331 21.4241 23.2331 20.9934H22.4531ZM1.54492 20.9934H2.32492V4.42773H1.54492H0.764922V20.9934H1.54492ZM1.54492 4.42773V5.20773H8.78235V4.42773V3.64773H1.54492V4.42773ZM8.78235 4.42773L8.23665 4.98506L10.455 7.15712L11.0007 6.5998L11.5464 6.04248L9.32806 3.87041L8.78235 4.42773ZM11.0007 6.5998L10.9898 7.37973L22.4423 7.5395L22.4531 6.75957L22.464 5.97965L11.0115 5.81988L11.0007 6.5998ZM22.4531 6.75957H21.6731V20.9934H22.4531H23.2331V6.75957H22.4531ZM22.4531 20.9934V20.2134H1.54492V20.9934V21.7734H22.4531V20.9934Z" fill="black"/>
<path d="M1.54492 20.9934H0.764922C0.764922 21.4241 1.11414 21.7734 1.54492 21.7734L1.54492 20.9934ZM1.54492 4.42773V3.64773C1.11414 3.64773 0.764922 3.99695 0.764922 4.42773H1.54492ZM8.78235 4.42773L9.32806 3.87041L9.10064 3.64773H8.78235V4.42773ZM11.0007 6.5998L10.455 7.15712L10.6778 7.37537L10.9898 7.37973L11.0007 6.5998ZM22.4531 6.75957H23.2331C23.2331 6.33303 22.8905 5.9856 22.464 5.97965L22.4531 6.75957ZM22.4531 20.9934V21.7734C22.8839 21.7734 23.2331 21.4241 23.2331 20.9934H22.4531ZM1.54492 20.9934H2.32492V4.42773H1.54492H0.764922V20.9934H1.54492ZM1.54492 4.42773V5.20773H8.78235V4.42773V3.64773H1.54492V4.42773ZM8.78235 4.42773L8.23665 4.98506L10.455 7.15712L11.0007 6.5998L11.5464 6.04248L9.32806 3.87041L8.78235 4.42773ZM11.0007 6.5998L10.9898 7.37973L22.4423 7.5395L22.4531 6.75957L22.464 5.97965L11.0115 5.81988L11.0007 6.5998ZM22.4531 6.75957H21.6731V20.9934H22.4531H23.2331V6.75957H22.4531ZM22.4531 20.9934V20.2134H1.54492V20.9934V21.7734H22.4531V20.9934Z" fill="black"/>
</svg>
