<svg width="24" height="25" viewBox="0 0 24 25" fill="none" xmlns="http://www.w3.org/2000/svg">
<circle cx="12.0004" cy="12.1117" r="10.3254" stroke="black" stroke-width="1.36164"/>
<circle cx="12.0004" cy="12.1117" r="10.3254" stroke="black" stroke-width="1.36164"/>
<circle cx="12.0004" cy="12.1117" r="10.3254" stroke="black" stroke-width="1.36164"/>
<path d="M10.9042 2.13086C9.15435 4.74153 8.08984 8.19327 8.08984 11.9781C8.08984 15.8937 9.22921 19.4529 11.088 22.093" stroke="black" stroke-width="1.36164"/>
<path d="M10.9042 2.13086C9.15435 4.74153 8.08984 8.19327 8.08984 11.9781C8.08984 15.8937 9.22921 19.4529 11.088 22.093" stroke="black" stroke-width="1.36164"/>
<path d="M10.9042 2.13086C9.15435 4.74153 8.08984 8.19327 8.08984 11.9781C8.08984 15.8937 9.22921 19.4529 11.088 22.093" stroke="black" stroke-width="1.36164"/>
<path d="M13.0978 2.13086C14.8476 4.74153 15.9121 8.19327 15.9121 11.9781C15.9121 15.8937 14.7727 19.4529 12.9139 22.093" stroke="black" stroke-width="1.36164"/>
<path d="M13.0978 2.13086C14.8476 4.74153 15.9121 8.19327 15.9121 11.9781C15.9121 15.8937 14.7727 19.4529 12.9139 22.093" stroke="black" stroke-width="1.36164"/>
<path d="M13.0978 2.13086C14.8476 4.74153 15.9121 8.19327 15.9121 11.9781C15.9121 15.8937 14.7727 19.4529 12.9139 22.093" stroke="black" stroke-width="1.36164"/>
<path d="M21.5568 8.71289H2.44141" stroke="black" stroke-width="1.36164"/>
<path d="M21.5568 8.71289H2.44141" stroke="black" stroke-width="1.36164"/>
<path d="M21.5568 8.71289H2.44141" stroke="black" stroke-width="1.36164"/>
<path d="M21.5568 15.5137H2.44141" stroke="black" stroke-width="1.36164"/>
<path d="M21.5568 15.5137H2.44141" stroke="black" stroke-width="1.36164"/>
<path d="M21.5568 15.5137H2.44141" stroke="black" stroke-width="1.36164"/>
</svg>
