<svg width="31" height="30" viewBox="0 0 31 30" fill="none" xmlns="http://www.w3.org/2000/svg">
<rect x="0.5625" y="0.3125" width="29.375" height="29.375" rx="3.4375" fill="#A4FA50" fill-opacity="0.05"/>
<rect x="0.5625" y="0.3125" width="29.375" height="29.375" rx="3.4375" stroke="#A4FA50" stroke-width="0.625"/>
<path d="M8.76982 20.5313V21.7969C8.76982 21.9961 8.70331 22.163 8.57028 22.2977C8.4371 22.4326 8.27214 22.5 8.07538 22.5H7.61241C7.41565 22.5 7.25076 22.4326 7.11774 22.2977C6.98456 22.163 6.91797 21.9961 6.91797 21.7969V14.2031L8.88556 8.20312C8.96272 7.98437 9.09004 7.8125 9.26751 7.6875C9.44498 7.5625 9.64945 7.5 9.88093 7.5H20.6217C20.8532 7.5 21.0576 7.5625 21.2351 7.6875C21.4126 7.8125 21.5399 7.98437 21.617 8.20312L23.5846 14.2031V21.7969C23.5846 21.9961 23.5181 22.163 23.3851 22.2977C23.2519 22.4326 23.087 22.5 22.8902 22.5H22.4041C22.2035 22.5 22.0414 22.4326 21.918 22.2977C21.7945 22.163 21.7328 21.9961 21.7328 21.7969V20.5313H8.76982ZM8.83927 12.7969H21.6633L20.3902 8.90625H10.1124L8.83927 12.7969ZM10.755 17.9531C11.1136 17.9531 11.4126 17.8301 11.6518 17.584C11.891 17.3379 12.0106 17.0391 12.0106 16.6875C12.0106 16.323 11.889 16.013 11.646 15.7577C11.4029 15.5026 11.1078 15.375 10.7606 15.375C10.4005 15.375 10.0944 15.502 9.84227 15.7561C9.59027 16.0103 9.46427 16.3189 9.46427 16.6819C9.46427 17.045 9.58973 17.3477 9.84065 17.5898C10.0917 17.832 10.3965 17.9531 10.755 17.9531ZM19.7652 17.9531C20.1252 17.9531 20.4313 17.8301 20.6835 17.584C20.9355 17.3379 21.0615 17.0391 21.0615 16.6875C21.0615 16.323 20.936 16.013 20.6851 15.7577C20.434 15.5026 20.1292 15.375 19.7707 15.375C19.4121 15.375 19.1132 15.502 18.874 15.7561C18.6348 16.0103 18.5152 16.3189 18.5152 16.6819C18.5152 17.045 18.6367 17.3477 18.8798 17.5898C19.1228 17.832 19.418 17.9531 19.7652 17.9531ZM8.30686 19.125H22.1957V14.2031H8.30686V19.125Z" fill="#A4FA50"/>
</svg>
