<svg width="31" height="30" viewBox="0 0 31 30" fill="none" xmlns="http://www.w3.org/2000/svg">
<rect x="1.0625" y="0.3125" width="29.375" height="29.375" rx="3.4375" fill="#F78137" fill-opacity="0.05"/>
<rect x="1.0625" y="0.3125" width="29.375" height="29.375" rx="3.4375" stroke="#F78137" stroke-width="0.625"/>
<path d="M22.8107 8.82385C22.8106 8.57635 22.7305 8.3799 22.5519 8.20106C22.3733 8.02229 22.1771 7.94198 21.9299 7.94198C21.6826 7.942 21.4865 8.02225 21.3078 8.20106L18.4837 11.0285C18.3371 11.1753 18.1281 11.2423 17.9239 11.2067L9.84219 9.79541L9.21392 10.4244L15.2889 13.0103C15.4841 13.0933 15.6258 13.2676 15.6658 13.4761C15.7058 13.6847 15.6385 13.8995 15.4879 14.0491L12.8977 16.6212C12.7499 16.768 12.5402 16.833 12.3354 16.7956L9.51997 16.2824L9.1119 16.691L12.1761 18.3277L12.2557 18.3775C12.3315 18.4337 12.394 18.5064 12.4386 18.5905L14.0522 21.6322L14.4603 21.2236L13.9664 18.4273C13.9303 18.2232 13.996 18.0139 14.1418 17.8668L16.7109 15.2735L16.7693 15.2212C16.9134 15.1077 17.1006 15.0615 17.2831 15.0966C17.4915 15.1367 17.6667 15.2773 17.7497 15.4728L20.3312 21.5537L20.9582 20.9259L19.5511 12.8346C19.5155 12.6301 19.5812 12.4209 19.7278 12.2741L22.5519 9.44665C22.7305 9.26776 22.8107 9.07146 22.8107 8.82385ZM24.0846 8.82385C24.0846 9.41228 23.8684 9.93216 23.4526 10.3484L20.8612 12.9418L22.2707 21.0343C22.3061 21.2384 22.2403 21.4469 22.0941 21.5936L20.5651 23.1244C20.4154 23.2743 20.2006 23.3404 19.9928 23.3C19.7851 23.2596 19.6115 23.1176 19.5287 22.9226L16.9472 16.8454L15.2789 18.5294L15.7728 21.3295C15.809 21.5345 15.7432 21.7441 15.5961 21.8913L14.3433 23.1456C14.2005 23.2886 13.9982 23.3562 13.7984 23.3262C13.5988 23.2961 13.4253 23.1721 13.3306 22.9936L11.4048 19.3602L7.75459 17.4122C7.57653 17.3171 7.4546 17.1424 7.4249 16.9426C7.39531 16.7428 7.46145 16.541 7.60405 16.3982L8.85686 15.1439L8.97878 15.048C9.11009 14.969 9.26756 14.9389 9.42168 14.9671L12.2358 15.4803L13.9166 13.8112L7.8479 11.2291C7.65309 11.1462 7.51254 10.9713 7.47218 10.7632C7.43184 10.5552 7.49666 10.3401 7.64635 10.1903L9.17535 8.66068L9.29603 8.56602C9.42621 8.48713 9.58196 8.45583 9.7352 8.48256L17.8156 9.89257L20.4071 7.29926L20.5676 7.15353C20.9536 6.83286 21.4153 6.66652 21.9299 6.6665C22.5175 6.6665 23.0369 6.88309 23.4526 7.29926C23.8684 7.71549 24.0846 8.2355 24.0846 8.82385Z" fill="#F78137"/>
</svg>
