<svg width="630" height="630" viewBox="0 0 630 630" fill="none" xmlns="http://www.w3.org/2000/svg">
<path opacity="0.2" d="M581.999 324.564C578.883 321.892 576.001 320.04 573.212 318.247C568.095 314.957 563.674 312.116 559.211 305.2C553.095 295.727 548.503 284.295 544.063 273.241C542.794 270.083 541.542 266.968 540.278 263.957C524.92 227.378 526.361 191.702 544.95 148.279C546.309 145.105 548.823 140.334 552.008 134.294C564.587 110.43 585.642 70.49 574.784 53.2498C571.096 47.3923 563.97 44.6291 553.644 45.0399C507.306 46.8741 455.649 66.0816 414.143 81.5147C364.966 99.8004 313.259 121.063 268.269 152.561C242.54 170.573 212.594 195.643 209.368 229.914C207.173 253.208 218.33 273.594 229.118 293.31C229.945 294.821 230.769 296.327 231.584 297.83L232.728 299.932C242.964 318.723 251.804 334.951 231.367 349.425C210.437 364.249 181.47 370.308 155.913 375.655C150.054 376.88 144.521 378.038 139.109 379.282C133.517 380.569 127.019 381.756 120.139 383.013C94.7275 387.655 63.1029 393.433 47.1027 409.708C42.5129 414.376 40.682 419.262 40.6646 424.176C40.5591 424.145 40.4544 424.112 40.3489 424.081L40 425.289C40.2337 425.357 40.4656 425.43 40.6993 425.499C41.4023 436.888 51.4629 448.332 59.5121 457.478L60.4854 458.586C69.6799 469.056 79.7455 478.745 90.5819 487.654L90.4715 488.101C90.798 488.182 91.1225 488.272 91.4491 488.354C109.372 502.963 129.405 515.429 151.268 525.594C151.107 525.588 150.947 525.579 150.787 525.574L150.75 526.832C151.944 526.867 153.137 526.916 154.328 526.972C170.189 534.138 186.979 540.113 204.585 544.856L204.778 545.545C205.178 545.433 205.58 545.34 205.98 545.234C225.645 550.446 246.315 554.119 267.828 556.197C268.125 556.307 268.422 556.417 268.718 556.528C270.268 557.103 271.822 557.68 273.377 558.257C304.431 571.388 336.332 582.909 369.142 584.998C369.148 584.998 369.153 584.999 369.159 584.999L369.199 584.371L369.227 585C369.232 584.999 369.236 584.999 369.241 584.999L369.278 584.996C372.632 584.81 375.913 584.379 379.13 583.736C379.951 583.62 380.652 583.476 381.147 583.304C407.429 577.258 429.158 556.696 447.328 533.373C458.953 527.841 469.694 521.168 479.619 513.669C479.812 513.688 480.002 513.696 480.196 513.717L480.254 513.188C523.414 480.311 551.12 431.978 569.306 395.35C570.681 392.577 572.34 389.496 574.094 386.234C584.73 366.467 599.294 339.394 581.999 324.564ZM587.635 351.789C583.628 353.527 579.762 355.549 576.017 357.805C578.079 346.386 576.897 335.455 568.746 327.325C568.359 326.94 567.96 326.566 567.549 326.204C571.451 325.161 575.517 324.523 579.758 324.346C580.228 324.722 580.701 325.108 581.182 325.52C588.977 332.204 589.913 341.645 587.635 351.789ZM474.544 512.194C473.558 512.205 472.582 512.246 471.616 512.314C490.793 497.654 508.126 478.473 523.517 454.897C525.722 453.39 527.968 451.926 530.259 450.506C513.392 476.316 494.899 496.794 474.544 512.194ZM427.429 551.907C427.171 552.146 426.912 552.392 426.654 552.637C426.206 553.064 425.749 553.494 425.301 553.884C425.991 553.211 426.679 552.532 427.361 551.849C427.384 551.868 427.407 551.887 427.429 551.907ZM60.6855 417.094C71.305 401.33 101.414 394.153 123.399 388.914C127.868 387.848 132.09 386.843 135.58 385.887C140.815 384.454 147.6 382.973 155.426 381.283C155.664 382.398 155.923 383.511 156.213 384.622C149.569 386.776 142.86 388.986 136.267 391.28C133.599 392.208 130.395 393.218 127.001 394.287C108.97 399.966 81.7201 408.548 74.3744 424.381C72.6743 428.044 72.1708 431.8 72.501 435.551C67.5187 433.459 62.4986 431.485 57.4361 429.654C57.0861 425.379 57.9637 421.134 60.6855 417.094ZM262.561 312.488C262.459 311.957 262.342 311.43 262.234 310.899C269.613 313.738 276.189 316.557 278.565 318.399C278.293 319.475 277.98 320.528 277.608 321.549C272.594 335.269 256.744 345.145 241.925 352.422C256.765 342.61 265.858 329.751 262.561 312.488ZM524.589 277.385C529.811 289.268 536.216 302.792 546.167 312.889C549.44 316.21 553.504 318.592 557.435 320.896C560.073 322.442 562.604 323.936 564.886 325.662C560.994 326.878 557.27 328.491 553.701 330.442C549.084 325.382 544.26 320.909 539.573 316.566C530.055 307.745 521.066 299.413 514.055 286.844C513.426 285.716 512.825 284.585 512.237 283.451C516.077 280.76 520.04 278.164 523.864 275.676C524.105 276.246 524.339 276.816 524.589 277.385ZM562.046 367.741C558.283 370.837 554.65 374.164 551.143 377.696C552.721 364.855 551.109 352.251 543.588 341.346C543.21 340.798 542.815 340.263 542.427 339.723C545.922 336.807 549.59 334.22 553.442 332.037C553.919 332.568 554.396 333.098 554.867 333.642C563.071 343.117 564.195 355.266 562.046 367.741ZM546.555 410.295C539.192 426.241 531.196 440.81 522.597 454.007C519.567 456.084 516.62 458.248 513.732 460.474C522.598 448.376 530.444 435.119 537.177 420.668C543.019 408.128 548.755 393.867 550.853 379.793C554.339 376.211 557.945 372.826 561.682 369.677C558.943 383.495 552.445 397.562 547.289 408.71L546.555 410.295ZM444.922 533.023C444.821 533.104 444.715 533.182 444.614 533.263C444.575 533.281 444.537 533.3 444.499 533.317C445.165 532.558 445.829 531.8 446.489 531.043C446.718 530.93 446.948 530.82 447.177 530.706C446.552 531.527 445.809 532.304 444.922 533.023ZM75.513 424.91C82.6274 409.581 109.558 401.099 127.378 395.487C130.782 394.415 133.995 393.403 136.679 392.469C143.244 390.184 149.926 387.983 156.544 385.837C157.142 387.989 157.835 390.133 158.613 392.268C153.124 394.447 147.774 396.645 142.554 398.943C140.682 399.767 138.476 400.681 136.048 401.687C120.034 408.318 95.8363 418.339 90.899 433.301C89.797 436.64 89.5619 440.04 89.9466 443.42C84.6156 440.857 79.2433 438.412 73.8254 436.11C73.3867 432.331 73.8195 428.559 75.513 424.91ZM228.556 359.96C238.174 355.694 250.526 350.213 260.771 342.96C236.948 362.196 206.174 373.984 176.203 385.453C170.582 387.604 165.121 389.698 159.782 391.806C159.015 389.695 158.329 387.575 157.74 385.448C160.34 384.606 162.93 383.772 165.495 382.946C185.744 376.431 206.684 369.694 226.458 360.892L228.556 359.96ZM280.445 290.435C279.836 282.403 279.206 274.097 280.298 266.973C283.754 244.43 295.037 222.761 313.834 202.569C315.611 200.66 317.462 198.772 319.345 196.895C321.727 203.83 323.035 210.763 323.276 217.721C320.857 220.687 318.567 223.664 316.456 226.638C305.823 241.621 301.775 259.209 297.858 276.219C294.098 292.547 290.517 308.076 281.617 321.245C281.413 320.618 281.087 319.842 280.584 318.784C280.468 318.54 280.249 318.274 279.954 317.993C281.894 309.616 281.163 299.889 280.445 290.435ZM504.995 185.53C500.288 189.317 495.517 193.021 490.781 196.693C487.265 199.42 483.701 202.187 480.168 204.985C480.178 204.586 480.186 204.191 480.195 203.791C480.608 186.244 481.034 168.1 470.859 157.799C465.554 152.428 457.898 149.754 447.591 149.595C453.345 145.098 459.108 140.648 464.768 136.282C473.699 129.395 482.823 122.337 491.843 115.148C492.55 115.114 493.245 115.093 493.921 115.093C501.684 115.093 507.384 117.369 510.886 121.874C520.769 134.594 512.052 162.729 506.283 181.346C505.831 182.807 505.401 184.198 504.995 185.53ZM441.735 534.553C440.784 534.971 439.82 535.378 438.855 535.784C438.826 535.707 438.787 535.63 438.756 535.554C440.296 534.604 441.807 533.621 443.279 532.594C443.38 532.546 443.483 532.502 443.584 532.455C442.971 533.154 442.354 533.853 441.735 534.553ZM413.634 561.464C413.621 561.461 413.604 561.457 413.591 561.453C414.582 561.081 415.56 560.696 416.511 560.288C415.933 560.791 415.352 561.287 414.769 561.779C414.442 561.678 414.075 561.577 413.634 561.464ZM413.321 562.683C413.416 562.707 413.511 562.732 413.606 562.756C412.249 563.878 410.875 564.966 409.488 566.026C407.042 567.088 404.283 567.974 401.294 568.712C402.577 567.26 403.815 565.747 404.997 564.16C407.24 563.573 409.426 562.92 411.538 562.195C412.195 562.389 412.805 562.551 413.321 562.683ZM307.178 567.811C310.042 568.094 313.282 568.334 316.655 568.537C316.779 568.587 316.903 568.637 317.027 568.688C314.855 569.413 313.694 569.877 313.074 570.213C311.104 569.437 309.139 568.634 307.178 567.811ZM277.577 557.365C278.416 557.451 279.263 557.529 280.115 557.601C280.112 557.674 280.105 557.748 280.105 557.819C279.237 557.677 278.395 557.525 277.577 557.365ZM92.0914 433.695C96.8483 419.281 121.688 408.995 136.528 402.849C138.966 401.839 141.181 400.922 143.06 400.094C148.251 397.808 153.577 395.62 159.041 393.451C160.159 396.4 161.441 399.33 162.851 402.236C158.12 404.699 153.412 407.198 148.812 409.777C147.392 410.573 145.797 411.434 144.08 412.361C131.106 419.366 111.496 429.952 108.35 444.14C107.734 446.918 107.745 449.8 108.195 452.7C102.61 449.712 96.9812 446.828 91.3068 444.075C90.8059 440.596 90.9666 437.103 92.0914 433.695ZM278.112 327.909C278.093 328.032 278.075 328.159 278.057 328.287C276.243 330.509 274.293 332.7 272.163 334.854C247.376 359.922 215.43 375.847 184.536 391.247C177.744 394.632 170.828 398.096 163.964 401.654C162.574 398.786 161.312 395.896 160.21 392.989C165.553 390.879 171.023 388.782 176.652 386.628C214.234 372.247 253.081 357.372 278.112 327.909ZM299.082 276.501C302.971 259.611 306.993 242.146 317.479 227.367C319.302 224.798 321.257 222.228 323.312 219.665C323.325 221.714 323.257 223.766 323.086 225.822C322.81 229.135 322.621 232.368 322.467 235.572C320.218 238.884 318.153 242.211 316.319 245.508C309.775 257.266 305.548 269.31 301.462 280.957C295.874 296.883 290.528 312.079 279.829 326.042C279.893 325.858 279.96 325.7 280.026 325.547C291.014 311.45 294.948 294.458 299.082 276.501ZM478.939 203.761C478.921 204.512 478.905 205.255 478.888 206.003C474.16 209.769 469.506 213.593 465.129 217.468C462.281 219.991 459.695 222.463 457.335 224.92C448.219 199.412 438.441 181.618 408.214 181.494C414.139 176.268 420.535 171.145 427.148 165.854C429.133 164.266 431.134 162.666 433.139 161.047C437.39 157.617 441.705 154.209 446.028 150.822C456.803 150.731 464.64 153.293 469.966 158.683C479.766 168.604 479.346 186.477 478.939 203.761ZM457.424 228.955C465.007 250.803 475.822 272.697 492.226 299.34C489.519 302.738 487.125 306.462 485.005 310.434C481.948 305.045 478.877 299.347 475.686 293.415C466.518 276.378 456.825 258.392 445.061 243.332C448.155 237.779 451.981 232.549 456.84 227.288C457.035 227.842 457.229 228.395 457.424 228.955ZM537.808 392.67C534.02 397.357 530.373 402.237 526.846 407.243C527.611 393.119 524.224 380.369 518.493 367.733C522.112 362.182 525.989 356.877 530.15 351.996C530.93 353.345 531.678 354.705 532.382 356.08C537.772 366.612 539.572 378.849 537.808 392.67ZM525.675 431.086C518.41 446.385 509.946 459.761 500.563 471.443C499.497 472.399 498.439 473.364 497.387 474.338C504.664 464.916 511.077 454.641 516.564 443.489C522.645 431.133 525.767 420.028 526.67 409.678C530.146 404.68 533.737 399.798 537.463 395.101C535.746 406.134 531.82 418.145 525.675 431.086ZM405.593 557.615C404.97 557.785 404.343 557.951 403.715 558.112C400.47 557.263 397.073 556.814 393.647 556.589C393.678 556.489 393.706 556.387 393.736 556.286C399.955 555.011 405.823 553.496 411.324 551.734C411.285 551.807 411.249 551.882 411.21 551.954C409.349 553.849 407.479 555.744 405.593 557.615ZM302.146 561.227C302.254 561.158 302.345 561.094 302.456 561.024C304.071 561.083 305.716 561.131 307.385 561.171C308.452 561.874 309.524 562.563 310.598 563.242C309.169 563.163 307.778 563.078 306.436 562.988C305.008 562.4 303.578 561.813 302.146 561.227ZM302.397 562.689C301.669 562.63 300.957 562.569 300.262 562.506C300.457 562.365 300.664 562.219 300.881 562.07C301.386 562.276 301.891 562.482 302.397 562.689ZM109.577 444.412C112.599 430.786 131.903 420.364 144.678 413.468C146.399 412.538 148.001 411.673 149.426 410.874C154.005 408.307 158.694 405.817 163.408 403.364C165.304 407.172 167.419 410.94 169.704 414.655C164.904 417.79 160.146 420.999 155.492 424.31C136.092 438.114 127.611 450.229 129.174 464.456C122.699 460.678 116.173 456.994 109.59 453.448C109.01 450.374 108.931 447.326 109.577 444.412ZM525.412 409.288C521.91 414.339 518.525 419.502 515.233 424.712C516.362 410.652 513.501 397.646 508.404 384.861C511.294 379.478 514.374 374.146 517.669 369.006C523.38 381.847 526.603 394.829 525.412 409.288ZM386.639 578.183C385.616 578.327 384.494 578.485 383.323 578.643C383.753 578.195 384.169 577.732 384.564 577.248C385.49 576.627 386.408 575.984 387.32 575.322C389.392 575.039 391.46 574.733 393.527 574.406C391.919 575.696 390.24 576.871 388.489 577.923C387.909 578.004 387.299 578.089 386.639 578.183ZM306.142 558.832C306.511 558.624 306.889 558.412 307.281 558.197C308.152 558.203 309.015 558.226 309.888 558.226H310.245C310.697 558.226 311.133 558.215 311.583 558.215C312.897 558.817 314.211 559.432 315.527 560.062C313.029 560.042 310.438 560.004 307.799 559.94C307.245 559.575 306.693 559.204 306.142 558.832ZM305.445 559.877C305.093 559.866 304.742 559.856 304.389 559.845C304.564 559.741 304.748 559.634 304.929 559.53C305.101 559.646 305.273 559.761 305.445 559.877ZM156.221 425.336C160.852 422.04 165.588 418.846 170.368 415.724C173.17 420.205 176.206 424.608 179.376 428.915C175.236 432.228 171.154 435.615 167.192 439.118C152.899 451.755 146.747 463.194 148.331 475.94C142.467 472.346 136.567 468.79 130.626 465.307C128.674 451.084 136.911 439.075 156.221 425.336ZM513.7 427.146C510.634 432.054 507.647 436.99 504.722 441.898C506.05 428.822 503.483 416.381 498.801 404.158C501.53 398.306 504.457 392.303 507.615 386.342C512.68 399.399 515.336 412.706 513.7 427.146ZM505.287 455.485C500.169 466.265 494.002 475.789 487.045 484.221C490.414 479.501 493.525 474.46 496.33 469.063C500.649 460.752 503.187 452.762 504.338 445.003C507.258 440.082 510.238 435.124 513.294 430.185C512.061 438.208 509.512 446.589 505.287 455.485ZM450.609 523.302C450.593 523.04 450.541 522.775 450.511 522.512C452.322 521.209 454.087 519.87 455.786 518.481C455.375 518.947 454.957 519.425 454.543 519.896C453.275 521.061 451.964 522.198 450.609 523.302ZM383.612 576.364C382.312 577.229 380.994 578.039 379.666 578.813C378.782 578.823 377.872 578.828 376.915 578.819C377.559 578.045 378.194 577.231 378.817 576.372C380.562 576.184 382.315 575.974 384.071 575.754C383.916 575.956 383.772 576.167 383.612 576.364ZM330.27 566.083C331.312 565.801 332.379 565.517 333.476 565.231C334.421 565.241 335.352 565.25 336.267 565.257C337.216 566.266 338.179 567.248 339.158 568.203C337.554 568.173 335.857 568.132 334.096 568.081C332.827 567.417 331.552 566.75 330.27 566.083ZM331.209 567.99C328.991 567.914 326.711 567.823 324.433 567.718C325.706 567.348 327.061 566.964 328.484 566.572C329.395 567.044 330.304 567.517 331.209 567.99ZM281.767 555.876C281.877 555.583 282.003 555.285 282.158 554.974C282.414 554.983 282.67 554.992 282.926 555C284.092 555.435 285.257 555.876 286.421 556.321C285.007 556.246 283.589 556.179 282.182 556.091C282.043 556.02 281.905 555.947 281.767 555.876ZM168.024 440.06C171.958 436.583 176.012 433.219 180.125 429.926C183.478 434.436 186.966 438.839 190.475 443.111C176.914 457.287 167.512 472.578 168.966 488.765C162.606 484.777 156.212 480.78 149.775 476.824C147.812 464.05 153.76 452.672 168.024 440.06ZM503.107 444.615C501.233 447.774 499.381 450.92 497.549 454.03C496.272 456.2 495.016 458.332 493.767 460.446C495.283 448.738 493.088 437.214 488.998 426.008C489.456 424.969 489.919 423.921 490.39 422.854C492.763 417.474 495.307 411.709 498.054 405.768C502.71 418.333 505.051 431.131 503.107 444.615ZM415.036 544.21C408.87 546.013 402.447 547.606 395.801 549.022C395.806 549.004 395.811 548.985 395.816 548.967C395.855 548.916 395.896 548.866 395.935 548.816C402.703 547.356 409.076 545.608 415.069 543.588C415.138 543.621 415.206 543.656 415.275 543.69C415.196 543.864 415.116 544.037 415.036 544.21ZM375.652 570.841C375.511 570.84 375.375 570.84 375.233 570.84C372.551 570.827 369.784 570.892 366.986 570.995C366.815 570.379 366.639 569.765 366.461 569.152C369.476 569.027 372.584 568.855 375.739 568.623C375.726 569.373 375.697 570.112 375.652 570.841ZM361.663 581.37C362.291 581.39 362.92 581.407 363.55 581.411C364.062 581.8 364.542 582.155 365 582.488C364.938 582.486 364.875 582.485 364.814 582.483C363.788 582.147 362.74 581.779 361.663 581.37ZM345.809 572.455C344.633 571.51 343.482 570.511 342.346 569.481C343.998 569.509 345.231 569.521 345.889 569.521H346.052C346.837 569.518 347.656 569.515 348.491 569.511C349.583 570.367 350.657 571.215 351.706 572.048C350.36 572.185 349.009 572.343 347.659 572.503C347.061 572.49 346.447 572.475 345.809 572.455ZM176.778 506.969C173.404 501.658 171.418 496.421 170.584 491.265C171.38 491.765 172.178 492.265 172.974 492.765C178.109 495.988 183.323 499.255 188.552 502.507C189.155 507.132 190.699 511.793 193.373 516.47C195.206 519.677 197.368 522.563 199.78 525.19C195.834 523.53 191.875 521.881 187.904 520.245C183.717 516.396 179.973 511.998 176.778 506.969ZM191.289 444.095C195.641 449.363 200.009 454.432 204.167 459.254C204.52 459.664 204.859 460.059 205.208 460.465C194.564 473.163 187.195 486.855 188.381 500.919C183.433 497.839 178.501 494.75 173.642 491.7C172.548 491.013 171.453 490.326 170.357 489.638C168.502 473.553 177.764 458.28 191.289 444.095ZM492.005 463.413C488.921 468.61 485.895 473.613 482.886 478.409C484.457 468.511 482.632 458.513 479.132 448.885C481.48 443.134 483.758 437.7 485.985 432.768C486.725 431.128 487.481 429.433 488.252 427.693C492.333 439.335 494.268 451.297 492.005 463.413ZM433.568 530.33C432.761 531.015 431.958 531.713 431.16 532.419C427.386 534.216 423.436 535.878 419.318 537.41C419.522 536.903 419.722 536.395 419.92 535.887C424.607 534.141 429.085 532.217 433.39 530.147C433.45 530.208 433.509 530.269 433.568 530.33ZM367.573 578.696C366.947 578.697 366.324 578.702 365.704 578.706C365.428 578.309 365.164 577.9 364.893 577.497C365.693 577.453 366.48 577.421 367.289 577.369C367.387 577.81 367.481 578.253 367.573 578.696ZM364.079 576.282C363.522 575.424 362.979 574.552 362.447 573.671C363.745 573.648 365.055 573.621 366.374 573.588C366.593 574.432 366.8 575.276 367 576.124C366.016 576.187 365.051 576.232 364.079 576.282ZM342.172 563.077C345.266 562.352 348.435 561.655 351.595 561.017C352.565 560.982 353.535 560.945 354.493 560.902C354.927 561.897 355.372 562.882 355.828 563.859C351.66 563.971 347.518 564.018 343.431 564.021C343.012 563.705 342.592 563.39 342.172 563.077ZM341.323 564.021C340.304 564.02 339.291 564.017 338.289 564.011C339.041 563.826 339.798 563.642 340.563 563.459C340.816 563.646 341.069 563.833 341.323 564.021ZM334.589 557.676C334.907 557.661 335.223 557.646 335.54 557.632C341.147 557.661 346.993 557.563 352.983 557.291C353.251 557.958 353.521 558.623 353.798 559.283C352.962 559.443 352.133 559.605 351.311 559.771C347.036 559.925 342.653 560.003 338.16 560.003C338.091 560.003 338.023 560.003 337.955 560.003C336.824 559.201 335.702 558.424 334.589 557.676ZM221.626 479.707C226.594 485.503 231.828 491.525 237.307 497.626C230.927 506.321 226.45 515.368 226.438 524.037C221.005 520.742 215.824 517.604 210.656 514.53C209.984 514.13 209.303 513.712 208.63 513.309C207.585 502.036 213.225 490.59 221.626 479.707ZM473.171 497.979C472.464 498.587 471.752 499.186 471.037 499.779C471.157 499.454 471.282 499.13 471.393 498.8C473.498 495.529 475.543 492.316 477.53 489.194C478.302 487.982 479.061 486.789 479.812 485.611C478.685 488.774 477.168 491.92 475.16 495.036C474.518 496.033 473.849 497.01 473.171 497.979ZM303.899 553.524C302.755 553.064 301.614 552.617 300.478 552.192C302.674 552.15 304.836 552.102 306.951 552.053C308.053 552.069 309.147 552.093 310.255 552.102C310.031 552.546 309.832 553.022 309.684 553.562C309.452 553.569 309.213 553.576 308.978 553.583C307.299 553.572 305.607 553.554 303.899 553.524ZM238.165 498.58C243.414 504.407 248.883 510.295 254.554 516.117C249.689 522.724 246.099 529.418 245.393 535.465C239.405 531.899 233.505 528.323 227.712 524.81C227.444 516.284 231.815 507.278 238.165 498.58ZM470.284 498.201C469.309 499.715 468.32 501.242 467.319 502.777C465.433 504.254 463.526 505.688 461.595 507.073C461.534 503.512 460.711 499.872 459.427 496.306C463.159 488.046 466.618 479.785 469.873 471.803C472.32 480.13 473.2 489.351 470.284 498.201ZM247.272 542.122C246.748 540.683 246.502 539.164 246.494 537.583C250.234 539.802 254.008 542.013 257.814 544.201C254.452 543.862 251.067 543.474 247.67 543.027C247.533 542.728 247.385 542.434 247.272 542.122ZM460.307 507.977C457.198 510.165 454.036 512.239 450.826 514.202C453.572 508.861 456.179 503.431 458.664 497.989C459.749 501.326 460.379 504.699 460.307 507.977ZM408.738 540.944C406.551 541.596 404.335 542.224 402.064 542.811C403.589 541.768 405.187 540.998 406.884 540.609C407.075 540.565 407.27 540.549 407.463 540.515C407.889 540.654 408.314 540.795 408.738 540.944ZM397.224 545.387C397.005 545.621 396.786 545.856 396.57 546.1C396.622 545.896 396.672 545.693 396.723 545.49C396.89 545.456 397.057 545.421 397.224 545.387ZM399.097 543.537C398.427 543.7 397.768 543.871 397.091 544.028C397.203 543.573 397.323 543.122 397.433 542.667C398.824 542.335 400.196 541.988 401.56 541.633C400.716 542.194 399.894 542.826 399.097 543.537ZM395.716 544.328C394.581 544.582 393.444 544.835 392.289 545.075C386.822 546.092 381.314 546.937 375.805 547.639C375.804 547.347 375.802 547.054 375.801 546.761C382.827 545.749 389.578 544.486 396.054 542.985C395.944 543.434 395.828 543.88 395.716 544.328ZM431.429 495.869C430.634 498.489 429.82 501.26 428.972 504.156C427.482 509.239 425.863 514.75 424.042 520.416C417.49 515.538 410.693 512.515 403.614 510.594C405.187 500.436 406.505 490.243 407.797 480.178C416.595 483.794 424.347 488.966 431.429 495.869ZM324.79 548.54C324.743 548.559 324.696 548.579 324.65 548.598C324.637 548.579 324.624 548.561 324.612 548.542C324.671 548.541 324.731 548.541 324.79 548.54ZM328.785 548.492C328.53 548.502 328.273 548.508 328.018 548.517C328.031 548.511 328.044 548.506 328.058 548.501C328.3 548.498 328.542 548.496 328.785 548.492ZM375.783 541.701C375.777 539.991 375.769 538.281 375.763 536.571C381.826 536.513 388.169 536.705 394.515 537.587C388.28 539.203 382.023 540.565 375.783 541.701ZM374.526 541.928C366.283 543.388 358.076 544.457 349.994 545.204C349.581 543.898 349.181 542.584 348.794 541.262C357.263 538.795 366.489 536.788 374.507 536.594C374.513 538.371 374.521 540.15 374.526 541.928ZM348.711 545.321C343.649 545.768 338.64 546.092 333.705 546.305C337.723 544.802 342.497 543.139 347.589 541.617C347.952 542.858 348.325 544.093 348.711 545.321ZM323.132 548.589C322.71 548.582 322.299 548.585 321.876 548.577C321.832 548.577 321.784 548.577 321.74 548.576C322.197 548.57 322.656 548.567 323.112 548.56L323.132 548.589ZM358.393 547.313L358.45 547.515C357.242 547.614 356.008 547.689 354.785 547.774C355.996 547.632 357.191 547.468 358.393 547.313ZM422.717 528.318C423.399 526.374 424.054 524.437 424.683 522.513C425.294 522.995 425.907 523.464 426.514 523.981L427.543 524.855C427.903 525.159 428.275 525.476 428.653 525.798C426.684 526.669 424.706 527.512 422.717 528.318ZM421.17 528.934C413.828 531.843 406.372 534.325 398.867 536.419C400.646 528.319 402.122 520.101 403.417 511.852C410.438 513.775 417.168 516.789 423.635 521.672C422.853 524.075 422.034 526.501 421.17 528.934ZM397.501 536.772C390.152 535.507 382.765 535.246 375.759 535.313C375.731 526.335 375.693 517.357 375.659 508.378C384.967 508.747 393.794 509.374 402.198 511.514C400.867 519.993 399.348 528.444 397.501 536.772ZM374.503 535.334C367.111 535.52 357.926 537.399 348.478 540.152C346.163 532.082 344.306 523.759 342.748 515.446C354.377 510.984 365.623 508.155 374.402 508.347C374.436 517.343 374.474 526.338 374.503 535.334ZM347.272 540.509C341.477 542.239 335.611 544.279 330.023 546.445C328.06 546.509 326.109 546.559 324.175 546.59C323.883 546.593 323.596 546.594 323.306 546.597C319.653 541.083 316.294 535.359 313.214 529.699C322.075 524.551 331.913 519.694 341.556 515.911C343.112 524.185 344.966 532.469 347.272 540.509ZM321.805 546.608C320.034 546.614 318.302 546.607 316.612 546.589L310.529 546.532C305.957 546.493 301.231 546.451 296.395 546.373C294.186 546.325 291.939 546.266 289.659 546.196C295.199 541.214 303.107 535.641 312.126 530.33C315.09 535.773 318.309 541.281 321.805 546.608ZM321.442 549.954C321.266 550.029 321.095 550.105 320.92 550.181C320.71 550.105 320.504 550.038 320.297 549.969C320.679 549.964 321.061 549.96 321.442 549.954ZM324.167 550.117C324.27 550.267 324.378 550.413 324.482 550.562C324.041 550.557 323.602 550.551 323.149 550.549C323.482 550.406 323.829 550.261 324.167 550.117ZM358.794 548.694C358.858 548.917 358.93 549.142 358.996 549.366C356.506 549.565 354.025 549.741 351.556 549.893C351.479 549.672 351.401 549.451 351.325 549.229C353.841 549.076 356.335 548.901 358.794 548.694ZM360.981 549.204L360.48 548.546C365.281 548.114 369.967 547.573 374.545 546.935C374.546 547.221 374.547 547.508 374.548 547.795C370.016 548.355 365.486 548.822 360.981 549.204ZM359.613 547.408L359.439 547.179C363.88 546.589 368.268 545.922 372.582 545.149C373.234 545.053 373.886 544.958 374.538 544.857C374.539 545.153 374.541 545.449 374.541 545.744C369.697 546.412 364.725 546.971 359.613 547.408ZM429.927 525.233C429.39 524.772 428.861 524.323 428.354 523.894L427.328 523.025C426.589 522.394 425.844 521.814 425.098 521.234C426.979 515.406 428.646 509.734 430.177 504.51C430.956 501.852 431.706 499.293 432.439 496.865C433.285 497.717 434.127 498.58 434.954 499.482C438.34 503.173 444.253 509.624 447.352 516.275C441.665 519.582 435.846 522.562 429.927 525.233ZM402.394 510.258C393.914 508.116 385.024 507.489 375.654 507.12C375.612 495.986 375.577 484.851 375.53 473.717C387.286 474.204 397.496 476.147 406.591 479.699C405.294 489.807 403.973 500.049 402.394 510.258ZM374.398 507.089C365.41 506.889 354.12 509.661 342.491 514.075C340.592 503.731 339.138 493.436 337.819 483.7C350.983 477.553 363.637 473.658 373.552 473.658C373.795 473.658 374.033 473.666 374.274 473.671C374.32 484.81 374.355 495.95 374.398 507.089ZM341.298 514.538C331.509 518.34 321.545 523.255 312.565 528.499C308.22 520.429 304.44 512.555 301.183 505.692C312.251 497.526 324.619 489.97 336.627 484.253C337.944 493.967 339.399 504.227 341.298 514.538ZM311.478 529.132C302.2 534.626 294.072 540.427 288.392 545.641C283.016 541.283 277.756 536.702 272.625 531.978C273.62 530.731 274.694 529.454 275.865 528.142C282.237 521.004 290.692 513.515 300.152 506.451C303.399 513.291 307.159 521.114 311.478 529.132ZM286.973 546.106C279.924 545.856 272.583 545.471 265.082 544.861C266.137 541.419 268.41 537.417 271.844 532.968C276.771 537.502 281.818 541.904 286.973 546.106ZM267.023 547.965C266.896 547.894 266.768 547.824 266.641 547.753C266.938 547.782 267.226 547.816 267.523 547.844C267.369 547.883 267.216 547.927 267.062 547.968C267.049 547.967 267.036 547.966 267.023 547.965ZM296.497 548.417C298.663 548.43 300.804 548.437 302.91 548.441C305.186 548.494 307.45 548.537 309.696 548.569C308.267 548.583 306.813 548.598 305.337 548.615C304.791 548.621 304.228 548.627 303.673 548.632C301.258 548.578 298.872 548.501 296.497 548.417ZM317.927 550.575C316.509 550.593 315.051 550.617 313.56 550.648C314.739 550.201 316.216 550.203 317.927 550.575ZM319.57 552.123C320.514 552.12 321.466 552.114 322.42 552.106C323.146 552.426 323.892 552.78 324.659 553.169C322.281 553.191 319.705 553.253 316.924 553.335C317.78 552.935 318.664 552.531 319.57 552.123ZM325.244 552.078L325.55 552.075C325.609 552.157 325.665 552.24 325.724 552.322C325.563 552.239 325.404 552.159 325.244 552.078ZM331.787 550.623C329.89 550.623 327.96 550.603 326.028 550.576C325.865 550.345 325.701 550.115 325.54 549.882C325.611 549.88 325.68 549.876 325.75 549.874C334.102 549.944 342.195 549.754 350.02 549.306C350.096 549.529 350.175 549.749 350.252 549.971C345.626 550.243 341.044 550.445 336.539 550.583C334.962 550.602 333.387 550.623 331.787 550.623ZM375.797 545.568C375.797 545.265 375.795 544.961 375.793 544.658C382.767 543.552 389.743 542.175 396.65 540.478C396.55 540.905 396.454 541.333 396.352 541.758C389.8 543.285 382.94 544.549 375.797 545.568ZM448.762 515.452C448.653 515.517 448.543 515.579 448.435 515.643C445.232 508.832 439.298 502.358 435.879 498.631C434.885 497.548 433.878 496.502 432.858 495.49C432.972 495.12 433.086 494.742 433.198 494.379C435.818 485.913 438.315 477.363 440.736 468.79C441.699 469.957 442.649 471.142 443.577 472.358C447.618 477.658 454.513 486.707 458.063 496.267C455.141 502.715 452.052 509.155 448.762 515.452ZM431.998 494.008C431.945 494.177 431.892 494.355 431.84 494.526C424.677 487.645 416.845 482.486 407.964 478.885C408.656 473.496 409.346 468.132 410.071 462.822C410.904 456.724 411.707 450.594 412.487 444.454C422.341 450.195 431.637 458.029 439.761 467.619C437.272 476.46 434.7 485.28 431.998 494.008ZM408.827 462.652C408.115 467.86 407.437 473.121 406.758 478.405C397.599 474.872 387.328 472.942 375.526 472.458C375.514 469.56 375.505 466.663 375.493 463.765L375.418 445.678C375.401 441.6 375.383 437.522 375.366 433.444C387.423 433.63 399.729 437.253 411.306 443.77C410.506 450.082 409.682 456.384 408.827 462.652ZM374.162 445.683L374.236 463.771C374.248 466.656 374.257 469.54 374.269 472.424C364.18 472.235 351.188 476.135 337.645 482.423C337.505 481.386 337.366 480.353 337.228 479.33C336.632 474.895 336.051 470.584 335.457 466.441C334.537 460.029 333.715 453.609 332.956 447.186C346.229 439.172 360.305 433.531 374.109 433.438C374.126 437.52 374.145 441.601 374.162 445.683ZM334.213 466.62C334.807 470.759 335.387 475.068 335.984 479.498C336.139 480.651 336.296 481.815 336.455 482.986C324.324 488.729 311.828 496.324 300.64 504.549C300.553 504.366 300.462 504.174 300.375 503.992L300.243 503.712C296.618 496.069 293.305 488.49 290.295 480.98C301.782 470.266 316.198 457.516 331.778 447.911C332.519 454.152 333.319 460.39 334.213 466.62ZM299.107 504.252L299.24 504.531C299.36 504.784 299.486 505.049 299.607 505.305C289.986 512.464 281.391 520.064 274.928 527.304C273.764 528.608 272.693 529.88 271.697 531.126C266.383 526.2 261.211 521.125 256.191 515.992C263.816 505.904 274.323 496.011 281.582 489.181L283.63 487.25C285.421 485.557 287.322 483.761 289.306 481.904C292.277 489.288 295.544 496.74 299.107 504.252ZM270.919 532.119C267.29 536.817 264.902 541.072 263.819 544.757C262.832 544.673 261.844 544.586 260.852 544.494C256.034 541.748 251.27 538.957 246.558 536.158C247.041 530.269 250.571 523.621 255.429 517.012C260.444 522.135 265.61 527.201 270.919 532.119ZM272.613 548.279L272.762 548.291C272.7 548.288 272.639 548.285 272.577 548.283C272.589 548.282 272.601 548.279 272.613 548.279ZM289.224 549.956C289.691 550.073 290.16 550.199 290.631 550.325C288.983 550.251 287.349 550.164 285.717 550.074C285.76 550.026 285.81 549.975 285.855 549.927C286.985 549.941 288.109 549.95 289.224 549.956ZM295.692 550.52C295.101 550.327 294.511 550.14 293.923 549.961C297.282 549.953 300.545 549.923 303.682 549.89C306.3 549.949 308.93 549.999 311.594 550.023C311.743 550.024 311.889 550.024 312.037 550.025C311.746 550.221 311.474 550.442 311.228 550.697C310.122 550.722 309.006 550.747 307.874 550.774C307.592 550.781 307.304 550.788 307.02 550.794C303.205 550.742 299.429 550.651 295.692 550.52ZM311.706 552.112C313.311 552.121 314.924 552.129 316.566 552.129C315.619 552.565 314.695 553 313.795 553.432C313.309 553.447 312.828 553.462 312.331 553.478C311.902 553.492 311.459 553.506 311.023 553.52C311.202 552.982 311.43 552.513 311.706 552.112ZM328.652 553.178C328.407 553.174 328.148 553.174 327.897 553.171C327.622 552.799 327.343 552.432 327.071 552.057C330.198 552.011 333.375 551.939 336.586 551.84C341.416 551.783 346.14 551.641 350.753 551.407C350.87 551.738 350.985 552.069 351.105 552.397C345.602 552.782 340.224 553.052 335.02 553.238C332.919 553.234 330.798 553.215 328.652 553.178ZM352.411 552.3C352.295 551.982 352.177 551.667 352.062 551.348C354.557 551.212 357.013 551.046 359.443 550.858C359.528 551.141 359.611 551.423 359.698 551.705C357.248 551.928 354.819 552.124 352.411 552.3ZM360.786 551.023L361.196 551.562C361.118 551.57 361.039 551.577 360.96 551.585C360.904 551.397 360.843 551.211 360.786 551.023ZM362.071 550.636C366.337 550.271 370.503 549.824 374.567 549.296C374.571 549.541 374.576 549.786 374.586 550.045C370.583 550.575 366.604 551.033 362.669 551.422L362.071 550.636ZM375.819 549.136C381.404 548.384 386.789 547.472 391.986 546.41C393.11 546.203 394.233 545.992 395.353 545.771C395.28 546.056 395.211 546.343 395.138 546.628C388.693 547.933 382.237 549.009 375.84 549.881C375.83 549.625 375.823 549.376 375.819 549.136ZM399.453 544.923C403.504 544.051 407.519 543.075 411.488 541.991C411.859 542.141 412.227 542.298 412.596 542.457C407.899 543.763 403.161 544.923 398.408 545.947C398.752 545.589 399.102 545.253 399.453 544.923ZM397.722 541.431C397.825 541 397.924 540.567 398.024 540.134C399.432 539.78 400.838 539.416 402.239 539.034C403.026 539.224 403.812 539.429 404.595 539.647C402.34 540.272 400.054 540.871 397.722 541.431ZM458.796 494.645C455.071 485.359 448.505 476.749 444.576 471.596C443.461 470.134 442.318 468.709 441.153 467.318C444.06 456.979 446.85 446.613 449.565 436.311C455.682 443.665 460.922 451.371 464.77 459.041C466.43 462.347 468.014 466.017 469.286 469.911C466.018 477.951 462.546 486.293 458.796 494.645ZM440.172 466.17C431.958 456.614 422.585 448.81 412.656 443.1C414.204 430.853 415.66 418.573 417.069 406.418C428.351 414.322 439.391 424.325 448.575 435.145C445.861 445.449 443.074 455.824 440.172 466.17ZM411.473 442.431C399.836 435.963 387.478 432.368 375.36 432.185C375.299 417.794 375.237 403.403 375.174 389.012C386.753 389.286 401.461 395.703 415.896 405.617C414.483 417.814 413.024 430.137 411.473 442.431ZM373.917 388.996C373.981 403.391 374.043 417.786 374.104 432.18C360.211 432.273 346.092 437.856 332.789 445.818C331.294 432.964 330.109 420.096 329.142 407.241C343.168 396.635 358.202 389.12 373.917 388.996ZM331.611 446.541C315.906 456.14 301.394 468.924 289.803 479.72C286.4 471.138 283.4 462.65 280.807 454.265C283.285 451.656 285.833 448.929 288.453 446.124C300.299 433.444 313.586 419.226 327.95 408.143C328.922 420.938 330.114 433.745 331.611 446.541ZM288.813 480.642C286.693 482.624 284.67 484.536 282.766 486.337L280.721 488.264C273.461 495.095 263.002 504.945 255.319 515.101C249.646 509.272 244.176 503.376 238.924 497.544C246.815 487.019 257.446 476.999 266.034 468.908C268.79 466.311 271.394 463.858 273.555 461.711C275.589 459.69 277.682 457.531 279.815 455.297C282.418 463.649 285.412 472.099 288.813 480.642ZM245.284 536.864C245.202 538.846 245.438 540.755 246.092 542.553C246.126 542.647 246.171 542.736 246.208 542.83C243.582 542.472 240.952 542.078 238.321 541.646C236.975 541.061 235.636 540.483 234.299 539.907C232.466 538.035 230.931 535.934 229.795 533.546C228.68 531.203 228.058 528.794 227.815 526.343C233.541 529.815 239.368 533.345 245.284 536.864ZM233.01 540.721C230.896 540.33 228.784 539.91 226.677 539.464C224.799 538.328 223.019 537.091 221.361 535.731C222.86 536.373 224.363 537.015 225.859 537.656L231.699 540.156C232.133 540.343 232.574 540.534 233.01 540.721ZM284.198 549.902C284.172 549.932 284.148 549.962 284.122 549.992C283.436 549.952 282.753 549.91 282.071 549.867C282.784 549.882 283.49 549.892 284.198 549.902ZM296.919 552.252C298.024 552.631 299.136 553.031 300.251 553.449C299.647 553.435 299.039 553.417 298.431 553.4C297.912 553.019 297.392 552.639 296.876 552.253C296.89 552.253 296.904 552.252 296.919 552.252ZM310.697 554.851C310.765 554.851 310.834 554.851 310.902 554.852C310.826 554.89 310.75 554.927 310.676 554.965C310.682 554.926 310.691 554.89 310.697 554.851ZM332.578 556.349C331.662 555.758 330.758 555.191 329.866 554.653C331.578 554.609 333.309 554.557 335.064 554.495C340.794 554.503 346.353 554.382 351.759 554.149C351.902 554.53 352.041 554.916 352.187 555.296C346.77 555.75 341.217 556.106 335.534 556.373C334.543 556.368 333.553 556.363 332.578 556.349ZM353.493 555.18C353.354 554.821 353.218 554.459 353.081 554.098C355.52 553.983 357.915 553.835 360.287 553.671C360.376 553.954 360.466 554.23 360.555 554.512C358.229 554.756 355.869 554.974 353.493 555.18ZM413.441 541.449C413.743 541.363 414.047 541.279 414.348 541.192C414.72 541.324 415.095 541.476 415.473 541.638C415.152 541.732 414.832 541.832 414.511 541.925C414.156 541.76 413.799 541.605 413.441 541.449ZM413.267 539.53C412.324 539.286 411.397 539.152 410.48 539.094C411.424 538.8 412.376 538.514 413.306 538.209C415.015 537.649 416.684 537.054 418.346 536.453C418.14 536.972 417.927 537.486 417.717 538.002C416.256 538.528 414.77 539.037 413.267 539.53ZM406.873 539.004C406.137 538.775 405.4 538.557 404.661 538.355C409.663 536.93 414.612 535.326 419.481 533.525C419.283 534.046 419.083 534.565 418.881 535.085C415.013 536.505 411.003 537.806 406.873 539.004ZM420.069 531.959C420.069 531.959 420.069 531.96 420.069 531.959ZM481.116 481.226C480.996 481.414 480.875 481.613 480.755 481.801C479.363 483.971 477.935 486.216 476.469 488.519C475.173 490.555 473.851 492.632 472.505 494.738C474.109 487.224 473.481 478.9 470.622 469.963C471.98 466.617 473.304 463.324 474.597 460.106C475.918 456.821 477.212 453.605 478.487 450.469C482.041 460.575 483.575 470.962 481.116 481.226ZM473.432 459.636C472.313 462.419 471.17 465.261 470.003 468.142C468.897 464.988 467.544 461.768 465.893 458.476C461.889 450.496 456.381 442.48 449.951 434.851C451.641 428.429 453.306 422.034 454.956 415.694C455.471 413.713 455.995 411.704 456.515 409.708C457.554 411.341 458.585 412.975 459.602 414.609C466.117 425.075 473.33 436.672 477.848 448.705C476.404 452.244 474.934 455.901 473.432 459.636ZM453.74 415.376C452.162 421.437 450.571 427.548 448.958 433.684C439.67 422.882 428.561 412.921 417.226 405.055C417.838 399.773 418.442 394.511 419.041 389.293C419.965 381.23 420.899 373.098 421.856 364.929C434.282 376.922 445.461 392.443 455.594 408.26C454.975 410.636 454.352 413.021 453.74 415.376ZM417.792 389.149C417.218 394.152 416.639 399.196 416.054 404.258C401.555 394.393 386.808 388.022 375.168 387.754C375.102 372.801 375.036 357.681 374.972 342.484C375.016 342.484 375.06 342.483 375.104 342.483C391.973 342.483 407.088 351.017 420.717 363.855C419.722 372.338 418.752 380.781 417.792 389.149ZM373.912 387.739C358.113 387.862 343.058 395.262 329.03 405.753C328.07 392.764 327.333 379.791 326.748 366.862C341.602 353.14 357.466 343.019 373.715 342.521C373.779 357.701 373.846 372.803 373.912 387.739ZM327.837 406.646C313.145 417.859 299.598 432.353 287.535 445.265C285.083 447.89 282.7 450.437 280.374 452.892C277.721 444.177 275.527 435.582 273.76 427.107C278.629 421.549 283.742 415.314 289.047 408.84C300.111 395.337 312.423 380.322 325.54 367.991C326.129 380.842 326.873 393.735 327.837 406.646ZM279.384 453.93C277.088 456.34 274.846 458.655 272.669 460.818C270.52 462.952 267.923 465.401 265.173 467.992C256.596 476.073 246.014 486.052 238.074 496.598C232.602 490.501 227.376 484.484 222.416 478.696C231.295 467.452 242.978 456.838 253.065 447.683C257.864 443.325 262.399 439.209 265.888 435.659C268.101 433.408 270.386 430.917 272.723 428.278C274.512 436.712 276.725 445.264 279.384 453.93ZM210.013 515.611C215.396 518.812 220.788 522.081 226.47 525.528C226.642 528.438 227.335 531.301 228.661 534.086C229.457 535.761 230.43 537.304 231.558 538.729L226.354 536.5C223.754 535.386 221.148 534.27 218.537 533.154C216.058 530.688 213.899 527.909 212.159 524.739C210.373 521.484 209.294 518.191 208.8 514.88C209.204 515.121 209.61 515.371 210.013 515.611ZM211.057 525.345C212.373 527.744 213.92 529.923 215.649 531.921C211.366 530.091 207.069 528.263 202.755 526.442C199.554 523.349 196.75 519.845 194.463 515.845C192.084 511.684 190.638 507.527 189.975 503.394C195.798 507.009 201.632 510.579 207.425 514.052C207.862 517.837 209.007 521.609 211.057 525.345ZM217.799 534.206C219.463 535.843 221.268 537.336 223.2 538.697C222.276 538.485 221.352 538.269 220.429 538.046C214.995 535.62 209.995 532.655 205.625 529.024C209.695 530.748 213.755 532.477 217.799 534.206ZM257.09 546.74C257.848 546.932 258.607 547.123 259.366 547.326C256.097 546.998 252.844 546.584 249.62 546.091C249.556 546.015 249.5 545.935 249.437 545.859C251.981 546.19 254.533 546.489 257.09 546.74ZM265.583 549.739C266.413 549.823 267.241 549.908 268.075 549.988C268.324 550.125 268.572 550.265 268.821 550.402C267.432 550.301 266.049 550.185 264.671 550.055C264.971 549.94 265.278 549.842 265.583 549.739ZM274.104 550.516C275.882 550.661 277.664 550.802 279.46 550.927C277.911 550.884 276.362 550.827 274.812 550.756C274.576 550.675 274.341 550.596 274.104 550.516ZM289.137 552.319C291.053 552.319 292.948 552.303 294.831 552.282C295.295 552.633 295.758 552.987 296.224 553.335C292.063 553.198 287.826 553 283.531 552.742C283.639 552.592 283.767 552.434 283.883 552.282C285.642 552.306 287.395 552.319 289.137 552.319ZM308.973 554.841C309.122 554.842 309.271 554.844 309.419 554.845C309.381 555.101 309.36 555.378 309.335 555.651C309.275 555.682 309.216 555.713 309.156 555.744C308.503 555.456 307.851 555.173 307.199 554.894C307.8 554.877 308.381 554.859 308.973 554.841ZM310.655 556.408C311.637 555.902 312.666 555.385 313.746 554.857C318.111 554.855 322.702 554.815 327.476 554.711C327.889 555.264 328.3 555.814 328.719 556.358C325.735 556.399 322.31 556.505 318.523 556.624C316.298 556.693 313.97 556.766 311.58 556.83C311.271 556.689 310.963 556.546 310.655 556.408ZM344.604 561.203C343.284 561.5 342.028 561.793 340.824 562.079C340.447 561.802 340.071 561.525 339.695 561.252C341.345 561.246 342.982 561.23 344.604 561.203ZM356.399 565.089C356.893 566.119 357.401 567.139 357.921 568.147C354.715 568.21 351.694 568.236 348.925 568.25C347.657 567.257 346.371 566.261 345.079 565.272C348.817 565.254 352.599 565.198 356.399 565.089ZM358.585 569.392C358.94 570.058 359.295 570.724 359.661 571.379C357.625 571.519 355.578 571.685 353.515 571.88C352.53 571.096 351.528 570.3 350.513 569.499C353.034 569.481 355.741 569.452 358.585 569.392ZM367.664 573.554C370.231 573.481 372.824 573.383 375.414 573.25C375.314 574.018 375.182 574.759 375.025 575.477C372.752 575.691 370.498 575.877 368.268 576.031C368.075 575.203 367.875 574.377 367.664 573.554ZM367.338 572.305C367.332 572.286 367.328 572.267 367.323 572.248C369.105 572.184 370.862 572.144 372.596 572.125C370.837 572.199 369.082 572.258 367.338 572.305ZM366.048 572.34C365.333 572.357 364.621 572.373 363.912 572.387C364.625 572.351 365.329 572.324 366.036 572.294C366.04 572.309 366.044 572.325 366.048 572.34ZM361.06 571.29C360.699 570.653 360.342 570.009 359.992 569.361C361.677 569.32 363.405 569.268 365.168 569.202C365.347 569.815 365.522 570.428 365.693 571.044C364.161 571.108 362.617 571.192 361.06 571.29ZM359.331 568.119C358.802 567.107 358.286 566.084 357.784 565.049C359.798 564.984 361.817 564.903 363.838 564.803C364.165 565.851 364.487 566.902 364.802 567.957C362.936 568.025 361.107 568.079 359.331 568.119ZM357.194 563.822C356.729 562.836 356.274 561.84 355.831 560.835C358.068 560.724 360.274 560.592 362.449 560.437C362.785 561.48 363.119 562.527 363.451 563.578C361.363 563.678 359.275 563.759 357.194 563.822ZM361.461 559.241C361.654 559.211 361.845 559.184 362.037 559.155L362.051 559.2C361.855 559.213 361.659 559.228 361.461 559.241ZM355.064 559.044C354.809 558.44 354.557 557.835 354.31 557.225C356.618 557.111 358.944 556.973 361.286 556.803C361.406 557.18 361.526 557.558 361.647 557.932C359.456 558.263 357.248 558.639 355.064 559.044ZM361.828 554.372C361.744 554.107 361.663 553.84 361.58 553.575C361.943 553.548 362.306 553.522 362.667 553.494L363.218 554.218C362.755 554.269 362.293 554.322 361.828 554.372ZM416.279 540.617C416.411 540.577 416.544 540.538 416.675 540.499C416.641 540.58 416.606 540.662 416.571 540.744C416.473 540.698 416.377 540.661 416.279 540.617ZM428.046 535.235C427.994 535.283 427.943 535.332 427.892 535.38C427.466 535.54 427.037 535.693 426.609 535.85C427.089 535.645 427.572 535.444 428.046 535.235ZM420.461 534.487C420.658 533.97 420.857 533.454 421.05 532.936C424.652 531.569 428.21 530.097 431.708 528.503C431.997 528.772 432.282 529.045 432.564 529.32C428.685 531.173 424.655 532.899 420.461 534.487ZM421.905 531.252C424.863 530.072 427.771 528.824 430.647 527.534C430.66 527.546 430.673 527.558 430.685 527.569C427.795 528.874 424.866 530.101 421.905 531.252ZM431.89 526.961C433.186 526.37 434.486 525.785 435.766 525.172C434.497 525.797 433.224 526.412 431.938 527.005C431.922 526.99 431.906 526.976 431.89 526.961ZM448.624 519.557C448.628 519.57 448.633 519.583 448.637 519.596C448.323 519.774 448.008 519.949 447.695 520.131C447.699 520.125 447.703 520.118 447.706 520.11C448.013 519.927 448.319 519.743 448.624 519.557ZM449.743 518.981C449.732 518.948 449.721 518.916 449.71 518.883C453.182 516.72 456.567 514.412 459.847 511.948C459.843 511.967 459.838 511.985 459.834 512.004C457.595 513.876 455.267 515.674 452.858 517.404C451.81 517.902 450.77 518.425 449.743 518.981ZM457.71 515.187C457.597 515.286 457.484 515.386 457.371 515.484C457.352 515.491 457.333 515.498 457.314 515.505C457.448 515.401 457.576 515.292 457.71 515.187ZM482.202 481.861C485.147 477.248 488.096 472.414 491.089 467.409C489.832 472.168 487.919 476.948 485.182 481.739C482.98 485.595 480.555 489.272 477.946 492.797C479.927 489.19 481.312 485.537 482.202 481.861ZM484.839 432.25C482.77 436.834 480.657 441.854 478.486 447.149C473.855 435.139 466.779 423.758 460.67 413.944C459.447 411.978 458.204 410.011 456.948 408.047C459.271 399.135 461.639 390.117 464.066 381.113C464.543 381.919 465.015 382.72 465.482 383.508L467.779 387.393C475.034 399.644 482.691 412.595 487.634 425.983C486.679 428.141 485.746 430.24 484.839 432.25ZM456.025 406.606C445.827 390.769 434.57 375.296 422.04 363.376C423.474 351.168 424.963 338.878 426.567 326.594C441.003 342.753 453.234 362.836 463.169 379.6C460.731 388.622 458.357 397.666 456.025 406.606ZM420.901 362.307C407.236 349.622 392.066 341.225 375.105 341.225C375.059 341.225 375.013 341.226 374.966 341.226C374.905 326.565 374.846 311.836 374.793 297.094C393.863 297.365 410.784 309.27 425.464 325.37C423.846 337.704 422.344 350.045 420.901 362.307ZM373.71 341.263C357.373 341.751 341.51 351.686 326.676 365.229C326.186 354.151 325.797 343.108 325.47 332.115C338.594 315.189 354.417 297.473 373.536 297.1C373.589 311.854 373.648 326.592 373.71 341.263ZM325.466 366.333C311.993 378.856 299.388 394.237 288.075 408.043C283.002 414.234 278.105 420.208 273.436 425.57C271.766 417.33 270.527 409.212 269.704 401.222C286.145 383.346 301.119 364.067 317.277 342.866C318.14 341.734 319.016 340.577 319.907 339.401C321.322 337.532 322.775 335.617 324.259 333.684C324.588 344.523 324.976 355.411 325.466 366.333ZM272.4 426.746C269.859 429.634 267.383 432.345 264.992 434.777C261.527 438.301 257.007 442.406 252.22 446.75C242.148 455.894 230.507 466.473 221.582 477.723C218.42 474.026 215.368 470.428 212.433 466.967L212.052 466.519C210.389 464.557 208.643 462.527 206.867 460.463C217.134 448.403 230.335 437.23 241.794 427.534C249.183 421.282 256.161 415.376 261.198 410.223C263.693 407.671 266.146 405.09 268.567 402.48C269.426 410.444 270.708 418.537 272.4 426.746ZM211.095 467.333L211.475 467.782C214.458 471.301 217.565 474.963 220.784 478.724C212.343 489.602 206.557 501.083 207.267 512.488C201.45 508.993 195.598 505.406 189.757 501.776C188.202 487.821 195.433 474.147 206.044 461.436C207.774 463.443 209.473 465.421 211.095 467.333ZM202.052 527.51C205.258 530.58 208.856 533.237 212.766 535.531C204.779 532.291 197.386 528.15 190.913 522.85C194.636 524.395 198.35 525.947 202.052 527.51ZM247.698 545.634C247.732 545.685 247.764 545.736 247.799 545.786C247.642 545.717 247.486 545.649 247.328 545.579C247.452 545.596 247.575 545.617 247.698 545.634ZM271.47 551.846C271.476 551.849 271.482 551.852 271.488 551.855C271.338 551.842 271.189 551.831 271.039 551.817C271.183 551.826 271.326 551.837 271.47 551.846ZM274.401 552.002C274.465 552.005 274.529 552.008 274.593 552.011C274.728 552.057 274.863 552.102 274.997 552.148C274.871 552.139 274.746 552.129 274.62 552.119C274.547 552.08 274.473 552.041 274.401 552.002ZM278.857 552.17C280.017 552.205 281.176 552.234 282.333 552.255C282.237 552.392 282.163 552.52 282.074 552.655C281.307 552.606 280.535 552.552 279.765 552.499C279.462 552.39 279.159 552.279 278.857 552.17ZM304.135 554.977C305.333 555.467 306.534 555.968 307.739 556.492C307.461 556.64 307.187 556.788 306.918 556.935C305.715 556.927 304.514 556.913 303.315 556.895C302.444 556.288 301.575 555.674 300.709 555.053C301.864 555.03 303.005 555.006 304.135 554.977ZM332.451 557.774C333.538 558.486 334.637 559.231 335.745 560.002C334.984 560.003 334.158 560.006 333.271 560.012C332.661 559.288 332.053 558.562 331.457 557.82C331.792 557.807 332.118 557.788 332.451 557.774ZM336.8 561.259C337.045 561.259 337.284 561.256 337.53 561.257C338.089 561.656 338.649 562.059 339.21 562.467C338.1 562.736 337.046 562.996 336.088 563.239C335.499 562.592 334.922 561.927 334.345 561.262C335.23 561.258 336.064 561.256 336.8 561.259ZM341.316 565.279C341.584 565.28 341.849 565.28 342.116 565.28C342.409 565.28 342.704 565.278 342.998 565.278C344.308 566.267 345.608 567.265 346.888 568.26C346.609 568.261 346.32 568.262 346.047 568.264C344.571 568.271 342.852 568.26 340.977 568.234C339.967 567.278 338.979 566.283 338.001 565.268C339.133 565.274 340.247 565.278 341.316 565.279ZM360.992 573.694C361.527 574.594 362.075 575.48 362.635 576.356C361.507 576.409 360.393 576.45 359.285 576.485C358.345 575.738 357.373 574.961 356.377 574.165C356.207 574.029 356.034 573.89 355.862 573.753C357.539 573.738 359.253 573.72 360.992 573.694ZM363.431 577.575C363.686 577.96 363.943 578.343 364.203 578.723C363.516 578.732 362.836 578.743 362.163 578.756C361.724 578.414 361.276 578.062 360.815 577.698C361.679 577.665 362.556 577.617 363.431 577.575ZM365.063 579.968C365.109 580.033 365.157 580.096 365.203 580.16C364.797 580.164 364.39 580.163 363.984 580.162C363.907 580.103 363.832 580.046 363.755 579.987C364.191 579.98 364.623 579.973 365.063 579.968ZM366.106 581.404C366.275 581.633 366.439 581.869 366.61 582.096C366.307 581.884 365.987 581.653 365.654 581.41C365.805 581.407 365.955 581.407 366.106 581.404ZM361.873 580.126C361.467 580.114 361.06 580.109 360.655 580.09C360.432 580.08 360.209 580.07 359.988 580.06C360.562 580.046 361.153 580.034 361.741 580.022C361.784 580.055 361.83 580.093 361.873 580.126ZM367.629 581.362C367.783 581.357 367.937 581.351 368.091 581.345C368.135 581.596 368.167 581.85 368.209 582.102C368.017 581.854 367.818 581.613 367.629 581.362ZM366.734 580.13L366.61 579.959C367.014 579.957 367.415 579.953 367.821 579.952C367.831 580.001 367.841 580.05 367.85 580.099C367.479 580.112 367.106 580.12 366.734 580.13ZM369.102 579.958C369.613 579.959 370.121 579.959 370.634 579.964C370.132 579.995 369.624 580.017 369.118 580.042C369.113 580.013 369.108 579.985 369.102 579.958ZM368.855 578.699C368.757 578.222 368.66 577.747 368.555 577.273C370.587 577.131 372.637 576.963 374.705 576.773C374.502 577.475 374.256 578.135 373.978 578.763C372.27 578.723 370.557 578.703 368.855 578.699ZM376.038 576.643C376.401 576.607 376.763 576.573 377.126 576.536C376.557 577.286 375.979 578 375.393 578.669C375.644 578.025 375.854 577.346 376.038 576.643ZM376.35 575.352C376.492 574.649 376.605 573.923 376.697 573.181C377.669 573.127 378.641 573.065 379.609 572.999C379.118 573.752 378.622 574.477 378.122 575.181C377.528 575.243 376.942 575.294 376.35 575.352ZM366.1 567.907C365.785 566.845 365.462 565.788 365.134 564.734C368.644 564.547 372.154 564.301 375.647 563.983C375.702 565.113 375.732 566.242 375.738 567.363C372.459 567.605 369.23 567.781 366.1 567.907ZM364.748 563.51C364.414 562.451 364.078 561.396 363.74 560.345C367.704 560.046 371.566 559.674 375.321 559.229C375.418 560.382 375.506 561.557 375.579 562.746C371.981 563.074 368.364 563.322 364.748 563.51ZM363.343 559.109L363.298 558.969C367.642 558.347 371.711 557.948 375.207 557.887C375.209 557.915 375.212 557.942 375.214 557.97C371.368 558.426 367.411 558.806 363.343 559.109ZM375.049 556.141C375.064 556.301 375.078 556.47 375.093 556.633C371.409 556.703 367.219 557.124 362.904 557.743C362.793 557.398 362.682 557.051 362.571 556.704C366.681 556.389 370.829 555.982 374.989 555.472C375.01 555.697 375.028 555.91 375.049 556.141ZM366.877 555.077C369.574 554.752 372.23 554.394 374.859 554.017C374.864 554.083 374.871 554.153 374.876 554.219C372.203 554.547 369.535 554.833 366.877 555.077ZM364.571 554.068L364.643 554.014L364.162 553.383C367.763 553.088 371.279 552.73 374.72 552.317C374.731 552.461 374.745 552.617 374.757 552.763C371.421 553.243 368.017 553.672 364.571 554.068ZM375.969 552.169C382.28 551.38 388.308 550.383 394.073 549.195C394.013 549.276 393.952 549.353 393.892 549.434C388.109 550.626 382.159 551.688 376.004 552.595C375.992 552.455 375.979 552.305 375.969 552.169ZM417.866 540.925C417.995 540.621 418.129 540.321 418.256 540.017C420.718 539.25 423.155 538.436 425.566 537.572C425.156 537.964 424.745 538.355 424.337 538.749C423.956 538.91 423.574 539.07 423.19 539.229C421.424 539.818 419.648 540.381 417.866 540.925ZM428.566 536.471C430.142 535.873 431.701 535.244 433.251 534.6C431.456 535.529 429.6 536.414 427.709 537.274C427.994 537.006 428.279 536.738 428.566 536.471ZM435.054 532.479C433.766 533.038 432.466 533.579 431.157 534.105C431.394 533.893 431.631 533.684 431.869 533.474C432.926 532.968 433.969 532.45 435 531.924C435.117 532.065 435.238 532.204 435.351 532.345C435.251 532.389 435.153 532.436 435.054 532.479ZM433.774 528.748C433.497 528.473 433.218 528.2 432.935 527.931C437.247 525.925 441.472 523.747 445.581 521.37C445.569 521.392 445.557 521.414 445.544 521.436C443.186 522.918 440.877 524.541 438.609 526.27C437.026 527.121 435.414 527.945 433.774 528.748ZM452.811 518.826C453.23 518.622 453.652 518.428 454.074 518.234C452.845 519.215 451.589 520.177 450.302 521.114C450.269 520.946 450.222 520.778 450.184 520.609C451.066 520.02 451.95 519.433 452.811 518.826ZM483.659 486.683C484.557 485.263 485.435 483.829 486.272 482.363C489.82 476.154 492.043 469.972 493.217 463.836C494.999 460.832 496.796 457.789 498.632 454.669C499.915 452.49 501.208 450.292 502.512 448.087C501.204 454.698 498.856 461.477 495.215 468.482C491.795 475.063 487.918 481.111 483.659 486.683ZM489.241 422.346C488.947 423.011 488.659 423.666 488.369 424.32C483.38 411.285 475.929 398.69 468.86 386.752L466.563 382.867C465.89 381.729 465.21 380.577 464.521 379.415C465.585 375.481 466.659 371.555 467.746 367.65C468.811 363.825 469.834 359.846 470.915 355.634C471.004 355.286 471.095 354.933 471.185 354.584C472.261 356.474 473.322 358.328 474.364 360.125L477.137 364.888C484.83 378.083 492.344 390.992 497.428 404.133C494.482 410.471 491.765 416.624 489.241 422.346ZM469.697 355.32C468.617 359.527 467.598 363.499 466.536 367.312C465.557 370.831 464.59 374.369 463.63 377.912C453.225 360.371 441.06 340.521 426.817 324.732C428.264 313.729 429.809 302.741 431.481 291.825C445.399 308.977 457.151 329.768 467.179 347.515C468.234 349.381 469.269 351.21 470.291 353.012C470.093 353.783 469.893 354.557 469.697 355.32ZM425.711 323.519C411.035 307.59 394.176 296.092 374.788 295.835C374.742 282.97 374.701 270.109 374.667 257.284C396.375 257.407 414.748 271.585 430.408 290.516C428.72 301.462 427.169 312.483 425.711 323.519ZM373.532 295.842C354.305 296.203 338.526 313.366 325.411 330.147C325.098 319.449 324.833 308.801 324.576 298.221C336.82 278.56 351.982 257.851 373.41 257.305C373.444 270.125 373.486 282.982 373.532 295.842ZM324.2 331.703C322.385 334.05 320.62 336.379 318.906 338.642C318.016 339.816 317.14 340.973 316.278 342.104C300.39 362.95 285.645 381.927 269.536 399.533C269.241 396.443 268.985 393.364 268.817 390.313C268.601 386.372 268.434 381.993 268.458 377.349C289.531 354.123 305.774 329.062 317.894 309.156L319.607 306.336C320.831 304.319 322.083 302.256 323.366 300.173C323.621 310.625 323.887 321.139 324.2 331.703ZM267.563 390.382C267.752 393.824 268.048 397.299 268.399 400.791C265.739 403.676 263.049 406.531 260.3 409.344C255.304 414.454 248.348 420.341 240.982 426.573C229.525 436.268 216.346 447.42 206.029 459.492C205.723 459.136 205.427 458.791 205.118 458.432C200.937 453.583 196.543 448.484 192.168 443.185C203.834 431.15 218.476 419.906 231.87 409.625C242.678 401.329 252.887 393.492 259.817 386.487C262.345 383.932 264.791 381.334 267.195 378.718C267.207 382.882 267.366 386.807 267.563 390.382ZM258.924 385.603C252.054 392.547 241.878 400.358 231.105 408.627C217.707 418.912 203.073 430.149 191.355 442.199C187.879 437.967 184.427 433.605 181.109 429.141C190.466 421.699 200.138 414.658 209.601 407.785C227.393 394.864 245.791 381.503 261.8 365.585C264.095 363.303 266.333 360.957 268.539 358.566C267.604 364.881 267.248 371.072 267.203 376.855C264.518 379.805 261.766 382.729 258.924 385.603ZM169.142 490.36C169.898 496.017 171.993 501.781 175.718 507.644C178.384 511.84 181.439 515.583 184.789 518.959C180.986 517.402 177.168 515.866 173.341 514.342C168.094 509.694 163.338 504.381 159.213 498.275C154.395 491.144 151.335 484.643 150.073 478.485C156.467 482.422 162.822 486.396 169.142 490.36ZM187.232 521.328C191.926 525.616 197.171 529.211 202.813 532.249C193.216 528.33 184.268 523.31 176.335 516.885C179.979 518.35 183.608 519.835 187.232 521.328ZM262.828 549.463C262.584 549.572 262.337 549.674 262.097 549.791C259.571 549.514 257.076 549.178 254.619 548.778C254.317 548.646 254.015 548.513 253.713 548.381C256.724 548.772 259.761 549.133 262.828 549.463ZM286.744 555.098C288.612 555.132 290.475 555.149 292.323 555.149C294.446 555.149 296.54 555.125 298.612 555.092C299.436 555.691 300.262 556.283 301.09 556.87C297.533 556.799 293.99 556.695 290.472 556.541C289.23 556.055 287.988 555.574 286.744 555.098ZM329.914 557.882C330.486 558.605 331.067 559.317 331.651 560.023C331.144 560.026 330.63 560.03 330.091 560.035C326.839 560.061 322.837 560.093 318.443 560.078C317.133 559.437 315.821 558.807 314.509 558.189C319.739 558.151 324.891 558.061 329.914 557.882ZM321.824 561.329C324.556 561.329 327.322 561.316 330.101 561.293C331.014 561.285 331.867 561.278 332.691 561.272C333.359 562.058 334.04 562.826 334.725 563.586C334.234 563.712 333.745 563.838 333.258 563.965C330.746 563.934 328.294 563.892 325.92 563.835C324.275 562.991 322.625 562.153 320.969 561.328C321.255 561.328 321.538 561.329 321.824 561.329ZM328.789 565.164C328.725 565.181 328.663 565.199 328.599 565.216C328.562 565.197 328.524 565.178 328.487 565.158C328.588 565.16 328.689 565.162 328.789 565.164ZM340.439 569.445C341.528 570.466 342.64 571.439 343.766 572.386C343.266 572.367 342.758 572.347 342.243 572.325C340.362 571.355 338.454 570.361 336.53 569.354C337.953 569.391 339.258 569.421 340.439 569.445ZM347.659 573.764C348.589 573.783 349.471 573.794 350.283 573.794C350.501 573.794 350.716 573.793 350.924 573.791L351.571 573.786C352.326 573.782 353.093 573.776 353.868 573.77C354.452 574.236 355.03 574.698 355.593 575.147C356.195 575.629 356.765 576.084 357.336 576.539C356.832 576.551 356.313 576.574 355.814 576.582C354.362 576.605 352.957 576.622 351.6 576.634C350.217 575.751 348.865 574.787 347.531 573.781C347.573 573.776 347.616 573.77 347.659 573.764ZM353.642 577.866C354.374 577.857 355.094 577.852 355.833 577.84C356.826 577.825 357.85 577.783 358.861 577.753C359.304 578.105 359.758 578.467 360.178 578.799C358.658 578.837 357.192 578.882 355.79 578.933C355.282 578.706 354.766 578.47 354.25 578.233C354.045 578.117 353.846 577.985 353.642 577.866ZM371.113 582.571C370.8 582.591 370.492 582.615 370.174 582.631C369.968 582.624 369.764 582.618 369.559 582.611C369.491 582.172 369.43 581.732 369.354 581.294C370.464 581.239 371.56 581.164 372.644 581.08C372.213 581.638 371.708 582.113 371.161 582.541C371.146 582.551 371.129 582.56 371.113 582.571ZM375.055 580.875C375.384 580.845 375.715 580.815 376.04 580.782C375.462 581.073 374.882 581.354 374.298 581.624C374.554 581.386 374.804 581.13 375.055 580.875ZM379.79 574.99C380.255 574.31 380.716 573.605 381.174 572.887C382.887 572.758 384.587 572.608 386.266 572.436C385.893 573.095 385.5 573.735 385.087 574.354C383.317 574.584 381.552 574.795 379.79 574.99ZM376.905 570.843C376.951 570.082 376.978 569.31 376.989 568.53C378.873 568.382 380.768 568.212 382.67 568.015C382.107 568.979 381.542 569.92 380.975 570.84C379.658 570.845 378.297 570.846 376.905 570.843ZM376.996 567.27C376.989 566.139 376.953 565.003 376.897 563.867C379.823 563.586 382.734 563.253 385.621 562.858C385.617 562.865 385.614 562.871 385.609 562.878C384.886 564.156 384.168 565.422 383.451 566.668C381.292 566.9 379.136 567.101 376.996 567.27ZM376.832 562.624C376.759 561.423 376.667 560.238 376.569 559.074C379.929 558.658 383.205 558.184 386.394 557.65C387.128 557.647 387.864 557.648 388.602 557.657C387.859 558.924 387.125 560.206 386.396 561.491C383.235 561.94 380.043 562.315 376.832 562.624ZM386.278 556.393C383.963 556.405 381.674 556.466 379.455 556.526C378.401 556.555 377.377 556.578 376.353 556.601C376.335 556.411 376.319 556.214 376.301 556.026C376.279 555.781 376.259 555.557 376.237 555.317C381.351 554.664 386.472 553.848 391.549 552.848C390.929 553.806 390.318 554.788 389.715 555.787C388.581 555.997 387.435 556.199 386.278 556.393ZM376.124 554.065C376.118 553.993 376.112 553.921 376.106 553.849C381.837 553.006 387.407 552.042 392.817 550.952C392.719 551.095 392.619 551.231 392.522 551.374C387.092 552.477 381.605 553.365 376.124 554.065ZM395.43 550.388C400.679 549.282 405.779 548.057 410.73 546.713C405.706 548.301 400.548 549.644 395.323 550.784C395.359 550.653 395.394 550.52 395.43 550.388ZM417.547 543.446C417.339 543.335 417.129 543.227 416.92 543.118C416.95 543.05 416.978 542.983 417.008 542.915C417.211 542.843 417.417 542.774 417.619 542.702C417.888 542.854 418.158 543.004 418.431 543.17C418.135 543.261 417.844 543.356 417.547 543.446ZM436.527 531.814C436.403 531.654 436.268 531.497 436.139 531.339C437.997 530.368 439.825 529.373 441.594 528.334C441.282 528.859 440.97 529.383 440.655 529.904C439.287 530.56 437.91 531.197 436.527 531.814ZM435.85 530.068C437.276 528.893 438.716 527.755 440.174 526.665C441.38 526.005 442.571 525.331 443.744 524.643C443.477 525.111 443.208 525.577 442.938 526.043C440.655 527.445 438.289 528.785 435.85 530.068ZM445.932 523.337C446.996 522.685 448.04 522.016 449.076 521.341C449.116 521.542 449.143 521.741 449.176 521.941C447.883 522.857 446.556 523.747 445.206 524.62C445.449 524.192 445.692 523.765 445.932 523.337ZM498.172 402.537C493.064 389.722 485.726 377.123 478.223 364.253L475.451 359.493C474.204 357.343 472.931 355.116 471.635 352.835C473.475 345.697 475.447 338.291 477.82 331.062C478.987 333.139 480.152 335.189 481.322 337.184C482.879 339.84 484.433 342.463 485.969 345.057C494.051 358.701 501.712 371.642 507.011 384.795C503.845 390.722 500.91 396.698 498.172 402.537ZM470.744 351.261C469.929 349.824 469.108 348.373 468.272 346.896C458.043 328.792 446.034 307.544 431.734 290.146C431.797 289.743 431.854 289.337 431.917 288.934C433.423 279.251 434.996 270.944 437.043 263.515C449.644 279.11 459.894 298.074 469.57 315.99C472.108 320.689 474.556 325.205 476.988 329.569C474.581 336.751 472.59 344.129 470.744 351.261ZM430.675 288.74C430.669 288.776 430.665 288.812 430.659 288.847C414.952 270.103 396.507 256.145 374.663 256.026C374.654 252.543 374.644 249.055 374.636 245.579C374.622 239.834 375.185 234.517 376.238 229.541C401.786 230.165 420.682 243.688 436.062 262.326C433.89 270.019 432.246 278.639 430.675 288.74ZM373.379 245.581C373.387 249.064 373.398 252.557 373.407 256.047C351.925 256.574 336.758 276.503 324.52 295.944C324.378 290.178 324.182 284.601 323.992 279.206C323.883 276.106 323.78 273.042 323.684 269.987C334.279 248.735 347.119 229.638 373.979 229.488C374.125 229.487 374.261 229.487 374.406 229.487C374.611 229.487 374.808 229.504 375.013 229.505C373.944 234.512 373.365 239.845 373.379 245.581ZM322.736 279.251C322.929 284.721 323.129 290.378 323.27 296.228C323.284 296.777 323.297 297.328 323.31 297.877C321.67 300.517 320.078 303.136 318.534 305.683L316.821 308.501C304.914 328.058 289.022 352.602 268.478 375.454C268.576 369.56 269.013 363.276 270.071 356.901C287.986 337.078 303.14 313.219 318.303 281.167L318.544 280.658C319.848 277.899 321.16 275.131 322.499 272.387C322.575 274.663 322.655 276.949 322.736 279.251ZM317.407 280.12L317.167 280.629C302.444 311.751 287.732 335.1 270.49 354.53C270.823 352.781 271.203 351.028 271.641 349.277C272.349 346.445 273.784 343.38 275.17 340.416C275.507 339.694 275.844 338.968 276.176 338.24C293.762 317.431 302.767 295.076 312.955 269.759C313.999 267.161 315.057 264.532 316.139 261.871C317.798 257.785 319.796 253.692 322.104 249.694C322.073 256.407 322.211 263.032 322.418 269.707C320.708 273.149 319.053 276.641 317.407 280.12ZM270.422 348.971C269.806 351.428 269.308 353.888 268.893 356.336C266.294 359.202 263.638 361.984 260.914 364.693C244.973 380.542 226.616 393.874 208.863 406.767C199.399 413.64 189.725 420.682 180.36 428.13C177.213 423.852 174.199 419.482 171.42 415.036C179.641 409.692 187.984 404.563 196.156 399.542C220.483 384.596 245.636 369.141 266.681 348.473C268.981 346.214 271.154 343.938 273.216 341.644C272.085 344.103 271.017 346.592 270.422 348.971ZM148.572 477.562C149.728 484.209 152.937 491.231 158.172 498.98C161.721 504.233 165.742 508.886 170.115 513.06C166.41 511.599 162.696 510.156 158.969 508.738C152.633 503.289 146.87 497.054 141.858 489.904C135.892 481.395 132.212 473.885 130.898 466.925C136.827 470.411 142.718 473.968 148.572 477.562ZM172.678 515.432C179.169 521.156 186.402 525.854 194.162 529.714C182.593 525.018 171.692 518.988 162.007 511.253C165.575 512.626 169.131 514.021 172.678 515.432ZM249.214 547.78C249.142 547.765 249.073 547.748 249.001 547.733C249.052 547.74 249.104 547.747 249.155 547.754C249.174 547.762 249.194 547.771 249.214 547.78ZM280.795 554.918C280.738 555.048 280.701 555.17 280.651 555.296C280.382 555.157 280.113 555.018 279.844 554.878C280.161 554.893 280.478 554.905 280.795 554.918ZM318.119 561.319C319.75 562.119 321.378 562.934 323.003 563.757C319.556 563.658 316.28 563.529 313.18 563.377C312.037 562.672 310.897 561.954 309.761 561.222C312.494 561.274 315.284 561.305 318.119 561.319ZM325.634 565.1C326.03 565.304 326.427 565.507 326.823 565.711C324.635 566.328 322.558 566.94 320.644 567.532C320.505 567.524 320.365 567.517 320.225 567.51C318.639 566.626 317.058 565.719 315.486 564.78C318.869 564.921 322.284 565.025 325.634 565.1ZM333.665 569.274C333.884 569.389 334.105 569.504 334.325 569.619C335.976 570.483 337.617 571.342 339.241 572.186C335.497 572.001 331.553 571.762 327.889 571.52C326.151 570.669 324.42 569.781 322.697 568.859C326.513 569.037 330.282 569.173 333.665 569.274ZM345.75 574.01C345.888 574.118 346.031 574.219 346.17 574.326C345.975 574.228 345.78 574.129 345.585 574.031C345.641 574.024 345.695 574.017 345.75 574.01ZM352.995 579.042C351.753 579.095 350.589 579.15 349.517 579.203C348.129 578.789 346.738 578.357 345.342 577.909C345.816 577.91 346.278 577.913 346.76 577.913C348.002 577.913 349.283 577.906 350.573 577.897C351.387 578.288 352.196 578.672 352.995 579.042ZM357.311 581.211C357.531 581.314 357.755 581.407 357.976 581.507C357.559 581.406 357.14 581.294 356.723 581.189C356.917 581.196 357.113 581.203 357.311 581.211ZM386.751 574.131C387.119 573.527 387.475 572.908 387.812 572.272C388.396 572.207 388.977 572.136 389.556 572.064C388.654 572.769 387.746 573.453 386.833 574.12C386.806 574.123 386.778 574.127 386.751 574.131ZM382.452 570.833C383.044 569.859 383.633 568.86 384.221 567.846C385.716 567.679 387.211 567.499 388.703 567.297C388.214 568.499 387.693 569.669 387.128 570.796C385.634 570.811 384.075 570.825 382.452 570.833ZM384.999 566.496C385.565 565.506 386.132 564.506 386.703 563.498C386.866 563.209 387.03 562.921 387.194 562.632C388.332 562.467 389.467 562.292 390.597 562.107C390.167 563.407 389.723 564.696 389.245 565.953C387.832 566.149 386.416 566.332 384.999 566.496ZM387.969 561.266C388.654 560.064 389.343 558.866 390.04 557.686C390.686 557.703 391.331 557.725 391.976 557.755C391.667 558.765 391.353 559.775 391.032 560.779C390.015 560.95 388.995 561.112 387.969 561.266ZM393.27 557.826C395.881 557.988 398.47 558.283 400.983 558.783C398.176 559.444 395.322 560.024 392.431 560.534C392.715 559.634 392.994 558.73 393.27 557.826ZM391.374 555.48C392.001 554.461 392.637 553.466 393.282 552.501C393.371 552.482 393.462 552.465 393.551 552.447C393.288 553.368 393.017 554.287 392.743 555.203C392.286 555.295 391.835 555.39 391.374 555.48ZM394.948 552.153C401.332 550.782 407.618 549.098 413.699 547.056C413.197 548.093 412.683 549.12 412.156 550.137C406.538 551.993 400.532 553.589 394.136 554.923C394.409 554 394.686 553.08 394.948 552.153ZM415.382 546.484C416.002 546.268 416.614 546.043 417.228 545.819C416.217 546.845 415.21 547.872 414.204 548.899C414.602 548.098 414.999 547.296 415.382 546.484ZM420.499 542.525C420.331 542.578 420.161 542.63 419.993 542.683C419.714 542.499 419.435 542.316 419.158 542.146C420.103 541.797 421.036 541.44 421.959 541.076C421.471 541.558 420.984 542.04 420.499 542.525ZM438.511 533.368C438.277 533.47 438.04 533.567 437.806 533.668C437.789 533.64 437.771 533.613 437.753 533.586C438.091 533.394 438.413 533.191 438.746 532.997C438.668 533.121 438.589 533.244 438.511 533.368ZM442.727 528.897C443.113 528.247 443.495 527.593 443.877 526.936C445.749 525.779 447.583 524.593 449.351 523.355C449.372 523.678 449.354 523.995 449.349 524.314C447.564 525.717 445.713 527.074 443.782 528.375C443.432 528.553 443.078 528.723 442.727 528.897ZM506.421 456.026C511.211 445.94 513.889 436.516 514.944 427.531C518.251 422.246 521.654 417 525.171 411.861C524.047 421.426 520.986 431.658 515.438 442.934C510.043 453.897 503.891 463.746 497.127 472.601C500.555 467.332 503.67 461.818 506.421 456.026ZM507.79 383.349C502.474 370.468 494.964 357.776 487.05 344.416C485.514 341.823 483.961 339.202 482.406 336.548C481.053 334.24 479.706 331.855 478.354 329.436C480.274 323.765 482.475 318.243 485.068 313.075C486.101 314.869 487.133 316.636 488.171 318.352C491.24 323.432 494.315 328.338 497.29 333.081C504.855 345.145 511.877 356.36 517.05 367.643C513.758 372.733 510.68 378.013 507.79 383.349ZM477.534 327.967C475.287 323.915 473.02 319.732 470.675 315.392C460.821 297.146 450.375 277.827 437.459 262.019C439.297 255.656 441.522 249.94 444.398 244.547C455.961 259.446 465.53 277.197 474.579 294.012C477.916 300.213 481.121 306.154 484.32 311.764C481.696 316.88 479.476 322.348 477.534 327.967ZM436.49 260.848C421.074 242.37 402.12 228.996 376.522 228.291C378.125 221.353 380.698 215.089 384.048 209.296C409.58 209.971 428.311 224.173 443.548 243.45C440.626 248.832 438.361 254.529 436.49 260.848ZM375.29 228.255C374.994 228.252 374.708 228.229 374.41 228.229C374.265 228.229 374.117 228.23 373.972 228.23C347.267 228.379 334.174 246.596 323.603 267.351C323.413 260.766 323.302 254.219 323.371 247.565C335.971 226.919 356.839 209.338 381.87 209.239C381.967 209.239 382.061 209.239 382.159 209.239C382.363 209.239 382.559 209.255 382.762 209.257C379.459 215.066 376.897 221.343 375.29 228.255ZM381.865 207.981C357.064 208.079 336.306 224.955 323.406 245.153C323.458 242.132 323.561 239.073 323.706 235.983C341.724 209.585 372.296 184.25 404.891 182.831C396.487 190.524 389.035 198.676 383.488 208.025C382.944 208.014 382.415 207.98 381.865 207.981ZM322.116 247.222C319.312 251.852 316.912 256.628 314.975 261.397C313.892 264.06 312.835 266.69 311.789 269.289C302.17 293.194 293.616 314.446 277.866 334.206C278.529 332.417 279.039 330.648 279.232 328.942C279.237 328.892 279.246 328.854 279.251 328.805C291.129 314.151 296.755 298.166 302.647 281.374C306.717 269.777 310.925 257.784 317.416 246.12C318.918 243.42 320.572 240.702 322.356 237.988C322.232 241.099 322.15 244.177 322.116 247.222ZM275.108 337.552C272.245 340.933 269.162 344.273 265.799 347.575C244.858 368.144 219.766 383.561 195.5 398.471C187.327 403.491 178.985 408.62 170.758 413.967C168.494 410.284 166.398 406.552 164.523 402.781C171.385 399.224 178.302 395.759 185.095 392.373C216.082 376.927 248.124 360.955 273.056 335.738C274.68 334.096 276.182 332.429 277.62 330.749C277.094 332.946 276.152 335.25 275.108 337.552ZM129.387 466.038C130.575 473.461 134.417 481.48 140.828 490.627C145.244 496.926 150.234 502.521 155.675 507.501C152.294 506.231 148.904 504.981 145.504 503.756C137.898 497.438 130.928 490.242 124.798 481.986C120.112 475.674 112.448 465.342 109.945 455.072C116.48 458.608 122.958 462.277 129.387 466.038ZM158.318 509.837C166.777 517.084 176.238 522.938 186.32 527.666C172.699 522.157 159.926 515.122 148.508 506.184C151.786 507.383 155.057 508.599 158.318 509.837ZM276.813 554.71C277.552 555.101 278.291 555.489 279.033 555.876C276.29 555.683 273.556 555.474 270.84 555.231C270.3 555.142 269.77 555.045 269.242 554.948C268.461 554.6 267.764 554.229 267.159 553.833C270.322 554.223 273.554 554.508 276.813 554.71ZM291.237 558.192C292.201 558.572 293.165 558.955 294.129 559.34C291.873 559.187 289.658 559.003 287.515 558.785C286.987 558.523 286.461 558.257 285.934 557.992C287.69 558.081 289.462 558.146 291.237 558.192ZM294.819 558.261C296.111 558.277 297.402 558.286 298.688 558.286C300.159 558.286 301.618 558.272 303.072 558.255C303.3 558.414 303.529 558.575 303.758 558.732C303.169 559.083 302.612 559.426 302.086 559.761C300.752 559.708 299.421 559.648 298.093 559.579C297.003 559.137 295.911 558.698 294.819 558.261ZM312.877 564.663C314.374 565.582 315.878 566.479 317.388 567.348C317.263 567.341 317.14 567.333 317.015 567.326C314.749 566.404 312.468 565.468 310.176 564.525C311.07 564.574 311.971 564.62 312.877 564.663ZM340.109 573.494C338.381 573.75 336.658 574.031 334.94 574.321C333.77 573.893 332.596 573.457 331.419 573.012C334.313 573.192 337.279 573.36 340.109 573.494ZM343.37 574.315C344.942 575.119 346.493 575.9 348.022 576.655C345.649 576.661 343.461 576.65 341.466 576.627C340.103 576.163 338.737 575.687 337.366 575.197C339.363 574.879 341.365 574.587 343.37 574.315ZM342.35 578.996C340.684 578.612 339.019 578.222 337.358 577.811C337.97 577.825 338.597 577.839 339.242 577.849C340.276 578.245 341.312 578.628 342.35 578.996ZM379.722 581.643C380.44 581.175 381.119 580.666 381.761 580.12C382.112 580.074 382.473 580.028 382.814 579.983C383.52 579.956 384.209 579.924 384.88 579.887C384.462 580.085 384.026 580.251 383.6 580.436C382.321 580.876 381.027 581.275 379.722 581.643ZM392.827 576.558C393.918 575.751 394.985 574.907 396.016 574.006C396.763 573.881 397.507 573.755 398.252 573.624C396.469 574.668 394.662 575.647 392.827 576.558ZM397.716 572.436C397.903 572.257 398.099 572.091 398.284 571.91C399.199 571.899 400.067 571.891 400.841 571.888C399.805 572.081 398.758 572.254 397.716 572.436ZM395.409 572.839C393.403 573.172 391.391 573.487 389.376 573.778C390.135 573.198 390.891 572.605 391.641 572.001C392.582 571.988 393.501 571.975 394.372 571.962C395.058 571.952 395.726 571.943 396.381 571.934C396.056 572.235 395.739 572.547 395.409 572.839ZM393.839 570.198C395.627 568.695 397.393 567.137 399.141 565.533C400.443 565.263 401.729 564.969 403.004 564.66C401.762 566.252 400.468 567.773 399.117 569.212C397.415 569.581 395.653 569.908 393.839 570.198ZM391.429 570.557C390.907 570.629 390.382 570.699 389.853 570.765C389.429 570.771 388.996 570.776 388.559 570.781C389.13 569.59 389.657 568.356 390.153 567.092C392.366 566.773 394.569 566.415 396.743 566.006C394.992 567.577 393.221 569.098 391.429 570.557ZM390.662 565.753C391.131 564.483 391.574 563.187 392 561.878C395.97 561.194 399.874 560.379 403.686 559.411C403.706 559.417 403.726 559.423 403.747 559.429C402.027 561.11 400.292 562.762 398.54 564.375C395.954 564.904 393.319 565.361 390.662 565.753ZM419.059 545.754C419.68 546.125 420.297 546.509 420.909 546.908C419.338 547.554 417.73 548.175 416.087 548.773C417.075 547.765 418.066 546.759 419.059 545.754ZM423.119 541.697C423.702 541.122 424.287 540.55 424.874 539.981C428.517 538.737 432.123 537.398 435.67 535.942C433.106 537.424 430.456 538.803 427.736 540.09C426.207 540.634 424.68 541.18 423.119 541.697ZM440.575 532.446C440.748 532.165 440.921 531.885 441.093 531.605C442.223 530.906 443.33 530.193 444.415 529.463C445.43 528.949 446.44 528.418 447.447 527.882C445.904 529.132 444.319 530.336 442.681 531.483C441.982 531.81 441.278 532.128 440.575 532.446ZM490.569 482.619C491.465 481.732 492.364 480.848 493.269 479.972C491.294 482.149 489.285 484.261 487.243 486.308C488.37 485.098 489.475 483.865 490.569 482.619ZM517.867 366.384C512.693 355.299 505.784 344.261 498.355 332.413C495.383 327.673 492.311 322.772 489.246 317.702C488.075 315.763 486.909 313.77 485.742 311.733C487.85 307.697 490.233 303.918 492.933 300.477C493.715 301.741 494.494 303.003 495.302 304.289C500.114 311.957 506.01 319.326 511.711 326.454C517.967 334.275 524.381 342.324 529.462 350.858C525.326 355.678 521.469 360.91 517.867 366.384ZM444.212 242.239C428.992 223.105 410.274 208.986 384.783 208.059C390.415 198.736 398.039 190.604 406.786 182.759C406.864 182.758 406.941 182.751 407.018 182.75C407.31 182.747 407.596 182.745 407.883 182.745C437.795 182.745 447.328 200.516 456.366 225.948C451.352 231.304 447.399 236.612 444.212 242.239ZM432.352 160.068C430.346 161.686 428.348 163.284 426.364 164.871C419.458 170.396 412.652 175.843 406.335 181.518C373.436 182.218 342.441 207.153 323.814 233.614C323.954 231.082 324.12 228.527 324.337 225.926C324.554 223.326 324.625 220.732 324.553 218.142C352.365 184.24 399.457 152.311 443.91 150.887C440.034 153.931 436.167 156.989 432.352 160.068ZM108.481 454.277C110.756 465.172 118.878 476.121 123.79 482.736C129.276 490.126 135.414 496.687 142.08 502.525C138.932 501.408 135.774 500.319 132.609 499.249C123.501 491.889 115.344 483.701 108.13 474.665C102.374 467.458 93.7728 456.678 91.5687 445.598C97.2503 448.369 102.886 451.272 108.481 454.277ZM144.796 504.837C158.056 515.831 173.27 524.099 189.58 530.305C189.48 530.284 189.379 530.262 189.278 530.241C168.74 522.908 150.894 513.373 135.625 501.607C138.69 502.662 141.747 503.74 144.796 504.837ZM281.365 557.705C281.83 557.741 282.297 557.772 282.765 557.803C283.138 557.993 283.512 558.179 283.884 558.368C283.022 558.258 282.175 558.141 281.348 558.017C281.343 557.918 281.362 557.807 281.365 557.705ZM287.203 560.035C287.982 560.42 288.764 560.8 289.545 561.181C286.703 560.691 284.542 560.15 283.155 559.565C284.456 559.737 285.808 559.892 287.203 560.035ZM290.724 560.357C292.993 560.541 295.358 560.695 297.808 560.82C298.379 561.051 298.949 561.283 299.519 561.515C299.139 561.8 298.797 562.073 298.484 562.337C296.79 562.17 295.214 561.99 293.747 561.802C292.738 561.324 291.73 560.844 290.724 560.357ZM298.445 563.985C298.542 563.89 298.675 563.778 298.791 563.674C301.172 563.911 303.688 564.114 306.294 564.289C306.856 564.52 307.419 564.751 307.981 564.983C309.679 565.681 311.366 566.375 313.05 567.065C309.309 566.797 305.933 566.492 303.302 566.153C301.679 565.445 300.06 564.722 298.445 563.985ZM318.835 569.42C320.324 570.023 321.809 570.619 323.288 571.206C319.975 570.972 317.154 570.758 315.317 570.614C316.212 570.282 317.411 569.876 318.835 569.42ZM335.896 576.517C334.256 576.468 332.845 576.41 331.689 576.346C331.556 576.31 331.42 576.277 331.286 576.241C332.211 576.07 333.145 575.915 334.075 575.754C334.681 576.014 335.289 576.265 335.896 576.517ZM399.514 570.638C399.608 570.54 399.703 570.444 399.798 570.345C401.921 569.874 403.941 569.333 405.845 568.719C404.917 569.375 403.982 570.014 403.04 570.638C402.172 570.623 401.026 570.624 399.514 570.638ZM406.155 562.551C406.595 561.93 407.026 561.301 407.452 560.664C407.805 560.805 408.159 560.941 408.506 561.094C408.872 561.257 409.222 561.392 409.571 561.526C408.451 561.886 407.313 562.229 406.155 562.551ZM404.224 563.07C403.145 563.348 402.052 563.608 400.95 563.856C402.356 562.535 403.749 561.188 405.134 559.828C405.506 559.945 405.871 560.078 406.238 560.207C405.582 561.181 404.912 562.137 404.224 563.07ZM406.138 558.842C406.176 558.804 406.215 558.767 406.253 558.729C406.644 558.621 407.034 558.51 407.423 558.399C407.268 558.644 407.106 558.881 406.949 559.123C406.68 559.025 406.409 558.933 406.138 558.842ZM408.08 556.905C408.31 556.675 408.54 556.447 408.768 556.216C408.65 556.414 408.53 556.612 408.41 556.809C408.3 556.842 408.19 556.872 408.08 556.905ZM412.244 552.694C412.859 552.068 413.474 551.441 414.086 550.815C416.875 549.859 419.56 548.834 422.153 547.747C423.218 548.484 424.268 549.27 425.301 550.105C420.579 552.547 415.525 554.567 410.235 556.243C410.923 555.078 411.594 553.896 412.244 552.694ZM426.501 549.462C425.522 548.655 424.529 547.892 423.522 547.171C426.472 545.893 429.287 544.525 431.975 543.074C430.545 545.057 429.083 546.994 427.586 548.88C427.23 549.079 426.862 549.267 426.501 549.462ZM422.307 546.323C421.535 545.803 420.757 545.307 419.972 544.833L420.048 544.757C422.815 543.68 425.525 542.518 428.172 541.269C430.494 540.443 432.78 539.587 435.03 538.7C434.574 539.374 434.114 540.042 433.651 540.708C430.116 542.74 426.33 544.61 422.307 546.323ZM437.084 537.905C437.406 537.775 437.717 537.632 438.037 537.501C438.067 537.654 438.106 537.808 438.125 537.962C437.506 538.367 436.877 538.765 436.241 539.16C436.522 538.742 436.805 538.326 437.084 537.905ZM474.716 499.199C484.363 491.261 493.176 482.42 501.098 472.658C502.762 471.162 504.446 469.69 506.149 468.24C496.562 480.026 485.886 490.556 474.161 499.804C474.345 499.602 474.531 499.401 474.716 499.199ZM505.289 467.32C513.486 456.453 520.672 444.55 526.809 431.627C533.398 417.751 537.46 404.919 539.006 393.188C542.332 389.085 545.766 385.134 549.323 381.384C547.049 394.734 541.59 408.219 536.038 420.136C528.649 435.995 519.939 450.439 509.97 463.443C508.393 464.716 506.83 466.006 505.289 467.32ZM549.663 379.215C546.085 382.909 542.626 386.796 539.283 390.848C540.669 377.579 538.75 365.764 533.501 355.507C532.721 353.983 531.881 352.48 531.011 350.99C534.312 347.202 537.793 343.69 541.464 340.536C541.828 341.044 542.2 341.546 542.555 342.061C550.189 353.133 551.557 366.063 549.663 379.215ZM530.327 349.856C525.238 341.385 518.89 333.414 512.693 325.668C507.013 318.568 501.141 311.226 496.366 303.62C495.478 302.204 494.617 300.813 493.759 299.424C493.864 299.297 493.96 299.16 494.065 299.034C496.146 296.547 498.667 294.104 501.453 291.713C502.055 292.7 502.643 293.686 503.271 294.678C509.27 304.153 516.838 312.315 524.158 320.206C529.837 326.328 535.681 332.639 540.725 339.504C537.074 342.634 533.612 346.111 530.327 349.856ZM493.101 298.227C493.084 298.247 493.069 298.268 493.053 298.288C476.832 271.901 466.127 250.196 458.612 228.543C458.344 227.771 458.077 227.009 457.809 226.25C460.261 223.665 462.963 221.066 465.961 218.411C470.066 214.776 474.419 211.182 478.852 207.638C478.822 209.123 478.797 210.6 478.786 212.058C478.568 240.585 485.391 265.011 500.787 290.627C497.891 293.103 495.267 295.638 493.101 298.227ZM480.043 212.068C480.057 210.276 480.092 208.453 480.132 206.621C483.926 203.604 487.766 200.623 491.551 197.687C495.814 194.382 500.104 191.048 504.354 187.653C503.707 189.824 503.153 191.785 502.744 193.486C494.515 227.662 497.011 256.27 510.621 283.056C507.528 285.246 504.528 287.498 501.757 289.805C486.559 264.459 479.827 240.284 480.043 212.068ZM464.001 135.286C457.937 139.964 451.755 144.741 445.59 149.568C400.734 150.218 352.948 182.098 324.468 216.26C324.095 209.46 322.722 202.686 320.34 195.914C364.18 152.768 434.869 118.887 489.634 115.296C481.085 122.087 472.458 128.765 464.001 135.286ZM279.555 319.551C280.891 322.394 280.724 322.595 280.216 323.101C279.864 323.452 279.387 323.941 278.95 324.883C278.514 325.441 278.086 326.003 277.627 326.55C276.399 328.016 275.126 329.435 273.829 330.83C275.934 328.071 277.638 325.129 278.788 321.981C279.078 321.189 279.325 320.374 279.555 319.551ZM90.1565 444.918C92.1149 456.625 101.149 467.939 107.147 475.45C113.754 483.724 121.155 491.279 129.331 498.157C125.857 497.003 122.374 495.877 118.879 494.788C108.98 486.743 99.9895 477.854 91.9517 468.097L91.7458 467.846C85.0868 459.764 75.972 448.694 74.0364 437.565C79.4531 439.881 84.8249 442.341 90.1565 444.918ZM131.983 500.366C146.277 511.888 162.912 521.367 181.965 528.85C180.071 528.518 178.172 528.211 176.269 527.923C155.778 519.767 137.546 509.447 121.626 496.977C125.088 498.077 128.541 499.204 131.983 500.366ZM188.95 531.459C199.991 535.395 211.807 538.697 224.404 541.375C223.296 541.406 222.189 541.456 221.084 541.528C207.295 538.476 194.267 534.682 182.018 530.139C184.335 530.548 186.646 530.987 188.95 531.459ZM228.861 542.622C229.713 542.897 230.574 543.158 231.438 543.414C231.768 543.567 232.103 543.714 232.438 543.861C230.301 543.463 228.195 543.036 226.093 542.604C227.015 542.595 227.938 542.603 228.861 542.622ZM280.593 559.195C280.811 559.444 281.121 559.679 281.472 559.907C280.535 559.563 279.602 559.218 278.667 558.873C279.293 558.985 279.936 559.093 280.593 559.195ZM293.445 563.052C294.494 563.548 295.544 564.041 296.597 564.527C296.543 564.665 296.502 564.8 296.494 564.923C296.486 565.033 296.502 565.176 296.562 565.331C293.326 564.197 290.098 563.048 286.884 561.882C288.771 562.326 290.983 562.714 293.445 563.052ZM302.767 567.293C303.38 567.56 303.989 567.834 304.603 568.097C303.68 567.787 302.76 567.472 301.84 567.158C302.135 567.204 302.452 567.248 302.767 567.293ZM317.951 572.079C320.443 572.267 323.666 572.503 327.192 572.739C327.71 572.94 328.225 573.137 328.741 573.335C329.825 573.854 330.914 574.354 332.004 574.844C330.85 575.053 329.692 575.26 328.547 575.485C326.824 575.008 325.103 574.524 323.386 574.023C321.571 573.4 319.76 572.749 317.951 572.079ZM419.837 557.319C417.258 558.663 414.47 559.846 411.519 560.878C410.747 560.638 409.902 560.339 409.014 559.945C408.732 559.82 408.443 559.711 408.158 559.594C408.527 559.023 408.89 558.446 409.249 557.863C414.978 556.127 420.447 553.998 425.548 551.391C424.737 552.366 423.921 553.33 423.092 554.274C422.017 555.304 420.931 556.318 419.837 557.319ZM434.541 541.639C435.151 541.286 435.755 540.929 436.351 540.567C434.83 542.236 433.292 543.896 431.736 545.541C432.685 544.26 433.62 542.959 434.541 541.639ZM439.258 537.199C439.244 537.131 439.238 537.063 439.222 536.994C439.409 536.916 439.593 536.835 439.78 536.756C439.714 536.831 439.647 536.906 439.58 536.98C439.473 537.054 439.366 537.127 439.258 537.199ZM450.254 527.203C450.453 527.031 450.64 526.847 450.838 526.673C450.614 526.975 450.39 527.278 450.164 527.581C450.2 527.456 450.222 527.328 450.254 527.203ZM459.435 516.868C459.787 516.498 460.128 516.121 460.473 515.746C462.624 515.062 464.821 514.52 467.067 514.133C463.55 516.681 459.973 519.082 456.336 521.33C457.622 519.903 458.649 518.412 459.435 516.868ZM462.082 513.952C463.499 512.318 464.856 510.643 466.132 508.911C466.306 508.675 466.454 508.427 466.621 508.188C467.343 507.392 468.062 506.594 468.756 505.775C468.996 505.507 469.236 505.242 469.477 504.975C485.034 493.531 498.88 479.974 510.891 464.317C514.081 461.746 517.354 459.266 520.713 456.878C505.404 479.778 488.202 498.362 469.219 512.544C466.781 512.839 464.405 513.314 462.082 513.952ZM541.688 338.691C536.615 331.797 530.763 325.48 525.079 319.351C517.798 311.5 510.268 303.382 504.332 294.005C503.672 292.962 503.052 291.925 502.421 290.886C505.156 288.599 508.131 286.364 511.2 284.186C511.77 285.278 512.351 286.369 512.957 287.457C520.066 300.2 529.126 308.599 538.72 317.489C543.32 321.751 548.051 326.142 552.575 331.077C548.77 333.253 545.144 335.813 541.688 338.691ZM511.657 282.321C498.264 255.862 495.829 227.576 503.967 193.78C504.476 191.664 505.214 189.127 506.083 186.269C513.664 180.16 521.068 173.825 527.86 167.026C527.533 167.768 527.236 168.463 526.992 169.081C511.325 208.784 510.152 242.38 523.365 274.5C519.52 277.001 515.531 279.612 511.657 282.321ZM506.744 184.112C506.985 183.332 507.23 182.539 507.484 181.719C513.329 162.852 522.164 134.34 511.877 121.102C508.058 116.187 501.848 113.784 493.45 113.871C497.394 110.716 501.317 107.541 505.183 104.331C507.113 102.727 509.205 101.035 511.402 99.2588C518.763 93.3047 527.312 86.3886 534.853 78.7191C542.581 78.7653 548.009 81.0847 550.929 85.6514C560.439 100.522 543.198 135.567 532.896 156.506C531.594 159.153 530.429 161.524 529.441 163.598C522.453 170.885 514.717 177.633 506.744 184.112ZM510.612 98.28C508.411 100.06 506.316 101.756 504.38 103.363C500.101 106.917 495.748 110.426 491.376 113.913C436.269 116.875 364.428 150.992 319.87 194.612C316.923 186.668 312.582 178.726 306.832 170.747C339.131 145.146 376.233 127.416 405.966 114.528C445.29 97.4804 491.117 79.9151 533.073 78.7215C525.796 85.9915 517.656 92.582 510.612 98.28ZM318.891 195.577C316.844 197.605 314.836 199.646 312.913 201.712C293.943 222.092 282.551 243.985 279.056 266.783C277.941 274.049 278.577 282.428 279.192 290.531C279.886 299.667 280.588 309.059 278.857 317.125C275.921 315.097 269.686 312.394 261.933 309.431C260.887 304.461 259.652 299.546 258.438 294.769C254.865 280.714 251.49 267.438 252.757 252.765C254.903 227.894 268.506 204.505 294.344 181.26C298.088 177.892 301.942 174.67 305.854 171.54C311.641 179.583 315.988 187.583 318.891 195.577ZM165.109 381.749C162.564 382.568 159.993 383.396 157.411 384.232C157.133 383.162 156.884 382.09 156.655 381.017C156.657 381.016 156.659 381.016 156.662 381.016C167.984 378.57 181.328 375.688 194.671 371.958C184.797 375.408 174.874 378.608 165.109 381.749ZM72.6678 436.988C74.3571 448.704 83.8607 460.252 90.7761 468.646L90.9821 468.896C98.4219 477.928 106.729 486.245 115.853 493.85C112.303 492.767 108.738 491.729 105.166 490.721C94.9758 482.377 85.3133 472.982 76.355 462.414L75.6688 461.605C68.6725 453.36 59.1795 442.161 57.5926 431.046C62.6582 432.889 67.6813 434.881 72.6678 436.988ZM118.476 495.979C133.996 508.47 151.828 518.934 171.847 527.299C169.514 526.992 167.175 526.721 164.827 526.489C144.834 517.943 125.472 506.898 107.654 492.722C111.273 493.766 114.879 494.859 118.476 495.979ZM176.591 529.244C181.279 531.094 186.072 532.842 190.99 534.467C199.432 537.256 208.225 539.714 217.342 541.847C215.934 542.001 214.531 542.199 213.13 542.427C198.326 538.817 183.473 534.151 168.916 528.198C171.482 528.504 174.041 528.853 176.591 529.244ZM221.46 542.769C226.814 543.951 232.274 545.027 237.846 545.985C239.678 546.618 241.556 547.194 243.479 547.711C244.344 548.117 245.232 548.501 246.143 548.866C236.36 547.404 226.437 545.548 216.477 543.223C218.134 543.022 219.794 542.871 221.46 542.769ZM261.262 554.259C260.162 554.135 259.073 553.992 257.978 553.859C258.193 553.69 258.404 553.507 258.623 553.346C259.471 553.671 260.355 553.973 261.262 554.259ZM437.667 540.986C437.119 542.192 436.121 543.317 434.643 544.387C434.549 544.456 434.45 544.519 434.356 544.586C435.468 543.392 436.573 542.192 437.667 540.986ZM440.418 537.93C441.813 536.974 443.162 535.988 444.467 534.974C442.469 537.482 440.428 539.952 438.345 542.37C438.998 541.324 439.353 540.216 439.413 539.055C439.75 538.68 440.083 538.305 440.418 537.93ZM454.371 523.98C459.602 520.873 464.714 517.466 469.702 513.754C470.735 513.636 471.775 513.539 472.83 513.489C466.261 518.343 459.501 522.674 452.54 526.491C453.154 525.655 453.764 524.818 454.371 523.98ZM525.225 452.258C533.261 439.659 540.76 425.849 547.697 410.824L548.43 409.238C553.808 397.612 560.631 382.851 563.212 368.408C566.757 365.512 570.414 362.824 574.206 360.396C571.438 372.737 565.196 385.501 560.231 395.645C559.172 397.81 558.167 399.862 557.261 401.775C549.218 418.761 540.75 434.189 531.824 448.107C529.584 449.45 527.383 450.832 525.225 452.258ZM563.517 366.531C565.396 354.24 564.015 342.287 555.818 332.817C555.405 332.341 554.987 331.879 554.571 331.413C558.241 329.427 562.079 327.81 566.092 326.62C566.702 327.13 567.298 327.654 567.86 328.216C575.9 336.236 576.843 347.221 574.568 358.695C570.76 361.073 567.076 363.688 563.517 366.531ZM542.897 273.71C547.359 284.82 551.973 296.308 558.155 305.883C562.766 313.026 567.51 316.076 572.533 319.305C574.379 320.493 576.27 321.712 578.234 323.173C574.12 323.448 570.17 324.149 566.377 325.224C563.808 323.176 560.904 321.471 558.069 319.811C554.21 317.549 550.218 315.209 547.061 312.005C537.26 302.061 530.916 288.66 525.74 276.879C525.462 276.247 525.201 275.613 524.934 274.979C524.998 274.938 525.062 274.896 525.125 274.855C530.318 271.478 535.228 268.281 539.424 265.183C540.583 267.961 541.733 270.812 542.897 273.71ZM538.932 263.983C534.711 267.117 529.722 270.366 524.44 273.8C524.442 273.798 524.439 273.801 524.44 273.8C511.455 242.063 512.658 208.833 528.161 169.543C528.708 168.156 529.514 166.378 530.488 164.326C535.153 159.45 539.486 154.328 543.336 148.88C525.124 191.964 523.765 227.536 538.932 263.983ZM555.606 46.2581C564.427 46.2581 570.518 48.8318 573.722 53.9203C584.191 70.5458 563.349 110.084 550.896 133.706C548.483 138.286 546.454 142.135 545.01 145.135L544.57 144.847C540.962 150.37 536.828 155.551 532.343 160.485C532.881 159.386 533.442 158.245 534.024 157.062C544.442 135.884 561.88 100.441 551.988 84.9731C548.976 80.266 543.612 77.7661 536.05 77.4806C545.082 68.0573 552.442 57.5353 554.2 46.2863C554.674 46.2725 555.147 46.2581 555.606 46.2581ZM414.58 82.6939C455.771 67.3778 506.978 48.3435 552.917 46.336C551.085 57.5215 543.514 68.0393 534.323 77.4572C534.047 77.459 533.793 77.4392 533.511 77.4464C491.213 78.5278 445.047 96.2143 405.466 113.373C375.674 126.288 338.498 144.054 306.097 169.724C299.923 161.328 292.18 152.889 282.859 144.365C324.326 117.925 370.463 99.0987 414.58 82.6939ZM232.688 297.229C231.872 295.725 231.048 294.218 230.22 292.706C219.523 273.157 208.46 252.941 210.62 230.032C213.797 196.274 243.483 171.448 268.988 153.592C273.185 150.653 277.458 147.832 281.766 145.066C291.156 153.631 298.934 162.099 305.118 170.518C301.171 173.674 297.283 176.925 293.504 180.324C267.417 203.793 253.679 227.454 251.505 252.657C250.22 267.542 253.777 281.541 257.218 295.079C258.365 299.59 259.536 304.224 260.541 308.903C253.734 306.333 245.896 303.593 238.154 300.944C236.062 300.229 234.477 299.687 233.908 299.472C233.882 299.425 233.857 299.378 233.831 299.331L232.688 297.229ZM156.17 376.886C181.847 371.514 210.95 365.427 232.093 350.452C252.752 335.821 244.501 318.974 234.808 301.125C235.528 301.375 236.486 301.703 237.748 302.134C242.544 303.775 252.086 307.04 260.842 310.367C261.004 311.153 261.176 311.937 261.326 312.724C269.47 355.365 198.691 370.652 156.4 379.785C156.216 378.838 156.051 377.89 155.908 376.941C155.997 376.923 156.081 376.905 156.17 376.886ZM47.9984 410.589C63.7188 394.599 95.128 388.861 120.365 384.25C127.26 382.991 133.771 381.801 139.392 380.508C144.324 379.373 149.378 378.308 154.676 377.199C154.821 378.15 154.987 379.101 155.172 380.051C147.323 381.746 140.518 383.231 135.248 384.673C131.778 385.623 127.566 386.628 123.107 387.69C100.922 392.978 70.5368 400.22 59.6435 416.391C56.8491 420.539 55.8728 424.857 56.1197 429.187C51.4473 427.523 46.7388 425.98 41.9927 424.573C41.9094 419.795 43.5969 415.067 47.9984 410.589ZM61.4302 457.756L60.4547 456.647C52.6829 447.816 42.9852 436.781 42.06 425.905C46.8223 427.327 51.5473 428.883 56.2371 430.564C57.5903 442.233 67.46 453.875 74.7116 462.42L75.3971 463.227C83.7717 473.107 92.7624 481.958 102.216 489.897C98.8293 488.964 95.4353 488.061 92.0285 487.205C80.9979 478.195 70.7607 468.381 61.4302 457.756ZM94.3957 489.117C97.8007 489.995 101.195 490.91 104.581 491.863C122.092 506.17 141.147 517.388 160.863 526.135C158.787 525.969 156.706 525.826 154.618 525.724C132.635 515.771 112.457 503.527 94.3957 489.117ZM164.512 527.723C179.494 534.114 194.821 539.112 210.117 542.974C208.737 543.252 207.36 543.576 205.987 543.933C189.17 539.459 173.095 533.862 157.864 527.175C160.087 527.32 162.303 527.506 164.512 527.723ZM213.085 543.712C226.427 546.955 239.723 549.346 252.723 551.064C253.399 551.252 254.083 551.432 254.776 551.604C255.574 552.028 256.406 552.431 257.283 552.805C256.93 553.081 256.574 553.349 256.229 553.646C239.765 551.578 223.82 548.568 208.491 544.61C210.017 544.261 211.549 543.966 213.085 543.712ZM409.032 569.355C410.909 567.904 412.744 566.373 414.536 564.763C415.356 564.226 415.893 563.794 416.07 563.35C417.963 561.578 419.808 559.723 421.607 557.791C422.753 557.156 423.864 556.494 424.915 555.787C425.771 555.211 426.661 554.367 427.52 553.55C427.942 553.148 428.363 552.747 428.78 552.379L429.303 551.918L428.79 551.445C428.611 551.28 428.428 551.125 428.248 550.963C429.022 550.181 429.792 549.393 430.557 548.6C432.212 547.595 433.823 546.534 435.379 545.407C435.761 545.13 436.108 544.845 436.436 544.556C428.022 554.063 418.912 562.65 409.032 569.355ZM449.014 531.188C449.609 530.411 450.199 529.631 450.786 528.849C459.131 524.439 467.193 519.31 474.982 513.443C475.894 513.442 476.813 513.463 477.741 513.516C468.832 520.15 459.279 526.125 449.014 531.188ZM479.241 512.377C478.348 512.301 477.462 512.249 476.585 512.221C497.114 496.413 515.748 475.447 532.719 449.037C535.051 447.644 537.43 446.296 539.859 444.998C524.084 469.151 504.26 493.38 479.241 512.377ZM572.988 385.638C571.228 388.909 569.566 391.998 568.181 394.79C560.883 409.487 552.042 426.079 541.29 442.792C538.877 444.04 536.524 445.345 534.207 446.686C542.675 433.271 550.731 418.503 558.397 402.314C559.301 400.405 560.303 398.357 561.359 396.199C566.519 385.658 573.03 372.334 575.689 359.483C579.419 357.18 583.273 355.122 587.261 353.341C584.486 364.257 578.249 375.859 572.988 385.638Z" fill="white"/>
</svg>
