<svg width="630" height="630" viewBox="0 0 630 630" fill="none" xmlns="http://www.w3.org/2000/svg">
<g clip-path="url(#clip0_127_36683)">
<path d="M363.24 67.541L402.745 70.3467L402.767 70.2891L403.158 70.376L403.802 70.4219L403.769 70.5117L441.263 78.8477L441.296 78.7891L441.678 78.9395L442.298 79.0781L442.249 79.166L476.878 92.8682L476.921 92.8125L477.27 93.0234L477.858 93.2568L477.794 93.3408L508.78 112.11L508.837 112.055L509.165 112.344L509.676 112.653L509.602 112.728L536.206 136.17L536.274 136.117L536.557 136.479L536.983 136.854L536.9 136.918L558.491 164.53L558.57 164.484L558.789 164.911L559.123 165.338L559.035 165.389L575.054 196.577L575.146 196.539L575.293 197.043L575.521 197.485L575.434 197.521L585.434 231.604L585.531 231.578L585.587 232.127L585.72 232.579L585.635 232.603L589.321 268.803L589.424 268.789L589.379 269.374L589.425 269.819L589.345 269.83L586.508 307.297H586.609L586.463 307.887L586.431 308.317H586.356L576.984 346.166L577.082 346.181L576.84 346.752L576.74 347.156L576.673 347.146L560.896 384.443L560.984 384.472L560.658 385.003L560.499 385.382L560.438 385.362L538.554 421.141L538.63 421.18L538.245 421.645L538.022 422.01L537.967 421.981L510.45 455.303L510.509 455.348L510.109 455.715L509.8 456.091L509.746 456.05L477.243 486.005L477.293 486.061L476.833 486.383L476.497 486.693L476.456 486.647L439.767 512.413L439.8 512.469L439.365 512.694L438.931 513.001L438.895 512.94L398.955 533.791L398.979 533.854L398.509 534.023L398.047 534.266L398.022 534.2L355.888 549.53L355.897 549.586L355.502 549.671L354.914 549.886L354.9 549.802L311.691 559.175L311.69 559.244L311.217 559.278L310.67 559.397L310.671 559.318L267.556 562.475L267.545 562.532L267.163 562.503L266.506 562.552L266.524 562.455L224.662 559.311L224.639 559.376L224.224 559.277L223.607 559.231L223.641 559.14L184.15 549.788L184.117 549.85L183.746 549.692L183.126 549.546L183.177 549.451L147.098 534.183L147.053 534.244L146.704 534.016L146.135 533.775L146.2 533.687L114.469 512.942L114.405 513.007L114.063 512.678L113.598 512.373L113.67 512.299L87.0771 486.672L87.0039 486.729L86.7285 486.336L86.3389 485.96L86.4209 485.896L65.6045 456.084L65.5166 456.137L65.3047 455.654L65.0195 455.246L65.1035 455.196L50.5361 422.037L50.4365 422.08L50.3105 421.524L50.127 421.104L50.209 421.069L42.1846 385.421L42.0801 385.451L42.0576 384.86L41.9619 384.432L42.042 384.408L40.6846 347.198L40.5752 347.214L40.6621 346.586L40.6475 346.176L40.7207 346.165L45.9824 308.339H45.875L46.0684 307.715L46.124 307.32H46.1924L57.8604 269.817L57.7607 269.803L58.0479 269.213L58.166 268.836L58.2275 268.845L75.9463 232.557L75.8574 232.529L76.2227 231.991L76.3984 231.633L76.4551 231.65L99.7246 197.444L99.6514 197.407L100.056 196.957L100.304 196.594L100.357 196.621L128.57 165.278L128.506 165.229L128.982 164.82L129.251 164.523L129.293 164.556L161.73 136.797L161.687 136.748L162.123 136.46L162.507 136.133L162.549 136.18L198.413 112.604L198.377 112.544L198.884 112.294L199.262 112.047L199.29 112.095L237.722 93.2324L237.702 93.1787L238.133 93.0303L238.642 92.7812L238.665 92.8477L278.755 79.0918L278.745 79.0293L279.229 78.9297L279.731 78.7578L279.742 78.8242L320.565 70.459L320.567 70.4033L320.977 70.375L321.587 70.25L321.585 70.332L362.208 67.5254L362.22 67.4688L362.62 67.4971L363.258 67.4531L363.24 67.541ZM243.463 508.005L243.462 508.004L225.034 558.297L225.026 558.317L266.719 561.451L276.567 510.501L276.584 510.409L243.486 507.938L243.463 508.005ZM277.618 510.429L267.757 561.439L310.692 558.297L310.87 549.53L311.711 507.947L277.618 510.429ZM184.66 548.863L223.993 558.177L232.93 533.791L242.432 507.856H242.431L242.462 507.77L211.227 500.425L184.66 548.863ZM312.731 507.804L311.713 558.13L354.737 548.797L346.925 500.514L346.911 500.432L312.731 507.804ZM181.639 488.146L181.637 488.145L147.729 533.346L183.667 548.554L210.25 500.089L181.686 488.081L181.639 488.146ZM347.899 500.159L355.723 548.509L397.676 533.245L390.293 512.94L381.285 488.166L381.284 488.167L381.259 488.099L347.899 500.159ZM115.197 512.203L146.812 532.871L180.78 487.588L155.617 471.269L115.197 512.203ZM382.196 487.692L398.606 532.826L438.369 512.066L413.858 471.268L382.196 487.692ZM87.8896 486.043L114.385 511.574L154.818 470.624L133.679 450.435L87.8896 486.043ZM414.729 470.74L439.241 511.539L475.77 485.888L443.867 450.426L414.729 470.74ZM243.852 506.942L276.779 509.401L286.511 459.067L286.526 458.982L262.089 457.17L243.852 506.942ZM287.561 458.995L277.818 509.392L311.732 506.922L312.738 457.181L287.561 458.995ZM211.735 499.499L242.814 506.806L261.066 456.998L237.998 451.611L211.735 499.499ZM313.759 457.047L312.753 506.759L334.952 501.97L346.748 499.426L339.029 451.707L339.017 451.63L313.759 457.047ZM182.315 487.242L210.741 499.191L237.019 451.275L215.906 442.462L182.315 487.242ZM340.005 451.355L347.734 499.14L380.911 487.143L364.68 442.479L340.005 451.355ZM156.349 470.528L181.395 486.771L214.938 442.058H214.938L215.001 441.973L209.49 438.425L196.375 429.981L156.349 470.528ZM365.616 442.076L381.843 486.726L413.331 470.392L389.062 429.997L365.616 442.076ZM116.318 426.211L116.317 426.209L66.4834 455.566L87.2246 485.269L132.935 449.722L133.016 449.658L125.588 439.148L116.405 426.158L116.318 426.211ZM447.885 446.833L444.66 449.783L476.564 485.248L508.926 455.424L470.52 426.123L447.885 446.833ZM134.49 449.802L155.535 469.9L195.573 429.341L179.889 414.504L134.49 449.802ZM410.283 415.374L408.375 417.107L408.315 417.161L408.363 417.214L408.312 417.248L408.313 417.25L407.909 417.529L407.562 417.846L407.562 417.845L407.519 417.885L407.478 417.828L393.73 427.354L393.773 427.413L393.272 427.67L392.895 427.935L392.893 427.932L392.856 427.958L392.823 427.902L390.388 429.157L390.011 429.418L389.936 429.47L414.205 469.866L443.182 449.662L411.552 414.494L410.283 415.374ZM262.454 456.172L286.722 457.972L290.164 440.172L281.599 436.607L282.245 437.43L280.118 436.064L280.115 436.069L279.761 435.843L279.193 435.606L279.257 435.52L271.775 430.732L262.454 456.172ZM291.123 440.571L287.93 457.092L287.762 457.959L312.76 456.156L312.761 456.091L312.97 445.74L311.116 445.603L311.29 445.825L310.339 445.604L310.337 445.609L309.929 445.514L309.749 445.501L309.744 445.495L309.306 445.463L309.336 445.376L295.65 442.19L295.953 442.578L294.59 442.01L294.588 442.015L294.203 441.854L293.595 441.713L293.644 441.621L291.123 440.571ZM238.506 450.683L261.421 456.035L270.897 430.171L267.338 427.894L267.279 427.954L266.951 427.646L266.463 427.334L266.537 427.258L256.51 417.849L238.506 450.683ZM313.78 455.997L338.853 450.62L338.092 445.912L330.97 446.429L327.523 446.679L327.643 446.833L326.535 446.75L325.925 446.795L325.941 446.706L313.986 445.815L313.78 455.997ZM471.223 425.378L509.64 454.685L537.039 421.508L493.175 399.034L471.223 425.378ZM51.4717 421.637L65.9863 454.676L115.899 425.273L104.199 399.08L51.4717 421.637ZM220.872 435.843L216.536 441.623L237.512 450.378L255.742 417.13L255.719 417.107L255.783 417.055L245.105 403.536L220.872 435.843ZM361.4 441.603L361.465 441.688L360.72 441.847L360.4 441.963L360.399 441.962L360.178 442.042L360.164 441.966L344.434 445.336L344.52 445.448L343.6 445.515L343.338 445.571L343.337 445.569L343.028 445.637V445.556L339.11 445.839L339.627 449.035L339.837 450.335L364.332 441.523L364.019 440.66L361.4 441.603ZM166.769 396.49L166.768 396.487L117.285 425.64L133.819 449.032L179.223 413.731L166.856 396.438L166.769 396.49ZM412.347 413.857L443.979 449.027L469.699 425.494L431.613 396.445V396.446L431.563 396.408L412.347 413.857ZM327.17 445.685L337.929 444.904L336.601 436.699L330.408 428.542L327.17 445.685ZM314.208 434.887L314.008 444.792L325.446 445.643L315.163 432.245L314.208 434.887ZM315.575 431.109L326.259 445.028L329.58 427.451L320.986 416.131L315.575 431.109ZM338.947 444.831L342.575 444.568L337.91 438.425L338.947 444.831ZM310.72 444.548L312.991 444.716L313.13 437.874L310.72 444.548ZM344.066 444.374L359.695 441.024L344.462 420.715L344.066 444.374ZM295.127 441.019L308.728 444.183L299.716 432.557L295.127 441.019ZM300.248 431.579L309.847 443.963L313.193 434.694L313.293 429.809L306.211 420.582L300.248 431.579ZM333.589 411.709L337.564 436.285L343.063 443.528L343.467 419.389L334.419 407.325L333.589 411.709ZM197.105 429.241L215.613 441.156L244.453 402.709L235.054 390.809L197.105 429.241ZM364.977 440.316L365.267 441.113L371.04 438.138L364.977 440.316ZM360.982 440.672L363.671 439.705L358.468 425.394L360.982 440.672ZM291.771 437.222L294.283 440.439L299.034 431.678L294.078 425.285L291.771 437.222ZM291.321 439.547L292.767 440.149L291.515 438.546L291.321 439.547ZM344.833 398.573L344.49 419.056L359.739 439.388L356.585 420.217L348.27 397.345L344.833 398.573ZM357.574 419.957L364.629 439.361L376.387 435.136L355.407 406.782L357.574 419.957ZM280.79 435.164L290.361 439.148L290.684 437.482L284.731 429.861L280.79 435.164ZM285.361 429.014L290.939 436.158L293.249 424.215L291.043 421.368L285.361 429.014ZM361.741 391.554L377.483 434.663L388.465 429L364.975 389.898L361.741 391.554ZM330.664 427.195L336.255 434.56L333.034 414.651L330.664 427.195ZM276.094 418.948L273.433 426.211L279.979 434.545L284.081 429.027L276.159 418.884L276.094 418.948ZM272.135 429.752L277.736 433.337L273.021 427.335L272.135 429.752ZM354.66 394.15L353.433 394.779L355.045 404.581L375.516 432.246L360.828 392.021V392.022L360.803 391.955L354.66 394.15ZM314.272 431.707L314.426 431.285L314.284 431.102L314.272 431.707ZM296.17 414.471L294.336 423.952L299.566 430.7L305.533 419.698L298.803 410.93L296.17 414.471ZM314.317 429.472L314.838 430.148L320.252 415.164L314.754 407.921L314.317 429.472ZM268.066 427.148L271.257 429.19L272.281 426.394L270.734 424.424L268.066 427.148ZM180.702 413.872L196.291 428.617L234.418 390.003L225.662 378.918L180.702 413.872ZM370.968 397.899L389.371 428.533L389.878 428.271L392.045 426.771L370.968 397.899ZM276.877 418.149L284.71 428.18L290.395 420.531L283.392 411.496L276.877 418.149ZM313.575 407.008L306.743 419.603L313.326 428.179L313.755 406.995L313.575 407.008ZM258.946 415.871L267.306 426.472L270.101 423.617L262.083 413.413L258.946 415.871ZM369.671 387.421L392.952 426.143L406.551 416.721L376.224 382.987L376.221 382.991L376.178 382.943L369.671 387.421ZM325.132 404.659L321.399 414.991L329.835 426.104L332.557 411.701L331.208 403.366L325.132 404.659ZM271.452 423.69L272.693 425.271L274.361 420.719L271.452 423.69ZM432.27 395.663L470.413 424.758L492.246 398.553L448.688 376.233V376.234L448.632 376.206L432.27 395.663ZM105.136 398.68L116.781 424.753L166.262 395.604L166.261 395.603L166.343 395.554L157.577 376.256L105.136 398.68ZM262.885 412.785L270.302 422.228L270.818 422.885L275.212 418.397L275.394 417.902L268.166 408.648L262.885 412.785ZM291.676 420.52L293.507 422.882L294.769 416.357L291.676 420.52ZM257.28 417.178L262.663 422.228L258.146 416.499L257.28 417.178ZM493.769 398.19L493.842 398.228L493.839 398.229L537.646 420.675L559.438 385.051L511.292 369.864L493.769 398.19ZM43.166 385.15L51.1592 420.662L103.866 398.114L97.3271 369.916L43.166 385.15ZM284.112 410.762L291.026 419.683L295.215 414.046L296.354 408.161L287.311 407.495L284.112 410.762ZM301.049 407.909L299.435 410.081L306.064 418.719L312.37 407.095L301.049 407.909ZM366.003 389.372L386.717 417.747L368.832 388.001L368.831 388.002L368.797 387.945L366.003 389.372ZM335.439 401.933L334.676 405.972L343.495 417.729L343.81 398.939L335.439 401.933ZM268.967 408.02L275.806 416.777L279.454 406.821L272.547 405.215L268.967 408.02ZM276.944 416.628L277.166 416.404L282.764 410.686L280.29 407.496L276.944 416.628ZM407.475 416.082L409.653 414.571L410.736 413.589L385.458 385.489L407.475 416.082ZM248.701 405.495L256.336 416.048L256.933 414.96L249.224 405.185L248.701 405.495ZM258.148 414.86L258.314 415.07L261.453 412.612L260.233 411.059L258.148 414.86ZM355.691 414.779L354.082 404.99L350.249 399.81L355.691 414.779ZM315.166 406.78L320.665 414.023L323.957 404.909L315.166 406.78ZM250.105 404.661L257.464 413.991L259.549 410.188L253.586 402.597L250.105 404.661ZM167.738 395.918L180.028 413.106L225.048 378.104L216.96 366.921L167.738 395.918ZM380.836 378.83L411.491 412.905L419.797 405.368L382.786 377.075L380.836 378.83ZM296.616 412.159L298.157 410.089L297.246 408.902L296.616 412.159ZM260.766 410.088L262.255 411.984L267.539 407.845L264.282 403.675L260.766 410.088ZM283.483 409.951L285.982 407.397L281.234 407.049L283.483 409.951ZM376.979 382.306L401.708 409.812L379.971 379.608L376.979 382.306ZM297.94 408.134L298.789 409.239L299.706 408.006L297.94 408.134ZM254.469 402.073L260.081 409.218L263.488 403.006L257.253 400.421L254.469 402.073ZM333.112 408.761L333.593 406.224L332.457 404.709L333.112 408.761ZM268.34 407.217L271.272 404.919L265.497 403.576L268.34 407.217ZM288.242 406.543L293.439 406.926L296.935 407.183L300.508 406.926L311.954 391.531H311.953L312.014 391.448L306.476 387.927L288.242 406.543ZM301.85 406.829L312.946 406.031L319.144 394.609H319.142L319.187 394.522L312.922 391.938L301.85 406.829ZM273.579 404.407L280.235 405.955L286.914 406.445L296.457 396.703L305.673 387.292L300.99 382.938L273.579 404.407ZM314.15 405.944L314.202 405.94L324.367 403.777L326.988 396.526L327.02 396.438L320.17 394.853L314.15 405.944ZM332.449 403.003L333.85 404.87L334.328 402.33L332.449 403.003ZM248.186 404.613L248.586 404.375L247.349 402.807L248.186 404.613ZM420.628 404.502L429.049 394.489L416.459 384.886L401.112 376.999L420.628 404.502ZM258.347 399.772L264.359 402.264L272.305 404.111L300.236 382.235L300.315 382.172L296.595 377.088L258.347 399.772ZM247.11 400.863L249.467 403.852L252.948 401.786L249.607 397.534L247.11 400.863ZM325.541 403.527L331.485 402.262L334.55 401.166L335.294 397.231L335.311 397.142L328.044 396.604L325.541 403.527ZM387.022 372.173L383.495 376.333L418.233 402.888L399.148 375.99L388.729 370.635L387.022 372.173ZM349.343 396.873L353.721 402.79L352.481 395.266L349.343 396.873ZM236.212 389.636L245.467 401.359L245.521 401.285L244.63 399.358L242.881 397.142L236.629 389.213L236.212 389.636ZM424.619 401.339L430.741 395.78L429.859 395.108L424.619 401.339ZM253.832 401.263L256.072 399.932L251.199 397.912L253.832 401.263ZM336.343 397.158L335.659 400.77L343.828 397.849L343.85 396.618L336.343 397.158ZM245.507 398.829L246.459 400.037L248.862 396.832L242.786 392.953L245.507 398.829ZM293.304 370.565L293.303 370.562L243.302 392.075L249.829 396.242L257.168 399.283L296.076 376.208L293.4 370.522L293.304 370.565ZM449.229 375.367L492.859 397.724L510.29 369.547L462.329 354.419L449.229 375.367ZM98.3086 369.637L104.819 397.706L157.241 375.29L152.27 354.462L98.3086 369.637ZM344.869 396.483L344.852 397.482L348.37 396.225L349.995 395.393L344.869 396.483ZM328.401 395.608L335.501 396.134L343.497 353.826L328.401 395.608ZM344.569 353.637L336.539 396.122L343.867 395.595L344.569 353.637ZM320.673 393.92L327.369 395.471L342.404 353.859L320.673 393.92ZM344.954 391.443L344.887 395.437L352.252 393.868L345.592 353.339L344.954 391.443ZM242.786 395.38L241.597 392.81L241.503 392.852L241.385 392.378L240.879 391.736L238.934 390.494L242.786 395.38ZM441.31 377.571L441.397 377.6L441.069 378.121L440.718 378.926L440.638 378.811L432.414 391.944L432.49 391.983L432.101 392.446L431.874 392.809L431.871 392.807L431.715 393.059L431.655 392.974L430.515 394.327L431.458 395.046L447.701 375.73L443.137 373.393L441.31 377.571ZM158.515 375.856L167.225 395.033L216.441 366.039L210.674 353.543L158.515 375.856ZM429.704 393.709L430.889 392.303L421.604 387.53L429.704 393.709ZM313.551 391.09L319.679 393.619L341.317 353.728L313.551 391.09ZM353.109 392.809L353.236 393.581L354.228 393.226L360.157 390.189L346.56 352.955L353.109 392.809ZM291.376 363.427L291.375 363.424L238.929 378.255L242.179 391.358L242.264 391.413L292.985 369.589L293.048 369.562L291.477 363.397L291.376 363.427ZM431.667 391.219L439.836 378.172L417.604 371.137L431.667 391.219ZM393.586 366.158L417.008 384.024L430.097 390.752L416.007 370.631L395.341 364.091L393.586 366.158ZM307.204 387.184L312.622 390.63L340.295 353.396L307.204 387.184ZM208.44 340.616L211.396 352.649L240.789 389.977L237.948 378.528L237.846 378.558L237.817 378.092L208.44 340.616ZM361.07 389.722L364.433 388.001L367.541 385.86L347.476 352.492L361.07 389.722ZM217.534 365.975L229.177 380.723L236.987 388.045L238.969 389.31L213.199 356.582L217.534 365.975ZM235.576 388.83L235.942 388.46L233.411 386.087L235.576 388.83ZM365.619 388.421L368.268 387.067L368.067 386.735L365.619 388.421ZM301.801 382.302L306.386 386.564L339.405 352.849L301.801 382.302ZM368.907 386.158L369.142 386.547L375.489 382.178L375.184 381.837L368.907 386.158ZM368.381 385.282L374.496 381.073L348.359 351.986L368.381 385.282ZM511.758 368.94L559.923 384.134L575.634 346.993L524.463 339.363L511.758 368.94ZM95.9082 339.406L95.8018 339.422L41.6973 347.055L43.0498 384.122L97.1758 368.897L95.9082 339.406ZM376.029 381.255L376.294 381.549L378.521 379.541L376.029 381.255ZM297.475 376.562L301.119 381.542L338.672 352.13L297.475 376.562ZM399.833 375.196L411.859 381.378L395.202 368.672L399.833 375.196ZM375.343 380.49L379.25 377.801L381.309 375.947L349.201 351.399L375.343 380.49ZM290.775 355.905V355.904L237.966 363.392L238.787 377.234L291.307 362.383L290.88 355.89L290.775 355.905ZM416.642 369.762L439.35 376.948L433.46 368.436L414.063 358.5L408.135 357.613L416.642 369.762ZM440.517 376.842L442.229 372.927L435.382 369.42L440.517 376.842ZM207.88 338.255L237.712 376.309L236.953 363.535L236.849 363.551L236.898 363.105L207.132 324.896L207.88 338.255ZM294.336 370.12L296.955 375.686L338.113 351.276L294.336 370.12ZM382.082 375.251L386.279 371.471L387.519 370.01L350.019 350.738L382.082 375.251ZM447.791 362.521L447.888 362.535L447.733 362.886L447.734 362.888L447.637 363.109L447.365 364.148L447.254 363.984L443.546 372.458L448.32 374.903L461.327 354.103L450.862 350.802L447.791 362.521ZM153.25 354.185L158.19 374.883L210.246 352.613L208.658 349.172L209.873 350.716L207.012 339.068L153.25 354.185ZM389.538 369.906L397.869 374.188L392.768 366.998L389.538 369.906ZM434.156 367.647L442.638 371.992L446.423 363.345L429.418 360.799L434.156 367.647ZM396.056 363.247L415.044 369.256L406.746 357.405L401.656 356.645L396.056 363.247ZM388.142 369.185L392.03 363.044L350.791 349.991L388.142 369.185ZM292.458 363.121L293.994 369.153L337.808 350.296L292.458 363.121ZM462.8 353.499L510.78 368.633L523.421 339.21L472.349 331.598L462.8 353.499ZM96.9219 339.265L98.1826 368.614L152.033 353.471L152.112 353.447L151.032 331.639L96.9219 339.265ZM390.048 368.076L392.495 365.872L394.289 363.758L393.096 363.381L393.035 363.362L390.048 368.076ZM432.234 366.664L428.034 360.592L417.22 358.973L432.234 366.664ZM393.524 362.413L393.511 362.442L395.004 362.915L400.473 356.467L396.494 355.872L396.429 355.863L393.524 362.413ZM239.651 348.197L238.011 362.354L290.89 354.858L290.906 354.715L291.62 348.192L239.651 348.197ZM420.693 348.188L428.624 359.651L446.074 362.263L436.441 348.187L420.693 348.188ZM392.535 362.134L395.384 355.708L351.473 349.139L392.535 362.134ZM291.891 355.751L292.309 362.105L337.789 349.244L291.891 355.751ZM437.676 348.187L446.946 361.734L449.89 350.495L442.562 348.186L437.676 348.187ZM207.062 323.149L237.066 361.663L238.626 348.198L238.523 348.199L238.638 347.796L208.748 309.118L207.062 323.149ZM404.918 352.672L414.383 357.52L427.24 359.444L419.453 348.188H407.752L404.918 352.672ZM407.33 356.465L411.229 357.048L405.786 354.26L407.33 356.465ZM402.431 355.731L405.941 356.257L404.152 353.702L402.431 355.731ZM398.555 348.191L396.76 354.884L401.247 355.555L403.773 352.575L406.548 348.189L398.555 348.191ZM395.747 354.732L397.503 348.188H352.015L395.747 354.732ZM291.929 354.715L337.967 348.188H292.645L291.929 354.715ZM453.004 331.881L453.107 331.867L453.053 332.461L453.088 332.875L453.215 334.368L452.919 333.928L451.715 347.164H451.816L451.706 347.578L451.708 347.58L451.659 347.766L451.622 348.186H451.621L451.534 349.137L451.365 348.887L451.121 349.814L461.824 353.19L471.307 331.438L452.731 328.672L453.004 331.881ZM152.044 331.493L153.117 353.164L206.769 338.078L206.324 336.266L206.782 336.852L206.055 323.874L152.044 331.493ZM450.149 349.508L450.496 348.186H445.955L450.149 349.508ZM239.874 347.178L291.731 347.172H291.802L293.68 340.492L243.932 333.044L239.874 347.178ZM352.421 347.17H397.704L398.123 342.862L398.337 340.661L352.421 347.17ZM399.374 340.517L398.726 347.17L407.193 347.168L412.587 338.641L399.374 340.517ZM292.861 347.168H338.335L300.289 341.475L294.695 340.638L292.861 347.168ZM408.398 347.167H418.746L413.341 339.353L408.398 347.167ZM419.986 347.166L435.742 347.165L434.756 345.723L414.589 339.363L419.986 347.166ZM436.977 347.165L439.323 347.164L436.328 346.219L436.977 347.165ZM429.502 336.242L435.396 344.855L442.716 347.164H450.197L441.631 334.521L429.502 336.242ZM213.099 293.519L208.952 307.718L238.986 346.581L242.917 332.889L242.819 332.875L242.974 332.539L213.099 293.519ZM295.071 339.666L338.899 346.223L324.047 341.521L297.987 333.272L295.071 339.666ZM442.751 334.362L450.779 346.21L451.978 333.055L442.751 334.362ZM352.595 346.113L398.36 339.626L397.868 333.308L352.595 346.113ZM41.7686 346.018L46.4131 345.362L95.9404 338.374L99.9277 308.339H47.0088L41.7686 346.018ZM524.782 338.381L575.976 346.014L585.31 308.317H532.417L524.782 338.381ZM298.502 332.368L339.553 345.362L302.433 326.29L298.502 332.368ZM352.513 345.079L363.312 342.025L397.705 332.297L396.098 326.32L352.513 345.079ZM303.064 325.468L340.321 344.609L307.919 319.844L303.064 325.468ZM414.725 338.337L433.822 344.359L428.378 336.401L414.725 338.337ZM352.218 344.098L378.077 332.969L395.747 325.363L393.083 319.861L352.218 344.098ZM308.646 319.118L341.149 343.962L314.303 314.089L308.646 319.118ZM315.114 313.467L341.997 343.381L321.432 309.18L315.114 313.467ZM351.704 343.216L392.55 318.99L388.886 314.094L351.704 343.216ZM322.309 308.658L342.875 342.862L329.123 305.207L322.309 308.658ZM350.966 342.498L388.192 313.341L383.614 309.155L350.966 342.498ZM330.062 304.806L343.794 342.406L337.198 302.285L330.062 304.806ZM338.183 302.001L344.764 342.025L345.46 300.467L338.183 302.001ZM350.071 341.951L382.788 308.539L377.407 305.175L350.071 341.951ZM346.48 300.309L345.786 341.726L352.873 304.244L353.714 299.796L346.48 300.309ZM349.045 341.62L376.473 304.72L370.404 302.246L349.045 341.62ZM346.86 341.521L361.755 300.294L354.752 299.783L346.86 341.521ZM347.958 341.483L369.405 301.947L362.789 300.432L347.958 341.483ZM244.577 331.498L244.312 332.07L293.958 339.503L293.959 339.5L294.021 339.509L297.008 332.968L250.685 318.304L244.577 331.498ZM398.947 333L398.948 333.002L398.867 333.024L399.37 339.483L399.475 339.469H399.474L413.166 337.525L417.488 327.756L398.947 333ZM478.552 308.321H478.477L472.673 330.612L523.771 338.23L531.367 308.315H478.553L478.552 308.321ZM96.9863 338.228L150.982 330.616V330.615L151.058 330.604L151.517 326.974L153.871 308.342L153.767 308.343L153.769 308.337H100.954L96.9863 338.228ZM418.762 327.396L414.354 337.356L427.732 335.459L421.656 326.578L418.762 327.396ZM422.689 326.286L428.857 335.3L440.991 333.579L435.975 326.176L427.525 324.918L422.689 326.286ZM441.171 332.031L442.112 333.42L451.666 332.065L449.011 328.117L437.342 326.38L441.171 332.031ZM251.204 317.399L297.434 332.033L297.436 332.031L297.493 332.049L301.52 325.823L259.73 304.348L251.204 317.399ZM397.125 325.875L397.126 325.877L397.042 325.912L398.684 332.017L418.023 326.547L419.206 323.874L419.538 323.123L421.615 315.335L397.125 325.875ZM213.484 292.347L243.457 331.493L249.706 317.994L249.619 317.967L249.788 317.705L220.018 278.41L213.484 292.347ZM451.87 330.546L451.697 328.518L450.374 328.32L451.87 330.546ZM449.241 308.324L451.644 317.044L451.745 317.016L451.792 317.586L452.615 320.572L451.963 319.596L452.644 327.629L471.661 330.462L477.424 308.321L449.241 308.324ZM154.896 308.341L152.102 330.457L205.996 322.854L205.934 321.703L206.174 322.013L207.816 308.335L154.896 308.341ZM444.802 320.034L449.604 327.177L451.609 327.476L450.835 318.33L444.802 320.034ZM434.933 322.824L436.566 325.234L448.241 326.974L443.771 320.326L434.933 322.824ZM419.297 326.187L421.049 325.691L420.118 324.331L419.297 326.187ZM422.082 325.399L425.073 324.553L421.098 323.96L422.082 325.399ZM429.911 324.243L435.199 325.031L433.901 323.116L429.911 324.243ZM260.366 303.525L302.077 324.961H302.078L302.132 324.988L307.106 319.223L307.048 319.178L307.049 319.176L270.836 291.489L260.366 303.525ZM393.961 319.339L396.683 324.958L421.95 314.083L422.115 313.464L423.646 307.723L424.247 301.372L393.961 319.339ZM422.807 314.822L420.661 322.866L427.459 323.878L433.3 322.228L427.046 312.999L422.807 314.822ZM427.997 312.59L434.331 321.937L443.174 319.437L436.196 309.062L427.997 312.59ZM437.905 308.326L437.147 308.652L444.204 319.146L450.476 317.372L444.427 308.325L437.905 308.326ZM271.566 290.769L307.822 318.486L313.621 313.331L313.577 313.281L313.578 313.28L283.717 280.057L271.566 290.769ZM389.768 313.402L389.769 313.403L389.688 313.464L393.433 318.467L424.365 300.117L425.096 292.4L424.58 286.13L389.768 313.402ZM220.538 277.406L250.381 316.795L258.82 303.874L258.745 303.836L258.899 303.657L229.298 264.13L220.538 277.406ZM445.65 308.325L449.963 314.774L448.186 308.324L445.65 308.325ZM423.141 313.57L426.465 312.141L424.354 309.025L423.141 313.57ZM384.326 308.428L389.005 312.705L389.078 312.648L389.079 312.649L424.48 284.914L424.419 284.163L423.871 277.51L421.972 270.545L421.685 270.285L384.326 308.428ZM284.529 279.437L314.428 312.701L320.906 308.306L298.06 270.31L284.529 279.437ZM425.109 308.327L427.416 311.731L435.328 308.326L425.109 308.327ZM409.179 262.42L378.073 304.274L378.076 304.275L378.016 304.354L383.519 307.795L420.856 269.674L409.179 262.42ZM298.938 269.794L321.781 307.784L323.354 306.987L328.771 304.244L328.752 304.19L328.753 304.189L313.514 262.456L298.938 269.794ZM47.2578 307.32H100.132L109.227 277.478L58.8789 269.97L47.2578 307.32ZM101.195 307.319H154.001L154.07 307.318L160.687 285.143L110.245 277.627L101.195 307.319ZM155.133 307.318L207.938 307.312L208.033 306.531L208.182 306.724L212.239 292.83L161.703 285.3L155.133 307.318ZM425.329 300.729L424.707 307.303L435.013 307.302L429.093 298.498L425.329 300.729ZM429.97 297.978L436.238 307.302H437.71L442.395 305.286L435.367 294.776L429.97 297.978ZM440.285 307.301H443.741L442.971 306.147L440.285 307.301ZM443.921 305.738L444.966 307.301L447.904 307.3L447.098 304.372L443.921 305.738ZM441.632 290.659L441.843 290.938L441.759 290.987L447.676 303.016L447.77 302.977L447.912 303.495L448.126 303.93L448.041 303.965L448.959 307.3L477.619 307.297L478.373 298.761L479.558 285.311L441.632 290.659ZM480.671 285.151L480.672 285.153L480.594 285.163L478.642 307.297H531.554L532.789 292.229L533.984 277.632L480.671 285.151ZM535.017 277.488L532.6 306.987L532.574 307.297H585.488L588.313 269.976L535.017 277.488ZM436.243 294.256L443.345 304.877L446.67 303.448L439.33 292.427L436.243 294.256ZM370.895 301.342L377.104 303.873L408.246 261.968L395.134 256.654L370.895 301.342ZM314.449 262.051L329.688 303.781L329.712 303.846L337.029 301.26L329.704 256.697L314.449 262.051ZM229.928 263.271L259.584 302.869L270.024 290.869L269.964 290.823L270.075 290.724L240.692 251.011L229.928 263.271ZM363.17 299.377L363.171 299.378L363.139 299.463L369.911 301.015L394.133 256.36L379.882 253.121L363.17 299.377ZM330.69 256.42L338.018 300.99L345.478 299.418L345.763 282.397L346.253 253.155L330.69 256.42ZM425.448 299.475L428.523 297.651L425.979 293.868L425.448 299.475ZM354.941 298.776L362.114 299.3L362.139 299.234H362.141L378.85 252.983L363.804 251.892L354.941 298.776ZM347.273 252.997L346.498 299.287L353.909 298.761L362.766 251.904L347.273 252.997ZM426.484 292.795L429.4 297.131L434.8 293.928L433.391 291.821L426.484 292.795ZM440.205 291.908L443.537 296.911L440.879 291.508L440.205 291.908ZM434.51 291.663L435.676 293.407L438.765 291.577L438.451 291.107L434.51 291.663ZM162.174 284.163L162.097 284.324L212.53 291.839L212.687 291.305L212.786 291.436L219.205 277.739L172.261 262.936L162.174 284.163ZM425.54 285.379L426.07 291.825L432.763 290.882L427.865 283.557L425.54 285.379ZM439.566 290.95L439.639 291.059L439.896 290.903L439.566 290.95ZM428.669 282.927L433.882 290.724L437.826 290.168L431.519 280.696L428.669 282.927ZM241.415 250.274L270.841 290.047L283.035 279.299L282.989 279.248L283.035 279.216L253.912 239.341L241.415 250.274ZM432.319 280.068L438.94 290.011L439.776 289.893L432.337 280.056L432.319 280.068ZM431.784 275.868L440.996 289.721L479.573 284.281L477.684 262.959L431.784 275.868ZM117.378 262.678L110.738 276.464L110.645 276.657L161.045 284.166L171.28 262.626L171.194 262.6L171.196 262.594L124.511 247.867L117.378 262.678ZM425.439 284.163L427.298 282.707L425.043 279.335L425.439 284.163ZM478.681 262.678L480.581 284.133L533.99 276.602L532.66 262.586L531.265 247.895L478.681 262.678ZM425.189 277.724L428.101 282.077L430.952 279.846L428.997 276.91L428.78 276.714L425.189 277.724ZM254.718 238.719L283.88 278.646L297.5 269.459L288.298 256.697L268.62 229.407L254.718 238.719ZM172.794 262.032L219.644 276.807L219.811 276.453L219.882 276.548L228.53 263.44L225.818 262.051L186.286 241.796L172.794 262.032ZM424.731 276.792L427.887 275.904L423.373 271.814L424.731 276.792ZM59.2842 269.001L109.526 276.492H109.527L109.59 276.501L121.316 252.156L123.529 247.561L76.9268 232.866L59.2842 269.001ZM532.261 247.616L534.998 276.459L535.103 276.445L535.102 276.446L588.312 268.945L584.643 232.885L532.261 247.616ZM423.034 262.711L431.189 274.975L477.509 261.947L471.88 241.814L423.034 262.711ZM422.874 269.986L426.687 273.44L421.825 266.141L422.874 269.986ZM284.464 221.424L269.508 228.899L298.344 268.89L298.379 268.867L298.409 268.919L313.033 261.554L284.464 221.424ZM421.314 268.139L420.028 263.422L416.635 256.515L404.926 238.919L397.08 231.824L421.314 268.139ZM409.381 261.325L409.851 261.517L409.787 261.601L419.932 267.9L394.021 229.077L383.306 222.438L409.381 261.325ZM186.93 240.981L229.095 262.586L229.245 262.359L229.304 262.438L239.983 250.273L203.406 222.367L186.93 240.981ZM414.814 250.352L422.46 261.847L471.518 240.862L464.62 227.035L462.298 222.382L414.814 250.352ZM125.286 246.613L125.046 246.97L171.782 261.712L185.371 241.326L185.299 241.289L185.3 241.286L143.35 219.796L125.286 246.613ZM472.909 241.374L472.91 241.375L472.825 241.41L478.49 261.673L531.084 246.888L525.974 229.077L523.314 219.811L472.909 241.374ZM285.434 221.027L313.955 261.091L314.075 261.031L314.098 261.095L329.305 255.758L328.936 255.232L301.055 215.573L285.434 221.027ZM395.213 255.562L395.671 255.667L395.624 255.752L407.698 260.644L386.532 229.077L381.235 221.178L368.544 216.062L395.213 255.562ZM317.996 211.992L302.111 215.307L330.303 255.408L330.513 255.336L330.524 255.41L345.917 252.182L320.299 215.307L317.996 211.992ZM379.838 252.034L380.263 252.065L380.229 252.156L393.763 255.232L366.884 215.422L352.738 212.212L379.838 252.034ZM319.153 211.875L347.001 251.959L347.291 251.898L347.289 251.974L362.465 250.904L362.391 250.797L334.882 210.771L319.153 211.875ZM363.643 250.821L364.011 250.797L363.993 250.884L378.542 251.938L351.303 211.915L336.153 210.823L363.643 250.821ZM406.021 238.673L414.225 249.514L461.754 221.517L449.201 205.107L406.021 238.673ZM204.144 221.649L240.658 249.508L240.762 249.391L240.808 249.453L253.271 238.547L223.191 205.11L204.144 221.649ZM77.4678 231.97L123.976 246.634L123.977 246.633L124.033 246.65L142.436 219.331L100.636 197.911L77.4678 231.97ZM524.258 219.408L532.063 246.613L584.454 231.879L574.492 197.925L524.258 219.408ZM144.002 218.983L185.997 240.498L202.595 221.746L202.533 221.699V221.698L166.27 194.036L144.002 218.983ZM463.177 221.864L472.455 240.462L522.944 218.86L510.389 194.046L463.177 221.864ZM395.119 228.681L405.334 237.917L448.5 204.36L432.921 190.396L395.119 228.681ZM224.008 204.495L254.038 237.877L254.077 237.844L254.114 237.896L268.023 228.581L267.983 228.524L268.027 228.502L245.153 190.422L224.008 204.495ZM246.036 189.914L268.939 228.044L283.869 220.584L283.819 220.514L283.972 220.46L268.763 178.62L246.036 189.914ZM382.313 220.625L392.66 227.035L391.688 225.578L394.362 227.999L432.087 189.792L431.89 189.671L413.855 178.578L382.313 220.625ZM167.01 193.319L203.318 221.016L222.51 204.352L222.464 204.3L192.68 171.193L167.01 193.319ZM450.009 204.483L462.641 220.997L509.842 193.186L492.822 171.187L450.009 204.483ZM269.702 178.223L284.934 220.124L300.446 214.707L300.39 214.626L300.67 214.567L293.457 169.979L269.702 178.223ZM367.913 214.707L380.225 219.671L379.838 219.094L381.438 220.091L412.917 178.13L392.463 169.933L367.913 214.707ZM101.295 197.102L143.01 218.478L143.012 218.477L143.063 218.503L165.455 193.419L129.379 165.901L101.295 197.102ZM511.269 193.528L523.884 218.461L574.116 196.979L558.158 165.907L511.269 193.528ZM294.441 169.695L301.667 214.357L317.365 211.085L317.293 210.98L317.722 210.949L318.645 165.338L318.658 164.676L294.441 169.695ZM352.264 211.056L366.047 214.183L365.84 213.875L366.961 214.326L391.463 169.64L369.272 164.646L352.264 211.056ZM319.68 164.528L318.741 210.878L334.211 209.793L334.117 209.656L334.721 209.699L343.779 162.849L319.68 164.528ZM335.744 209.772L350.571 210.842L350.44 210.648L351.263 210.834L368.24 164.507L344.819 162.828L335.744 209.772ZM193.501 170.585L223.319 203.729L244.627 189.547L244.596 189.494V189.493L221.938 151.773L193.501 170.585ZM433.71 189.597L433.712 189.598L433.639 189.671L449.318 203.726L492.114 170.441L471.078 151.749L433.71 189.597ZM130.124 165.184L166.183 192.689L191.996 170.439L162.41 137.553L130.124 165.184ZM493.857 170.382L493.626 170.562L510.727 192.664L510.808 192.617V192.618L557.606 165.051L536.098 137.542L493.857 170.382ZM414.469 177.762L432.818 189.048L470.239 151.147L445.68 136.156L414.469 177.762ZM222.821 151.266L245.51 189.038L268.411 177.657L253.338 136.195L222.821 151.266ZM392.96 169.03L413.554 177.282L444.742 135.709L417.246 124.762L392.96 169.03ZM254.278 135.802L269.329 177.203H269.33L269.352 177.263L293.291 168.955L286.149 124.801L254.278 135.802ZM163.237 136.944L192.81 169.816L221.41 150.899L198.935 113.479L163.237 136.944ZM471.798 151.022L492.937 169.808L535.388 136.806L508.886 113.453L471.798 151.022ZM369.629 163.679L391.974 168.707L392.007 168.648H392.009L416.244 124.471L386.439 117.797L369.629 163.679ZM287.135 124.517L294.279 168.688L318.679 163.631L319.604 117.831L287.135 124.517ZM345.028 161.742H345.03L345.015 161.822L347.446 161.997L368.604 163.513L385.404 117.661L353.986 115.426L345.028 161.742ZM320.627 117.681L319.699 163.5L343.98 161.808L352.947 115.438L320.627 117.681ZM446.295 135.338L470.976 150.401L471.033 150.344L471.035 150.346L508.046 112.855L477.183 94.1592L446.295 135.338ZM199.819 112.969L222.295 150.389L252.987 135.23L238.07 94.1934L199.819 112.969ZM417.739 123.862L445.375 134.865L445.421 134.805H445.422L476.245 93.7129L441.756 80.0654L417.739 123.862ZM239.013 93.8037L253.932 134.845L285.984 123.78L278.92 80.1113L239.013 93.8037ZM386.794 116.833L416.754 123.541L440.754 79.7764L403.416 71.4746L386.794 116.833ZM279.905 79.8301L286.971 123.511L319.627 116.788L320.544 71.501L279.905 79.8301ZM354.182 114.416L385.771 116.664L402.381 71.3408L363.047 68.5469L354.182 114.416ZM321.565 71.3545L320.647 116.658L353.148 114.4L362.009 68.5586L321.565 71.3545Z" fill="white"/>
</g>
<defs>
<clipPath id="clip0_127_36683">
<rect width="548.85" height="495.095" fill="white" transform="translate(40.5752 67.4531)"/>
</clipPath>
</defs>
</svg>
