<svg width="801" height="612" viewBox="0 0 801 612" fill="none" xmlns="http://www.w3.org/2000/svg">
<g clip-path="url(#clip0_397_32048)">
<path d="M208.14 305.852C208.14 200.019 294.282 113.876 400.115 113.876C505.948 113.876 592.091 200.019 592.091 305.852C592.091 411.685 505.948 497.827 400.115 497.827C294.282 497.827 208.14 411.685 208.14 305.852ZM277.505 305.852C277.505 373.478 332.536 428.509 400.162 428.509C467.788 428.509 522.82 373.478 522.82 305.852C522.82 238.226 467.788 183.194 400.162 183.194C332.536 183.194 277.505 238.226 277.505 305.852ZM158.701 405.858L94.6461 432.41C128.201 513.148 192.866 577.766 273.604 611.368L300.156 547.313C236.384 520.808 185.253 469.677 158.748 405.905L158.701 405.858ZM94.6461 179.341L158.701 205.893C185.206 142.12 236.337 90.9896 300.109 64.4843L273.604 0.382812C192.866 33.9374 128.248 98.6029 94.6461 179.341ZM500.121 547.266L526.673 611.321C607.411 577.766 672.03 513.101 705.631 432.363L641.577 405.811C615.071 469.583 563.941 520.714 500.168 547.219L500.121 547.266ZM641.53 205.846L705.584 179.294C672.03 98.6029 607.364 33.9374 526.673 0.382812L500.121 64.4373C563.894 90.9426 615.024 142.073 641.53 205.846ZM0.138672 305.852C0.138672 360.037 10.9946 411.732 30.5916 458.915L94.6461 432.363C78.4327 393.357 69.4566 350.638 69.4566 305.852C69.4566 261.065 78.4327 218.3 94.6461 179.341L30.5916 152.788C10.9946 199.972 0.138672 251.666 0.138672 305.852ZM705.584 432.363L769.639 458.915C789.236 411.732 800.092 360.037 800.092 305.852C800.092 251.666 789.236 199.972 769.639 152.788L705.584 179.341C721.798 218.347 730.774 261.065 730.774 305.852C730.774 350.638 721.798 393.404 705.584 432.363Z" fill="#3E3E3E"/>
</g>
<defs>
<clipPath id="clip0_397_32048">
<rect width="800" height="610.938" fill="white" transform="translate(0.138672 0.382812)"/>
</clipPath>
</defs>
</svg>
