<svg width="801" height="611" viewBox="0 0 801 611" fill="none" xmlns="http://www.w3.org/2000/svg">
<g clip-path="url(#clip0_397_32043)">
<path d="M208.14 305.469C208.14 199.636 294.282 113.494 400.115 113.494C505.948 113.494 592.091 199.636 592.091 305.469C592.091 411.302 505.948 497.445 400.115 497.445C294.282 497.445 208.14 411.302 208.14 305.469ZM277.505 305.469C277.505 373.095 332.536 428.127 400.162 428.127C467.788 428.127 522.82 373.095 522.82 305.469C522.82 237.843 467.788 182.811 400.162 182.811C332.536 182.811 277.505 237.843 277.505 305.469ZM158.701 405.475L94.6461 432.027C128.201 512.765 192.866 577.383 273.604 610.985L300.156 546.931C236.384 520.425 185.253 469.294 158.748 405.522L158.701 405.475ZM94.6461 178.958L158.701 205.51C185.206 141.738 236.337 90.6068 300.109 64.1015L273.604 0C192.866 33.5546 128.248 98.2201 94.6461 178.958ZM500.121 546.884L526.673 610.938C607.411 577.384 672.03 512.718 705.631 431.98L641.577 405.428C615.071 469.2 563.941 520.331 500.168 546.837L500.121 546.884ZM641.53 205.463L705.584 178.911C672.03 98.22 607.364 33.5546 526.673 0L500.121 64.0545C563.894 90.5598 615.024 141.691 641.53 205.463ZM0.138672 305.469C0.138672 359.655 10.9946 411.349 30.5916 458.533L94.6461 431.98C78.4327 392.974 69.4566 350.256 69.4566 305.469C69.4566 260.683 78.4327 217.917 94.6461 178.958L30.5916 152.406C10.9946 199.589 0.138672 251.284 0.138672 305.469ZM705.584 431.98L769.639 458.533C789.236 411.349 800.092 359.655 800.092 305.469C800.092 251.284 789.236 199.589 769.639 152.406L705.584 178.958C721.798 217.964 730.774 260.683 730.774 305.469C730.774 350.256 721.798 393.021 705.584 431.98Z" fill="#343434"/>
</g>
<defs>
<clipPath id="clip0_397_32043">
<rect width="800" height="610.938" fill="white" transform="translate(0.138672)"/>
</clipPath>
</defs>
</svg>
