<svg width="88" height="88" viewBox="0 0 88 88" fill="none" xmlns="http://www.w3.org/2000/svg">
<path d="M44.0859 0.808594C68.0251 0.808594 87.4316 20.2151 87.4316 44.1543C87.4316 68.0935 68.0251 87.5 44.0859 87.5C20.1468 87.5 0.740234 68.0935 0.740234 44.1543C0.740234 20.2151 20.1468 0.808594 44.0859 0.808594Z" stroke="white"/>
<path d="M69.792 32.541L44.0859 47L18.3789 32.541L44.0859 18.0811L69.792 32.541Z" stroke="white"/>
<path d="M69.792 44.1548L44.0859 58.6138L18.3789 44.1548L44.0859 29.6948L69.792 44.1548Z" stroke="white"/>
<path d="M69.792 55.7666L44.0859 70.2256L18.3789 55.7666L44.0859 41.3066L69.792 55.7666Z" stroke="white"/>
<path opacity="0.5" d="M44.084 18.3037V70.0049" stroke="white"/>
</svg>
