<svg width="801" height="611" viewBox="0 0 801 611" fill="none" xmlns="http://www.w3.org/2000/svg">
<g clip-path="url(#clip0_397_32040)">
<g opacity="0.2">
<path d="M208.14 305.487C208.14 199.653 294.282 113.511 400.115 113.511C505.948 113.511 592.091 199.653 592.091 305.487C592.091 411.32 505.948 497.462 400.115 497.462C294.282 497.462 208.14 411.32 208.14 305.487ZM277.505 305.487C277.505 373.113 332.536 428.144 400.162 428.144C467.788 428.144 522.82 373.113 522.82 305.487C522.82 237.86 467.788 182.829 400.162 182.829C332.536 182.829 277.505 237.86 277.505 305.487ZM158.701 405.492L94.6461 432.045C128.201 512.783 192.866 577.401 273.604 611.003L300.156 546.948C236.384 520.443 185.253 469.312 158.748 405.54L158.701 405.492ZM94.6461 178.975L158.701 205.528C185.206 141.755 236.337 90.6244 300.109 64.1191L273.604 0.0175781C192.866 33.5722 128.248 98.2376 94.6461 178.975ZM500.121 546.901L526.673 610.956C607.411 577.401 672.03 512.736 705.631 431.998L641.577 405.445C615.071 469.218 563.941 520.349 500.168 546.854L500.121 546.901ZM641.53 205.481L705.584 178.928C672.03 98.2376 607.364 33.5722 526.673 0.0175781L500.121 64.0721C563.894 90.5774 615.024 141.708 641.53 205.481ZM0.138672 305.487C0.138672 359.672 10.9946 411.367 30.5916 458.55L94.6461 431.998C78.4327 392.992 69.4566 350.273 69.4566 305.487C69.4566 260.7 78.4327 217.935 94.6461 178.975L30.5916 152.423C10.9946 199.606 0.138672 251.301 0.138672 305.487ZM705.584 431.998L769.639 458.55C789.236 411.367 800.092 359.672 800.092 305.487C800.092 251.301 789.236 199.606 769.639 152.423L705.584 178.975C721.798 217.982 730.774 260.7 730.774 305.487C730.774 350.273 721.798 393.039 705.584 431.998Z" fill="white"/>
</g>
</g>
<defs>
<clipPath id="clip0_397_32040">
<rect width="800" height="610.938" fill="white" transform="translate(0.138672 0.0175781)"/>
</clipPath>
</defs>
</svg>
