<svg width="172" height="130" viewBox="0 0 172 130" fill="none" xmlns="http://www.w3.org/2000/svg">
<g clip-path="url(#clip0_305_77)">
<path d="M45.1899 65C45.1899 42.48 63.5199 24.15 86.0399 24.15C108.56 24.15 126.89 42.48 126.89 65C126.89 87.52 108.56 105.85 86.0399 105.85C63.5199 105.85 45.1899 87.52 45.1899 65ZM59.9499 65C59.9499 79.39 71.6599 91.1 86.0499 91.1C100.44 91.1 112.15 79.39 112.15 65C112.15 50.61 100.44 38.9 86.0499 38.9C71.6599 38.9 59.9499 50.61 59.9499 65ZM34.6699 86.28L21.0399 91.93C28.1799 109.11 41.9399 122.86 59.1199 130.01L64.7699 116.38C51.1999 110.74 40.3199 99.86 34.6799 86.29L34.6699 86.28ZM21.0399 38.08L34.6699 43.73C40.3099 30.16 51.1899 19.28 64.7599 13.64L59.1199 0C41.9399 7.14 28.1899 20.9 21.0399 38.08ZM107.32 116.37L112.97 130C130.15 122.86 143.9 109.1 151.05 91.92L137.42 86.27C131.78 99.84 120.9 110.72 107.33 116.36L107.32 116.37ZM137.41 43.72L151.04 38.07C143.9 20.9 130.14 7.14 112.97 0L107.32 13.63C120.89 19.27 131.77 30.15 137.41 43.72ZM0.929932 65C0.929932 76.53 3.23993 87.53 7.40993 97.57L21.0399 91.92C17.5899 83.62 15.6799 74.53 15.6799 65C15.6799 55.47 17.5899 46.37 21.0399 38.08L7.40993 32.43C3.23993 42.47 0.929932 53.47 0.929932 65ZM151.04 91.92L164.67 97.57C168.84 87.53 171.15 76.53 171.15 65C171.15 53.47 168.84 42.47 164.67 32.43L151.04 38.08C154.49 46.38 156.4 55.47 156.4 65C156.4 74.53 154.49 83.63 151.04 91.92Z" fill="white"/>
</g>
<defs>
<clipPath id="clip0_305_77">
<rect width="170.23" height="130" fill="white" transform="translate(0.929932)"/>
</clipPath>
</defs>
</svg>
