<svg width="576" height="132" viewBox="0 0 576 132" fill="none" xmlns="http://www.w3.org/2000/svg">
<g clip-path="url(#clip0_305_75)">
<path d="M336.62 46.865H350.93V105.535H336.62V95.635C331.41 102.925 323.64 106.955 316.11 106.955C299.83 106.955 287.56 93.715 287.56 76.195C287.56 57.195 301.34 45.435 316.11 45.435C325.51 45.435 332.23 50.135 336.62 56.755V46.855V46.865ZM336.77 76.205C336.77 66.055 329.22 58.485 319.12 58.485C309.02 58.485 301.34 66.415 301.34 76.205C301.34 85.995 308.42 93.925 319.12 93.925C328.94 93.925 336.77 86.565 336.77 76.205ZM399.38 45.445C388.95 45.445 381.82 51.025 379.1 56.355V46.865H364.79V105.535H379.1V73.665C379.1 64.735 384.74 55.925 393.36 55.925C401.98 55.925 406.14 61.635 406.14 71.255V105.525H420.45V68.675C420.45 52.565 411.33 45.425 399.37 45.425L399.38 45.445ZM446.93 33.125H432.62V88.555C432.62 102.195 439.35 105.545 449.78 105.545H462.78V92.805H446.93V59.615H462.78V46.875H446.93V33.135V33.125ZM574.56 45.445C563.34 45.445 558.27 51.465 555.9 57.865V46.865H541.59V105.535H555.9V74.145C555.9 65.585 561.24 59.435 570.91 59.435H575.99V45.455H574.55L574.56 45.445ZM531.93 76.205C531.93 94.155 518.01 106.965 500.61 106.965C483.21 106.965 469.29 93.345 469.29 76.205C469.29 59.065 482.81 45.445 500.61 45.445C518.41 45.445 531.93 58.225 531.93 76.205ZM518.22 76.215C518.22 66.005 510.69 58.485 500.61 58.485C490.53 58.485 483.09 65.695 483.09 76.215C483.09 86.735 490.49 93.925 500.61 93.925C510.73 93.925 518.22 85.995 518.22 76.215ZM290.73 23.045L263.15 105.545H247.95L274.75 23.045H290.72H290.73ZM205.07 23.045L232.76 105.545H247.96L221.16 23.045H205.08H205.07Z" fill="white"/>
<path d="M44.38 66.005C44.38 43.425 62.75 25.055 85.33 25.055C107.91 25.055 126.28 43.425 126.28 66.005C126.28 88.585 107.91 106.955 85.33 106.955C62.75 106.955 44.38 88.585 44.38 66.005ZM59.17 66.005C59.17 80.435 70.91 92.165 85.33 92.165C99.76 92.165 111.49 80.425 111.49 66.005C111.49 51.585 99.75 39.845 85.33 39.845C70.91 39.845 59.17 51.585 59.17 66.005ZM33.83 87.335L20.16 92.995C27.32 110.215 41.11 124.005 58.33 131.165L63.99 117.495C50.38 111.835 39.48 100.935 33.82 87.325L33.83 87.335ZM20.17 39.005L33.84 44.665C39.5 31.055 50.4 20.155 64.01 14.495L58.34 0.834991C41.12 7.99499 27.33 21.785 20.17 39.005ZM106.66 117.505L112.32 131.175C129.54 124.015 143.33 110.225 150.49 93.005L136.82 87.345C131.16 100.955 120.26 111.855 106.65 117.515L106.66 117.505ZM136.83 44.665L150.5 39.005C143.34 21.785 129.55 7.99499 112.32 0.834991L106.66 14.505C120.27 20.165 131.17 31.065 136.83 44.675V44.665ZM0 66.005C0 77.565 2.32 88.595 6.5 98.655L20.17 92.995C16.71 84.675 14.8 75.555 14.8 66.005C14.8 56.455 16.71 47.335 20.17 39.015L6.5 33.355C2.32 43.415 0 54.445 0 66.005ZM150.5 92.995L164.17 98.655C168.35 88.595 170.67 77.565 170.67 66.005C170.67 54.445 168.35 43.415 164.17 33.355L150.5 39.015C153.96 47.335 155.87 56.455 155.87 66.005C155.87 75.565 153.96 84.675 150.5 92.995Z" fill="white"/>
</g>
<defs>
<clipPath id="clip0_305_75">
<rect width="576" height="130.33" fill="white" transform="translate(0 0.834991)"/>
</clipPath>
</defs>
</svg>
