<svg width="371" height="238" viewBox="0 0 371 238" fill="none" xmlns="http://www.w3.org/2000/svg">
<g clip-path="url(#clip0_305_76)">
<path d="M131.54 177.32H145.85V235.99H131.54V226.09C126.33 233.38 118.56 237.41 111.03 237.41C94.75 237.41 82.48 224.17 82.48 206.65C82.48 187.65 96.26 175.89 111.03 175.89C120.43 175.89 127.15 180.59 131.54 187.21V177.31V177.32ZM131.69 206.66C131.69 196.51 124.14 188.94 114.04 188.94C103.94 188.94 96.26 196.87 96.26 206.66C96.26 216.45 103.34 224.38 114.04 224.38C123.86 224.38 131.69 217.02 131.69 206.66ZM194.31 175.9C183.88 175.9 176.75 181.48 174.03 186.81V177.32H159.72V235.99H174.03V204.12C174.03 195.19 179.67 186.38 188.29 186.38C196.91 186.38 201.07 192.09 201.07 201.71V235.98H215.38V199.13C215.38 183.02 206.26 175.88 194.3 175.88L194.31 175.9ZM241.85 163.58H227.54V219.01C227.54 232.65 234.27 236 244.7 236H257.7V223.26H241.85V190.07H257.7V177.33H241.85V163.59V163.58ZM369.49 175.9C358.27 175.9 353.2 181.92 350.83 188.32V177.32H336.52V235.99H350.83V204.6C350.83 196.04 356.17 189.89 365.84 189.89H370.92V175.91H369.48L369.49 175.9ZM326.85 206.66C326.85 224.61 312.93 237.42 295.53 237.42C278.13 237.42 264.21 223.8 264.21 206.66C264.21 189.52 277.73 175.9 295.53 175.9C313.33 175.9 326.85 188.68 326.85 206.66ZM313.14 206.67C313.14 196.46 305.61 188.94 295.53 188.94C285.45 188.94 278.01 196.15 278.01 206.67C278.01 217.19 285.41 224.38 295.53 224.38C305.65 224.38 313.14 216.45 313.14 206.67ZM85.66 153.5L58.08 236H42.88L69.68 153.5H85.65H85.66ZM0 153.5L27.69 236H42.89L16.09 153.5H0Z" fill="white"/>
<path d="M144.51 65.76C144.51 43.18 162.88 24.81 185.46 24.81C208.04 24.81 226.41 43.18 226.41 65.76C226.41 88.34 208.04 106.71 185.46 106.71C162.88 106.71 144.51 88.34 144.51 65.76ZM159.3 65.76C159.3 80.19 171.04 91.92 185.46 91.92C199.89 91.92 211.62 80.18 211.62 65.76C211.62 51.34 199.88 39.6 185.46 39.6C171.04 39.6 159.3 51.34 159.3 65.76ZM133.96 87.09L120.29 92.75C127.45 109.97 141.24 123.76 158.46 130.92L164.12 117.25C150.51 111.59 139.61 100.69 133.95 87.08L133.96 87.09ZM120.3 38.76L133.97 44.42C139.63 30.81 150.53 19.91 164.14 14.25L158.48 0.580002C141.26 7.74 127.47 21.53 120.31 38.75L120.3 38.76ZM206.79 117.26L212.45 130.93C229.67 123.77 243.46 109.98 250.62 92.76L236.95 87.1C231.29 100.71 220.39 111.61 206.78 117.27L206.79 117.26ZM236.96 44.42L250.63 38.76C243.47 21.54 229.68 7.75 212.46 0.590002L206.8 14.26C220.41 19.92 231.31 30.82 236.97 44.43L236.96 44.42ZM100.13 65.76C100.13 77.32 102.45 88.35 106.63 98.41L120.3 92.75C116.84 84.43 114.93 75.31 114.93 65.76C114.93 56.21 116.84 47.09 120.3 38.77L106.63 33.11C102.45 43.17 100.13 54.2 100.13 65.76ZM250.63 92.75L264.3 98.41C268.48 88.35 270.8 77.32 270.8 65.76C270.8 54.2 268.48 43.17 264.3 33.11L250.63 38.77C254.09 47.09 256 56.21 256 65.76C256 75.32 254.09 84.43 250.63 92.75Z" fill="white"/>
</g>
<defs>
<clipPath id="clip0_305_76">
<rect width="370.93" height="236.82" fill="white" transform="translate(0 0.589996)"/>
</clipPath>
</defs>
</svg>
