<svg width="129" height="129" viewBox="0 0 129 129" fill="none" xmlns="http://www.w3.org/2000/svg">
<rect width="128" height="128" transform="translate(0.183594 0.651367)" fill="#8E0DD1"/>
<path d="M37.8449 64.6513C37.8449 50.1286 49.66 38.3135 64.1827 38.3135C78.7055 38.3135 90.5206 50.1286 90.5206 64.6513C90.5206 79.174 78.7055 90.9891 64.1827 90.9891C49.66 90.9891 37.8449 79.174 37.8449 64.6513ZM47.3577 64.6513C47.3577 73.9287 54.9053 81.4764 64.1827 81.4764C73.4601 81.4764 81.0078 73.9287 81.0078 64.6513C81.0078 55.3739 73.4601 47.8262 64.1827 47.8262C54.9053 47.8262 47.3577 55.3739 47.3577 64.6513ZM31.0628 78.37L22.2746 82.0102C26.879 93.0849 35.7492 101.955 46.8238 106.559L50.464 97.7712C41.7117 94.1324 34.7016 87.1223 31.0628 78.37ZM22.2746 47.2924L31.0628 50.9326C34.7016 42.1803 41.7117 35.1702 50.464 31.5314L46.8238 22.7432C35.7492 27.3475 26.879 36.2177 22.2746 47.2924ZM77.9015 97.7712L81.5416 106.559C92.6163 101.955 101.487 93.0849 106.091 82.0102L97.3026 78.3701C93.6639 87.1223 86.6537 94.1324 77.9015 97.7712ZM97.3026 50.9326L106.091 47.2924C101.487 36.2177 92.6163 27.3476 81.5416 22.7432L77.9014 31.5314C86.6537 35.1702 93.6639 42.1803 97.3026 50.9326ZM9.30664 64.6513C9.30664 72.0859 10.7957 79.1784 13.4865 85.6504L22.2746 82.0102C20.0503 76.6601 18.8194 70.7971 18.8194 64.6513C18.8194 58.5055 20.0503 52.6425 22.2746 47.2924L13.4865 43.6522C10.7957 50.1242 9.30664 57.2167 9.30664 64.6513ZM106.091 82.0102L114.879 85.6504C117.57 79.1784 119.059 72.0859 119.059 64.6513C119.059 57.2167 117.57 50.1242 114.879 43.6522L106.091 47.2924C108.315 52.6425 109.546 58.5055 109.546 64.6513C109.546 70.7971 108.315 76.6601 106.091 82.0102Z" fill="white"/>
</svg>
