<svg width="26" height="25" viewBox="0 0 26 25" fill="none" xmlns="http://www.w3.org/2000/svg">
<circle cx="12.75" cy="12.5" r="10.7557" stroke="#B2B2B2" stroke-width="1.41837"/>
<circle cx="12.75" cy="12.5" r="10.7557" stroke="#B2B2B2" stroke-width="1.41837"/>
<circle cx="12.75" cy="12.5" r="10.7557" stroke="#B2B2B2" stroke-width="1.41837"/>
<path d="M11.6093 2.10449C9.7866 4.82394 8.67773 8.4195 8.67773 12.362C8.67773 16.4408 9.86457 20.1482 11.8008 22.8984" stroke="#B2B2B2" stroke-width="1.41837"/>
<path d="M11.6093 2.10449C9.7866 4.82394 8.67773 8.4195 8.67773 12.362C8.67773 16.4408 9.86457 20.1482 11.8008 22.8984" stroke="#B2B2B2" stroke-width="1.41837"/>
<path d="M11.6093 2.10449C9.7866 4.82394 8.67773 8.4195 8.67773 12.362C8.67773 16.4408 9.86457 20.1482 11.8008 22.8984" stroke="#B2B2B2" stroke-width="1.41837"/>
<path d="M13.8926 2.10449C15.7154 4.82394 16.8242 8.4195 16.8242 12.362C16.8242 16.4408 15.6374 20.1482 13.7011 22.8984" stroke="#B2B2B2" stroke-width="1.41837"/>
<path d="M13.8926 2.10449C15.7154 4.82394 16.8242 8.4195 16.8242 12.362C16.8242 16.4408 15.6374 20.1482 13.7011 22.8984" stroke="#B2B2B2" stroke-width="1.41837"/>
<path d="M13.8926 2.10449C15.7154 4.82394 16.8242 8.4195 16.8242 12.362C16.8242 16.4408 15.6374 20.1482 13.7011 22.8984" stroke="#B2B2B2" stroke-width="1.41837"/>
<path d="M22.7048 8.95996H2.79297" stroke="#B2B2B2" stroke-width="1.41837"/>
<path d="M22.7048 8.95996H2.79297" stroke="#B2B2B2" stroke-width="1.41837"/>
<path d="M22.7048 8.95996H2.79297" stroke="#B2B2B2" stroke-width="1.41837"/>
<path d="M22.7048 16.0449H2.79297" stroke="#B2B2B2" stroke-width="1.41837"/>
<path d="M22.7048 16.0449H2.79297" stroke="#B2B2B2" stroke-width="1.41837"/>
<path d="M22.7048 16.0449H2.79297" stroke="#B2B2B2" stroke-width="1.41837"/>
</svg>
