<svg width="27" height="27" viewBox="0 0 27 27" fill="none" xmlns="http://www.w3.org/2000/svg">
<path d="M5.26496 5.00342L3.5638 3.30064C9.9759 -1.27187 18.8862 0.228488 23.4544 6.64666C26.9757 11.6002 26.9757 18.2565 23.4544 23.2101L21.7533 21.5073C25.3816 16.0179 23.8708 8.63523 18.3866 5.00342C14.4132 2.37185 9.23833 2.37185 5.26496 5.00342ZM18.4222 8.06367C15.3531 5.00342 10.6064 4.39613 6.87096 6.59904L8.61973 8.34945C12.1768 6.64666 16.4356 8.15893 18.1367 11.7192C19.0647 13.6721 19.0647 15.9346 18.1367 17.8755L19.8855 19.6259C22.0864 15.8869 21.4796 11.1239 18.4222 8.05175V8.06367ZM18.5531 23.3411C14.2943 27.4492 7.52526 27.3301 3.40913 23.0791C-0.599919 18.9234 -0.599919 12.3385 3.40913 8.19465L10.1424 14.9343L11.2132 13.8627C10.8681 12.5885 11.6295 11.2906 12.8905 10.9453C14.1634 10.6 15.4601 11.3621 15.8051 12.6242C16.1501 13.8983 15.3887 15.1963 14.1277 15.5416C13.7233 15.6488 13.295 15.6488 12.9024 15.5416L11.8317 16.6133L18.5531 23.353V23.3411ZM14.9485 23.091L10.1543 18.2804L8.47697 16.6014L3.67086 11.7907C1.48194 15.8393 2.98089 20.9 7.02563 23.091C9.50006 24.4247 12.4741 24.4247 14.9485 23.091Z" fill="#B2B2B2" stroke="#1D1D1D" stroke-width="0.625"/>
</svg>
