<svg width="129" height="128" viewBox="0 0 129 128" fill="none" xmlns="http://www.w3.org/2000/svg">
<path d="M34.7376 63.9999C34.7376 47.7636 47.9467 34.5545 64.1831 34.5545C80.4194 34.5545 93.6286 47.7636 93.6286 63.9999C93.6286 80.2363 80.4194 93.4454 64.1831 93.4454C47.9467 93.4454 34.7376 80.2363 34.7376 63.9999ZM45.3728 63.9999C45.3728 74.372 53.811 82.8102 64.1831 82.8102C74.5551 82.8102 82.9934 74.372 82.9934 63.9999C82.9934 53.6279 74.5551 45.1896 64.1831 45.1896C53.811 45.1896 45.3728 53.6279 45.3728 63.9999ZM27.1553 79.3374L17.3302 83.4071C22.4778 95.7885 32.3946 105.705 44.776 110.853L48.8456 101.028C39.0607 96.9596 31.2234 89.1224 27.1553 79.3374ZM17.3302 44.5928L27.1553 48.6625C31.2234 38.8775 39.0607 31.0403 48.8457 26.9721L44.776 17.147C32.3946 22.2946 22.4778 32.2114 17.3302 44.5928ZM79.5205 101.028L83.5902 110.853C95.9716 105.705 105.888 95.7884 111.036 83.4071L101.211 79.3374C97.1427 89.1224 89.3055 96.9596 79.5205 101.028ZM101.211 48.6625L111.036 44.5928C105.888 32.2114 95.9716 22.2947 83.5902 17.147L79.5205 26.9721C89.3055 31.0403 97.1427 38.8775 101.211 48.6625ZM2.83203 63.9999C2.83203 72.3117 4.49676 80.2411 7.50503 87.4768L17.3302 83.4071C14.8434 77.4257 13.4672 70.8709 13.4672 63.9999C13.4672 57.129 14.8434 50.5741 17.3302 44.5928L7.50503 40.5231C4.49676 47.7588 2.83203 55.6881 2.83203 63.9999ZM111.036 83.4071L120.861 87.4768C123.869 80.2411 125.534 72.3117 125.534 63.9999C125.534 55.6881 123.869 47.7588 120.861 40.5231L111.036 44.5928C113.523 50.5742 114.899 57.129 114.899 63.9999C114.899 70.8709 113.523 77.4257 111.036 83.4071Z" fill="#8E0DD1"/>
</svg>
