<svg width="129" height="129" viewBox="0 0 129 129" fill="none" xmlns="http://www.w3.org/2000/svg">
<rect width="128" height="128" transform="translate(0.183594 0.651367)" fill="#8E0DD1"/>
<path d="M41.0952 64.6513C41.0952 51.9205 51.4524 41.5632 64.1832 41.5632C76.9141 41.5632 87.2714 51.9205 87.2714 64.6513C87.2714 77.3821 76.9141 87.7394 64.1832 87.7394C51.4524 87.7394 41.0952 77.3821 41.0952 64.6513ZM49.4342 64.6513C49.4342 72.784 56.0505 79.4004 64.1832 79.4004C72.3159 79.4004 78.9323 72.784 78.9323 64.6513C78.9323 56.5186 72.3159 49.9022 64.1832 49.9022C56.0505 49.9022 49.4342 56.5186 49.4342 64.6513ZM35.1499 76.6773L27.446 79.8684C31.4823 89.5766 39.258 97.3523 48.9662 101.389L52.1572 93.6847C44.4849 90.4948 38.3397 84.3497 35.1499 76.6773ZM27.446 49.4342L35.1499 52.6253C38.3397 44.9529 44.4849 38.8077 52.1573 35.6179L48.9662 27.9141C39.258 31.9503 31.4823 39.726 27.446 49.4342ZM76.2093 93.6847L79.4003 101.388C89.1085 97.3522 96.8842 89.5765 100.92 79.8683L93.2166 76.6773C90.0268 84.3497 83.8816 90.4948 76.2093 93.6847ZM93.2166 52.6253L100.92 49.4342C96.8842 39.7261 89.1085 31.9503 79.4003 27.9141L76.2092 35.6179C83.8816 38.8077 90.0268 44.9529 93.2166 52.6253ZM16.0781 64.6513C16.0781 71.1686 17.3834 77.3859 19.7422 83.0594L27.446 79.8684C25.4962 75.1784 24.4171 70.0388 24.4171 64.6513C24.4171 59.2638 25.4962 54.1242 27.446 49.4342L19.7422 46.2432C17.3834 51.9166 16.0781 58.134 16.0781 64.6513ZM100.92 79.8683L108.624 83.0594C110.983 77.3859 112.288 71.1685 112.288 64.6513C112.288 58.1341 110.983 51.9166 108.624 46.2432L100.92 49.4342C102.87 54.1242 103.949 59.2638 103.949 64.6513C103.949 70.0388 102.87 75.1784 100.92 79.8683Z" fill="white"/>
</svg>
