<svg width="25" height="25" viewBox="0 0 25 25" fill="none" xmlns="http://www.w3.org/2000/svg">
<path d="M1.60938 21.1279H0.796875C0.796875 21.5767 1.16064 21.9404 1.60938 21.9404L1.60938 21.1279ZM1.60938 3.87207V3.05957C1.16064 3.05957 0.796875 3.42334 0.796875 3.87207H1.60938ZM9.14837 3.87207L9.71681 3.29153L9.47991 3.05957H9.14837V3.87207ZM11.4591 6.13464L10.8907 6.71518L11.1228 6.94253L11.4478 6.94706L11.4591 6.13464ZM23.3888 6.30107H24.2013C24.2013 5.85676 23.8444 5.49484 23.4001 5.48865L23.3888 6.30107ZM23.3888 21.1279V21.9404C23.8375 21.9404 24.2013 21.5767 24.2013 21.1279H23.3888ZM1.60938 21.1279H2.42188V3.87207H1.60938H0.796875V21.1279H1.60938ZM1.60938 3.87207V4.68457H9.14837V3.87207V3.05957H1.60938V3.87207ZM9.14837 3.87207L8.57992 4.45261L10.8907 6.71518L11.4591 6.13464L12.0275 5.5541L9.71681 3.29153L9.14837 3.87207ZM11.4591 6.13464L11.4478 6.94706L23.3774 7.11349L23.3888 6.30107L23.4001 5.48865L11.4704 5.32222L11.4591 6.13464ZM23.3888 6.30107H22.5763V21.1279H23.3888H24.2013V6.30107H23.3888ZM23.3888 21.1279V20.3154H1.60938V21.1279V21.9404H23.3888V21.1279Z" fill="#B2B2B2"/>
<path d="M1.60938 21.1279H0.796875C0.796875 21.5767 1.16064 21.9404 1.60938 21.9404L1.60938 21.1279ZM1.60938 3.87207V3.05957C1.16064 3.05957 0.796875 3.42334 0.796875 3.87207H1.60938ZM9.14837 3.87207L9.71681 3.29153L9.47991 3.05957H9.14837V3.87207ZM11.4591 6.13464L10.8907 6.71518L11.1228 6.94253L11.4478 6.94706L11.4591 6.13464ZM23.3888 6.30107H24.2013C24.2013 5.85676 23.8444 5.49484 23.4001 5.48865L23.3888 6.30107ZM23.3888 21.1279V21.9404C23.8375 21.9404 24.2013 21.5767 24.2013 21.1279H23.3888ZM1.60938 21.1279H2.42188V3.87207H1.60938H0.796875V21.1279H1.60938ZM1.60938 3.87207V4.68457H9.14837V3.87207V3.05957H1.60938V3.87207ZM9.14837 3.87207L8.57992 4.45261L10.8907 6.71518L11.4591 6.13464L12.0275 5.5541L9.71681 3.29153L9.14837 3.87207ZM11.4591 6.13464L11.4478 6.94706L23.3774 7.11349L23.3888 6.30107L23.4001 5.48865L11.4704 5.32222L11.4591 6.13464ZM23.3888 6.30107H22.5763V21.1279H23.3888H24.2013V6.30107H23.3888ZM23.3888 21.1279V20.3154H1.60938V21.1279V21.9404H23.3888V21.1279Z" fill="#B2B2B2"/>
<path d="M1.60938 21.1279H0.796875C0.796875 21.5767 1.16064 21.9404 1.60938 21.9404L1.60938 21.1279ZM1.60938 3.87207V3.05957C1.16064 3.05957 0.796875 3.42334 0.796875 3.87207H1.60938ZM9.14837 3.87207L9.71681 3.29153L9.47991 3.05957H9.14837V3.87207ZM11.4591 6.13464L10.8907 6.71518L11.1228 6.94253L11.4478 6.94706L11.4591 6.13464ZM23.3888 6.30107H24.2013C24.2013 5.85676 23.8444 5.49484 23.4001 5.48865L23.3888 6.30107ZM23.3888 21.1279V21.9404C23.8375 21.9404 24.2013 21.5767 24.2013 21.1279H23.3888ZM1.60938 21.1279H2.42188V3.87207H1.60938H0.796875V21.1279H1.60938ZM1.60938 3.87207V4.68457H9.14837V3.87207V3.05957H1.60938V3.87207ZM9.14837 3.87207L8.57992 4.45261L10.8907 6.71518L11.4591 6.13464L12.0275 5.5541L9.71681 3.29153L9.14837 3.87207ZM11.4591 6.13464L11.4478 6.94706L23.3774 7.11349L23.3888 6.30107L23.4001 5.48865L11.4704 5.32222L11.4591 6.13464ZM23.3888 6.30107H22.5763V21.1279H23.3888H24.2013V6.30107H23.3888ZM23.3888 21.1279V20.3154H1.60938V21.1279V21.9404H23.3888V21.1279Z" fill="#B2B2B2"/>
</svg>
